<svg width="136" height="136" viewBox="0 0 136 136" fill="none" xmlns="http://www.w3.org/2000/svg">
<path d="M32.0252 89.6457C28.8713 92.8077 28.8713 97.9268 32.0252 101.089L37.2938 106.37C40.4599 109.525 45.5816 109.525 48.7491 106.37L73.07 82.0488C76.2252 78.8827 76.2252 73.7609 73.07 70.5935L70.7172 68.2407C68.6908 66.2252 68.6812 62.9489 70.6968 60.9225C70.7036 60.9157 70.7104 60.9089 70.7172 60.9021L75.4214 56.1979C77.4369 54.1715 80.7132 54.162 82.7396 56.1775C82.7464 56.1843 82.7532 56.1911 82.76 56.1979L85.0176 58.4446C89.7436 63.1407 92.4336 69.5069 92.5098 76.1681C92.5669 82.9097 89.8945 89.3873 85.1005 94.1269L60.7932 118.4C50.9931 128.211 35.0947 128.221 25.2836 118.419C25.2768 118.412 25.27 118.406 25.2646 118.4L20.1252 113.273C15.3992 108.573 12.7077 102.203 12.6329 95.5373C12.5867 88.8338 15.2346 82.3929 19.9837 77.6614L26.7919 70.8628C28.8074 68.8364 32.0836 68.8269 34.11 70.8424C34.1168 70.8492 34.1236 70.856 34.1304 70.8628L38.8347 75.567C40.8638 77.588 40.872 80.8724 38.851 82.9015C38.8456 82.9069 38.8401 82.9124 38.8347 82.9178L32.0252 89.6457ZM96.8047 57.0792C94.7756 59.1001 94.7674 62.3845 96.7884 64.4137C96.7938 64.4191 96.7992 64.4245 96.8047 64.43L101.509 69.1342C103.538 71.1552 106.82 71.1552 108.847 69.1342L116.021 61.9725C125.82 52.156 125.82 36.2589 116.021 26.4425L111.211 21.6444C101.411 11.8333 85.5126 11.8238 75.7016 21.6253C75.6948 21.6321 75.688 21.6389 75.6825 21.6444L51.1141 46.1774C41.3031 55.9776 41.2936 71.876 51.0951 81.687C51.1019 81.6938 51.1087 81.7006 51.1141 81.7061L53.5485 84.1527C55.5776 86.1737 58.8593 86.1737 60.8871 84.1527L65.5913 79.4485C67.6136 77.4153 67.6136 74.1309 65.5913 72.0977L63.1447 69.6633C59.9895 66.4972 59.9895 61.3754 63.1447 58.208L87.7008 33.6627C90.8669 30.5075 95.9887 30.5075 99.1561 33.6627L103.954 38.4608C107.109 41.6269 107.109 46.7486 103.954 49.9161L96.8047 57.0792Z" fill="#7C3AED"/>
<path d="M32.8646 37.2994L37.4437 24.4814L24.6257 29.0591L14.2489 21.1249L14.5536 33.9429L4.17676 40.9618L8.75452 42.4878L16.6901 45.235L19.4373 53.1692L20.9632 57.7483L27.9822 47.3715L40.8002 47.9822L32.8646 37.2994Z" fill="#7C3AED"/>
<path d="M58.9982 19.3746L65.14 15.8182L58.9982 12.2618L55.4418 6.12L51.8854 12.2618L45.7437 15.8182L51.8854 19.3746L55.4418 25.5163L58.9982 19.3746Z" fill="#7C3AED"/>
<path d="M118.716 105.974L129.056 96.6701L115.307 94.5635L109.829 82.3901L103.881 94.0644L91.1416 95.3387L94.5171 98.9332L100.319 105.256L98.9371 113.725L98.0858 118.581L109.436 112.658L120.666 119.431L118.716 105.974Z" fill="#7C3AED"/>
<path d="M79.2609 121.913L83.5966 119.404L79.2609 116.895L76.7517 112.559L74.2425 116.895L69.9082 119.404L74.2425 121.913L76.7517 126.247L79.2609 121.913Z" fill="#7C3AED"/>
</svg>
