<svg width="39" height="41" viewBox="0 0 39 41" fill="none" xmlns="http://www.w3.org/2000/svg">
<path fill-rule="evenodd" clip-rule="evenodd" d="M0.150879 20.9754L0.152809 20.775L0.156789 20.5745L0.162829 20.374L0.170919 20.1735L0.181079 19.973L0.193289 19.7725L0.207569 19.5721L0.223899 19.3717L0.242299 19.1714L0.262759 18.9711L0.285279 18.7711L0.309849 18.5711L0.336489 18.3713L0.365189 18.1717L0.395939 17.9723L0.428749 17.7732L0.463619 17.5742L0.500529 17.3756L0.539499 17.1772L0.580519 16.9791L0.623589 16.7813L0.668689 16.5839L0.715849 16.3869L0.765029 16.1902L0.816259 15.994L0.869509 15.7981L0.924799 15.6027L0.982109 15.4078L1.04144 15.2134L1.10278 15.0195L1.16614 14.8261L1.23151 14.6332L1.29888 14.4409L1.36824 14.2492L1.4396 14.0581L1.51294 13.8676L1.58827 13.6778L1.66557 13.4886L1.74484 13.3002L1.82607 13.1124L1.90926 12.9253L1.9944 12.739L2.08148 12.5535L2.1705 12.3687L2.26145 12.1847L2.35432 12.0016L2.4491 11.8193L2.54579 11.6378L2.64437 11.4573L2.74484 11.2776L2.8472 11.0988L2.95142 10.921L3.05751 10.7441L3.16545 10.5682L3.27524 10.3933L3.38686 10.2194L3.50031 10.0466L3.61558 9.87464L3.73265 9.70394L3.85152 9.53424L3.97217 9.36564L4.09459 9.19824L4.21878 9.03184L4.34472 8.86674L4.47241 8.70274L4.60182 8.53988L4.73295 8.37828L4.86579 8.2179L5.00032 8.05876L5.13654 7.90087L5.27443 7.74426L5.41397 7.58895L5.55516 7.43494L5.69799 7.28226L5.84243 7.13092L5.98848 6.98094L6.13612 6.83233L6.28534 6.68511L6.43613 6.5393L6.58847 6.39491L6.74235 6.25197L6.89775 6.11047L7.05466 5.97045L7.21307 5.83191L7.37296 5.69486L7.53431 5.55934L7.69711 5.42535L7.86135 5.2929L8.02701 5.16201L8.19408 5.03269L8.36248 4.90497L8.53238 4.77884L8.70358 4.65434L8.87608 4.53147L9.04988 4.41024L9.22508 4.29067L9.40148 4.17276L9.57918 4.05655L9.75818 3.94203L9.93848 3.82923L10.1199 3.71815L10.3026 3.6088L10.4864 3.50121L10.6714 3.39538L10.8576 3.29132L11.0449 3.18905L11.2333 3.08857L11.4228 2.98991L11.6134 2.89306L11.8051 2.79805L11.9978 2.70488L12.1916 2.61356L12.3863 2.52411L12.5821 2.43654L12.7788 2.35085L12.9765 2.26706L13.1751 2.18518L13.3746 2.10521L13.575 2.02716L13.7763 1.95106L13.9784 1.87689L14.1814 1.80469L14.3852 1.73444L14.5898 1.66616L14.7951 1.59987L15.0012 1.53556L15.2081 1.47325L15.4157 1.41295L15.6239 1.35466L15.8329 1.29838L16.0425 1.24413L16.2527 1.19192L16.4635 1.14176L16.675 1.09363L16.887 1.04757L17.0995 1.00356L17.3126 0.961619L17.5262 0.921759L17.7403 0.883969L17.9549 0.848269L18.1699 0.814659L18.3853 0.783139L18.6011 0.753729L18.8173 0.726419L19.0339 0.701219L19.2508 0.678119L19.468 0.657159L19.6855 0.638309L19.9033 0.621579L20.1213 0.606989L21.2937 0.540039L21.3606 6.18871L21.3989 6.18827L21.5608 6.18804L21.7227 6.1894L21.8846 6.19235L22.0467 6.1969L22.2087 6.20304L22.3708 6.21076L22.5329 6.22009L22.695 6.23102L22.857 6.24353L23.0191 6.25765L23.181 6.27337L23.3429 6.29069L23.5046 6.3096L23.6663 6.33011L23.8278 6.35222L23.9892 6.37592L24.1504 6.40123L24.3115 6.42813L24.4723 6.45662L24.633 6.48671L24.7934 6.51839L24.9535 6.55167L25.1135 6.58653L25.2731 6.62298L25.4324 6.66101L25.5915 6.70063L25.7502 6.74184L25.9085 6.78462L26.0665 6.82898L26.2242 6.87491L26.3814 6.92241L26.5382 6.97148L26.6946 7.02212L26.8506 7.07432L27.0061 7.12807L27.1611 7.18338L27.3157 7.24023L27.4697 7.29864L27.6232 7.35858L27.7762 7.42007L27.9286 7.48309L28.0804 7.54763L28.2317 7.6137L28.3824 7.68129L28.5324 7.75039L28.6818 7.82099L28.8306 7.8931L28.9787 7.96671L29.1261 8.04181L29.2728 8.11839L29.4188 8.19645L29.5641 8.27599L29.7086 8.35699L29.8524 8.43945L29.9954 8.52336L30.1376 8.60874L30.279 8.69554L30.4196 8.78374L30.5593 8.87344L30.6982 8.96444L30.8362 9.05694L30.9734 9.15084L31.1096 9.24604L31.245 9.34274L31.3794 9.44074L31.5128 9.54014L31.6454 9.64094L31.7769 9.74304L31.9075 9.84654L32.037 9.95124L32.1656 10.0574L32.2931 10.1649L32.4196 10.2736L32.5451 10.3836L32.6695 10.4949L32.7927 10.6075L32.9149 10.7214L33.036 10.8365L33.156 10.9528L33.2748 11.0704L33.3925 11.1892L33.509 11.3093L33.6244 11.4305L33.7385 11.5529L33.8515 11.6765L33.9632 11.8013L34.0737 11.9272L34.183 12.0543L34.291 12.1825L34.3978 12.3118L34.5033 12.4423L34.6075 12.5738L34.7104 12.7064L34.812 12.8401L34.9123 12.9749L35.0112 13.1107L35.1088 13.2476L35.205 13.3855L35.2999 13.5243L35.3934 13.6642L35.4855 13.8051L35.5762 13.947L35.6654 14.0898L35.7533 14.2335L35.8397 14.3782L35.9247 14.5238L36.0082 14.6703L36.0903 14.8177L36.1709 14.966L36.25 15.1151L36.3276 15.2651L36.4037 15.4159L36.4783 15.5675L36.5514 15.72L36.623 15.8732L36.693 16.0272L36.7615 16.182L36.8284 16.3375L36.8937 16.4938L36.9575 16.6507L37.0197 16.8084L37.0803 16.9667L37.1393 17.1258L37.1967 17.2854L37.2525 17.4458L37.3067 17.6067L37.3593 17.7683L37.4102 17.9304L37.4595 18.0931L37.5071 18.2564L37.5531 18.4202L37.5974 18.5846L37.6401 18.7495L37.681 18.9148L37.7204 19.0807L37.758 19.247L37.7939 19.4138L37.8282 19.5809L37.8607 19.7486L37.8915 19.9166L37.9207 20.085L37.9481 20.2537L37.9738 20.4228L37.9978 20.5923L38.02 20.762L38.0405 20.9321L38.0593 21.1024L38.0763 21.273L38.0916 21.4438L38.1052 21.6149L38.117 21.7862L38.127 21.9577L38.1353 22.1293L38.1419 22.3012L38.1466 22.4731L38.1497 22.6452L38.1509 22.8174L38.1504 22.9897L38.1481 23.1621L38.144 23.3346L38.1382 23.507L38.1306 23.6795L38.1213 23.852L38.1101 24.0245L38.0972 24.197L38.0825 24.3694L38.066 24.5418L38.0478 24.7141L38.0277 24.8862L38.0059 25.0583L37.9824 25.2302L37.957 25.402L37.9299 25.5736L37.901 25.745L37.8703 25.9162L37.8379 26.0872L37.8037 26.258L37.7677 26.4285L37.7299 26.5987L37.6904 26.7687L37.6492 26.9383L37.6061 27.1076L37.5613 27.2765L37.5148 27.4451L37.4665 27.6133L37.4165 27.7811L37.3647 27.9486L37.3111 28.1155L37.2559 28.2821L37.1989 28.4481L37.1401 28.6137L37.0797 28.7788L37.0175 28.9433L36.9536 29.1073L36.888 29.2708L36.8207 29.4337L36.7517 29.596L36.681 29.7578L36.6086 29.9188L36.5345 30.0793L36.4587 30.2391L36.3813 30.3982L36.3021 30.5567L36.2214 30.7144L36.1389 30.8715L36.0549 31.0277L35.9691 31.1833L35.8818 31.338L35.7928 31.492L35.7022 31.6452L35.61 31.7975L35.5162 31.9491L35.4207 32.0997L35.3237 32.2495L35.2252 32.3984L35.125 32.5464L35.0233 32.6935L34.92 32.8397L34.8152 32.9849L34.7088 33.1292L34.6009 33.2725L34.4915 33.4148L34.3806 33.556L34.2682 33.6963L34.1543 33.8355L34.0389 33.9736L33.922 34.1107L33.8037 34.2467L33.6839 34.3816L33.5627 34.5154L33.4401 34.6481L33.3161 34.7796L33.1906 34.91L33.0638 35.0391L32.9355 35.1671L32.8059 35.2939L32.675 35.4195L32.5427 35.5439L32.4091 35.667L32.2741 35.7889L32.1378 35.9094L32.0003 36.0287L31.8614 36.1468L31.7213 36.2635L31.5799 36.3788L31.4373 36.4929L31.2934 36.6056L31.1483 36.7169L31.002 36.8268L30.8545 36.9354L30.7059 37.0426L30.556 37.1483L30.405 37.2527L30.2529 37.3556L30.0997 37.457L29.9453 37.557L29.7899 37.6556L29.6334 37.7526L29.4758 37.8482L29.3171 37.9422L29.1574 38.0348L28.9968 38.1258L28.835 38.2152L28.6724 38.3032L28.5087 38.3895L28.3441 38.4743L28.1785 38.5576L28.012 38.6392L27.8446 38.7192L27.6763 38.7977L27.5071 38.8745L27.3371 38.9497L27.1662 39.0232L26.9945 39.0951L26.822 39.1654L26.6487 39.234L26.4746 39.3009L26.2997 39.3662L26.1241 39.4297L25.9477 39.4916L25.7707 39.5517L25.593 39.6102L25.4145 39.6669L25.2354 39.7219L25.0557 39.7752L24.8754 39.8267L24.6944 39.8765L24.5129 39.9246L24.3307 39.9708L24.1481 40.0153L23.9649 40.0581L23.7811 40.099L23.5969 40.1382L23.4122 40.1756L23.227 40.2112L23.0414 40.245L22.8554 40.2769L22.6689 40.3071L22.4821 40.3355L22.2948 40.362L22.1073 40.3867L21.9194 40.4096L21.7311 40.4306L21.5426 40.4498L21.3538 40.4672L21.1648 40.4827L20.9755 40.4964L20.786 40.5082L20.5962 40.5182L20.4063 40.5263L20.2163 40.5325L20.026 40.5369L19.8357 40.5394L19.6452 40.5401L19.4547 40.5389L19.2641 40.5358L19.0734 40.5309L18.8827 40.524L18.692 40.5153L18.5013 40.5048L18.3107 40.4923L18.12 40.478L17.9295 40.4618L17.739 40.4437L17.5486 40.4238L17.3584 40.402L17.1683 40.3783L16.9783 40.3527L16.7886 40.3252L16.599 40.2959L16.4097 40.2647L16.2206 40.2317L16.0317 40.1967L15.8432 40.1599L15.6549 40.1213L15.467 40.0807L15.2793 40.0383L15.0921 39.9941L14.9052 39.948L14.7187 39.9L14.5326 39.8502L14.347 39.7986L14.1618 39.7451L13.977 39.6898L13.7928 39.6326L13.6091 39.5736L13.4259 39.5128L13.2432 39.4501L13.0611 39.3856L12.8796 39.3194L12.6987 39.2513L12.5184 39.1814L12.3388 39.1097L12.1598 39.0362L11.9815 38.9609L11.8039 38.8839L11.627 38.8051L11.4508 38.7245L11.2754 38.6421L11.1008 38.558L10.927 38.4721L10.7539 38.3845L10.5817 38.2952L10.4104 38.2041L10.2398 38.1114L10.0702 38.0169L9.90148 37.9207L9.73368 37.8228L9.56678 37.7232L9.40088 37.622L9.23588 37.519L9.07188 37.4145L8.90898 37.3082L8.74698 37.2004L8.58608 37.0908L8.42628 36.9797L8.26748 36.867L8.10979 36.7526L7.95321 36.6367L7.79775 36.5191L7.64344 36.4L7.49028 36.2794L7.33829 36.1571L7.1875 36.0334L7.03791 35.9081L6.88954 35.7813L6.74241 35.653L6.59654 35.5231L6.45194 35.3918L6.30863 35.2591L6.16661 35.1248L6.02592 34.9892L5.88656 34.852L5.74854 34.7135L5.61189 34.5736L5.47662 34.4322L5.34274 34.2895L5.21027 34.1454L5.07923 33.9999L4.94962 33.8531L4.82146 33.705L4.69477 33.5555L4.56956 33.4048L4.44585 33.2527L4.32364 33.0994L4.20296 32.9448L4.08381 32.789L3.96621 32.6319L3.85017 32.4736L3.73571 32.3141L3.62283 32.1534L3.51156 31.9916L3.4019 31.8286L3.29387 31.6644L3.18748 31.4992L3.08273 31.3328L2.97965 31.1653L2.87825 30.9968L2.77853 30.8271L2.68052 30.6565L2.58421 30.4848L2.48962 30.3121L2.39677 30.1383L2.30565 29.9636L2.2163 29.788L2.1287 29.6114L2.04289 29.4339L1.95886 29.2554L1.87662 29.0761L1.79619 28.8958L1.71757 28.7148L1.64078 28.5328L1.56583 28.3501L1.49271 28.1665L1.42145 27.9821L1.35206 27.797L1.28453 27.6111L1.21888 27.4245L1.15511 27.2372L1.09324 27.0491L1.03328 26.8604L0.975219 26.671L0.919089 26.481L0.864879 26.2903L0.812599 26.099L0.762259 25.9072L0.713869 25.7148L0.667429 25.5218L0.622959 25.3283L0.580449 25.1342L0.539909 24.9397L0.501349 24.7447L0.464769 24.5493L0.430179 24.3534L0.397589 24.1571L0.366989 23.9604L0.338399 23.7633L0.311819 23.5658L0.287259 23.368L0.264709 23.1699L0.244179 22.9715L0.225679 22.7729L0.209209 22.5739L0.194769 22.3747L0.182369 22.1753L0.172009 21.9757L0.163689 21.7759L0.157409 21.576L0.153179 21.3759L0.151009 21.1757L0.150879 20.9754ZM19.529 6.30703L19.4834 2.45683L19.4401 2.46101L19.2413 2.48217L19.043 2.50525L18.8448 2.53029L18.6474 2.55719L18.4502 2.58605L18.2532 2.61684L18.0568 2.64952L17.8606 2.68415L17.6654 2.72058L17.4699 2.75905L17.2758 2.79925L17.0814 2.84148L16.888 2.8855L16.6948 2.93148L16.5025 2.97922L16.3107 3.02888L16.1194 3.08039L15.9287 3.13376L15.7389 3.18892L15.5494 3.24598L15.3609 3.30481L15.1729 3.36551L14.9859 3.42789L14.7992 3.49224L14.6135 3.55831L14.4287 3.62613L14.2444 3.6958L14.0611 3.76717L13.8788 3.84026L13.697 3.91523L13.5161 3.9919L13.3361 4.07032L13.1571 4.15039L12.979 4.2322L12.8019 4.31566L12.6254 4.40096L12.4502 4.48782L12.2759 4.57637L12.1026 4.66659L11.9303 4.75848L11.7592 4.85194L11.5888 4.94713L11.4195 5.04397L11.2517 5.14219L11.0844 5.24233L10.9187 5.3438L10.7541 5.44685L10.5903 5.55159L10.4278 5.65786L10.2665 5.76568L10.1067 5.87477L9.94748 5.98579L9.78988 6.098L9.63348 6.21176L9.47818 6.32708L9.32428 6.44377L9.17178 6.56186L9.02018 6.68161L8.87028 6.8025L8.72148 6.92498L8.57408 7.04879L8.42798 7.17404L8.28338 7.30049L8.13986 7.42854L7.99798 7.55773L7.85731 7.68841L7.71827 7.82019L7.5805 7.9534L7.44426 8.08781L7.30941 8.22355L7.17587 8.36069L7.04408 8.49877L6.91377 8.63804L6.78462 8.77894L6.65726 8.92074L6.53146 9.06354L6.40695 9.20784L6.28425 9.35304L6.16291 9.49954L6.0432 9.64704L5.92506 9.79574L5.80846 9.94544L5.69358 10.0962L5.5802 10.248L5.46838 10.401L5.35836 10.5547L5.24981 10.7097L5.14299 10.8655L5.03782 11.0223L4.93423 11.1801L4.83239 11.3388L4.73222 11.4983L4.63373 11.6588L4.537 11.8201L4.44186 11.9824L4.34843 12.1456L4.25684 12.3094L4.16689 12.4741L4.07866 12.6397L3.99222 12.806L3.90748 12.9731L3.82456 13.1408L3.74337 13.3093L3.66397 13.4785L3.5863 13.6485L3.51047 13.819L3.43636 13.9903L3.36406 14.1622L3.29361 14.3346L3.22492 14.5077L3.15803 14.6814L3.09298 14.8556L3.02973 15.0304L2.96835 15.2056L2.90874 15.3815L2.85098 15.5578L2.79507 15.7346L2.74101 15.9117L2.68875 16.0895L2.63838 16.2675L2.58985 16.446L2.54316 16.6248L2.49833 16.8041L2.45537 16.9836L2.41427 17.1635L2.37503 17.3437L2.33766 17.5242L2.30216 17.7049L2.26852 17.8859L2.23676 18.0671L2.20687 18.2486L2.17886 18.4302L2.15272 18.612L2.12846 18.794L2.10607 18.9761L2.08556 19.1583L2.06693 19.3407L2.05018 19.5231L2.0353 19.7055L2.0223 19.8881L2.01118 20.0707L2.00193 20.2532L1.99456 20.4358L1.98906 20.6183L1.98544 20.8008L1.98368 20.9832L1.9838 21.1656L1.98578 21.3478L1.98963 21.53L1.99534 21.712L2.00291 21.8938L2.01235 22.0755L2.02363 22.2569L2.03677 22.4382L2.05176 22.6192L2.0686 22.8L2.08727 22.9806L2.10779 23.1608L2.13014 23.3408L2.15432 23.5204L2.18033 23.6997L2.20817 23.8787L2.23781 24.0572L2.26928 24.2354L2.30255 24.4132L2.33762 24.5905L2.37449 24.7675L2.41315 24.9439L2.4536 25.1199L2.49583 25.2954L2.53983 25.4704L2.58561 25.6449L2.63313 25.8187L2.68243 25.9921L2.73347 26.1649L2.78625 26.3371L2.84077 26.5087L2.897 26.6796L2.95496 26.8499L3.01464 27.0195L3.07602 27.1885L3.13908 27.3567L3.20387 27.5243L3.2703 27.6911L3.33841 27.8572L3.4082 28.0225L3.47963 28.187L3.55272 28.3508L3.62744 28.5138L3.70379 28.6759L3.78175 28.8372L3.86133 28.9976L3.9425 29.1572L4.02527 29.3159L4.10961 29.4737L4.19553 29.6306L4.283 29.7865L4.37202 29.9415L4.46258 30.0956L4.55468 30.2486L4.64825 30.4007L4.74339 30.5518L4.83998 30.7018L4.93808 30.8509L5.03765 30.9989L5.13866 31.1458L5.24112 31.2917L5.34505 31.4365L5.45037 31.5802L5.55714 31.7228L5.66526 31.8642L5.77483 32.0045L5.88571 32.1436L5.99799 32.2816L6.11165 32.4185L6.22658 32.5541L6.34288 32.6885L6.46047 32.8217L6.5794 32.9537L6.69958 33.0844L6.82101 33.2139L6.94373 33.3421L7.06768 33.4691L7.1929 33.5948L7.3193 33.7191L7.44694 33.8422L7.57572 33.9639L7.70569 34.0844L7.83686 34.2035L7.96915 34.3212L8.1025 34.4375L8.23708 34.5525L8.37278 34.6661L8.50938 34.7783L8.64728 34.8892L8.78608 34.9985L8.92598 35.1065L9.06688 35.2131L9.20888 35.3182L9.35178 35.4218L9.49568 35.524L9.64048 35.6247L9.78638 35.724L9.93308 35.8217L10.0809 35.918L10.2294 36.0128L10.3789 36.106L10.5293 36.1978L10.6804 36.288L10.8325 36.3767L10.9853 36.4638L11.139 36.5494L11.2934 36.6334L11.4487 36.7159L11.6046 36.7968L11.7613 36.8762L11.9188 36.9539L12.077 37.0301L12.2358 37.1047L12.3953 37.1777L12.5554 37.249L12.7163 37.3188L12.8777 37.3869L13.0398 37.4535L13.2024 37.5184L13.3656 37.5816L13.5294 37.6433L13.6936 37.7033L13.8584 37.7616L14.0238 37.8183L14.1896 37.8734L14.3559 37.9268L14.5225 37.9785L14.6898 38.0286L14.8573 38.077L15.0253 38.1237L15.1937 38.1688L15.3624 38.2122L15.5315 38.2539L15.7008 38.2939L15.8706 38.3323L16.0406 38.3689L16.2108 38.4039L16.3814 38.4372L16.5522 38.4688L16.7232 38.4987L16.8944 38.5269L17.0658 38.5534L17.2374 38.5782L17.4092 38.6013L17.581 38.6228L17.753 38.6425L17.9251 38.6605L18.0973 38.6769L18.2696 38.6915L18.4419 38.7045L18.6142 38.7157L18.7866 38.7253L18.9589 38.7331L19.1312 38.7393L19.3035 38.7438L19.4758 38.7465L19.6479 38.7476L19.82 38.747L19.992 38.7447L20.1638 38.7408L20.3355 38.7351L20.5071 38.7278L20.6785 38.7188L20.8496 38.7081L21.0206 38.6958L21.1914 38.6818L21.3619 38.6661L21.5321 38.6487L21.7021 38.6297L21.8717 38.6091L22.0411 38.5868L22.2101 38.5628L22.3788 38.5372L22.5471 38.51L22.7151 38.4811L22.8827 38.4506L23.0498 38.4185L23.2165 38.3848L23.3828 38.3494L23.5486 38.3125L23.7139 38.2739L23.8788 38.2337L24.0431 38.192L24.2069 38.1486L24.3701 38.1037L24.5329 38.0572L24.695 38.0091L24.8566 37.9595L25.0175 37.9084L25.1779 37.8556L25.3376 37.8014L25.4965 37.7456L25.655 37.6882L25.8127 37.6294L25.9697 37.569L26.126 37.5072L26.2815 37.4439L26.4363 37.379L26.5904 37.3127L26.7437 37.2449L26.8961 37.1757L27.0479 37.105L27.1988 37.0328L27.3488 36.9593L27.4981 36.8842L27.6464 36.8078L27.7939 36.73L27.9406 36.6507L28.0862 36.5701L28.231 36.4881L28.3748 36.4048L28.5179 36.32L28.6597 36.234L28.8009 36.1465L28.9408 36.0578L29.0798 35.9677L29.2179 35.8763L29.355 35.7835L29.4908 35.6897L29.6257 35.5944L29.7596 35.4979L29.8924 35.4002L30.0242 35.3011L30.1547 35.201L30.2844 35.0994L30.4127 34.9968L30.5399 34.893L30.6662 34.7879L30.7912 34.6816L30.9149 34.5743L31.0376 34.4657L31.159 34.3561L31.2793 34.2453L31.3984 34.1334L31.5161 34.0205L31.6328 33.9063L31.7482 33.7911L31.8623 33.6749L31.9752 33.5576L32.0867 33.4394L32.1969 33.3202L32.3061 33.1996L32.4137 33.0784L32.5202 32.956L32.6252 32.8328L32.729 32.7085L32.8314 32.5834L32.9324 32.4573L33.0322 32.3302L33.1305 32.2024L33.2276 32.0735L33.3231 31.9439L33.4174 31.8133L33.5104 31.6818L33.6016 31.5498L33.6917 31.4167L33.7802 31.283L33.8674 31.1483L33.9533 31.0128L34.0375 30.8768L34.1203 30.74L34.2018 30.6021L34.2816 30.464L34.3601 30.3249L34.4372 30.1851L34.5126 30.0449L34.5867 29.9037L34.6593 29.7619L34.7302 29.62L34.7998 29.4769L34.8679 29.3333L34.9344 29.1893L34.9994 29.0447L35.0629 28.8995L35.1248 28.7539L35.1853 28.6075L35.2442 28.4607L35.3015 28.3138L35.3573 28.1658L35.4115 28.0178L35.4643 27.8691L35.5155 27.7201L35.5651 27.5706L35.613 27.4211L35.6596 27.2705L35.7044 27.1201L35.7477 26.9692L35.7895 26.8181L35.8297 26.6664L35.8682 26.5147L35.9053 26.3625L35.9407 26.21L35.9746 26.0574L36.0069 25.9044L36.0375 25.7515L36.0666 25.5979L36.0941 25.4447L36.12 25.2909L36.1443 25.137L36.167 24.9831L36.1882 24.8289L36.2077 24.6749L36.2257 24.5202L36.242 24.3661L36.2568 24.2115L36.2699 24.0572L36.2815 23.9024L36.2915 23.7482L36.2999 23.5935L36.3067 23.4387L36.3119 23.2843L36.3156 23.1302L36.3176 22.9755L36.3181 22.8211L36.317 22.6669L36.3143 22.5128L36.31 22.3587L36.3041 22.2052L36.2967 22.0511L36.2877 21.8977L36.2771 21.7443L36.265 21.5914L36.2513 21.4382L36.2361 21.2857L36.2193 21.1331L36.2009 20.981L36.181 20.829L36.1596 20.6775L36.1365 20.5259L36.112 20.375L36.086 20.2246L36.0584 20.0741L36.0292 19.9241L35.9986 19.7747L35.9664 19.6252L35.9329 19.4768L35.8976 19.3282L35.8611 19.1806L35.8228 19.0328L35.7832 18.8861L35.7421 18.7396L35.6995 18.5934L35.6555 18.4481L35.61 18.3033L35.5629 18.1586L35.5146 18.015L35.4646 17.8715L35.4134 17.7289L35.3606 17.5866L35.3065 17.4453L35.2508 17.3042L35.1938 17.1639L35.1355 17.0245L35.0758 16.8857L35.0144 16.7471L34.9521 16.6098L34.888 16.4726L34.8228 16.3367L34.7562 16.2013L34.6881 16.0664L34.6189 15.9326L34.5482 15.7994L34.4761 15.6668L34.4031 15.5355L34.3284 15.4045L34.2526 15.2746L34.1753 15.1453L34.0971 15.0173L34.0172 14.8896L33.9364 14.7631L33.8541 14.6372L33.7707 14.5124L33.6862 14.3887L33.6002 14.2655L33.5131 14.1434L33.4249 14.0222L33.3354 13.9021L33.2448 13.7827L33.153 13.6645L33.0601 13.5471L32.966 13.4308L32.8708 13.3155L32.7744 13.2011L32.6769 13.0878L32.5784 12.9755L32.4789 12.8643L32.3782 12.7541L32.2762 12.6448L32.1737 12.537L32.0695 12.4298L31.9648 12.3241L31.8589 12.2192L31.7521 12.1156L31.6439 12.0128L31.5353 11.9116L31.4253 11.8112L31.3144 11.712L31.2029 11.6141L31.0903 11.5173L30.9764 11.4214L30.8619 11.3269L30.7466 11.2336L30.6303 11.1415L30.5131 11.0505L30.3953 10.961L30.2762 10.8722L30.1567 10.7851L30.0362 10.6991L29.9148 10.6142L29.7929 10.5307L29.6697 10.4482L29.5465 10.3674L29.4219 10.2875L29.2969 10.209L29.1709 10.1317L29.0444 10.0557L28.9172 9.98104L28.7895 9.90784L28.6606 9.83554L28.5317 9.76494L28.4017 9.69544L28.2712 9.62734L28.1402 9.56064L28.0084 9.49514L27.8761 9.43094L27.7433 9.36824L27.6098 9.30674L27.476 9.24674L27.3415 9.18794L27.2022 9.12874L27.0712 9.07464L26.9349 9.01984L26.7988 8.96674L26.6616 8.91464L26.5244 8.86424L26.3866 8.81504L26.2485 8.76734L26.1098 8.72084L25.971 8.67594L25.8316 8.63234L25.6919 8.59014L25.5521 8.54944L25.4117 8.51L25.2708 8.47192L25.1301 8.43539L24.9891 8.40025L24.8472 8.3664L24.7058 8.33411L24.5637 8.30311L24.4216 8.27361L24.279 8.24545L24.1366 8.21877L23.9938 8.19347L23.8511 8.16964L23.7077 8.14714L23.5647 8.12613L23.4214 8.10651L23.2779 8.0883L23.1344 8.07152L22.9909 8.05618L22.8473 8.04224L22.7036 8.02972L22.5598 8.01861L22.4159 8.00891L22.2724 8.00065L22.1288 7.9938L21.9847 7.98835L21.8414 7.98433L21.6978 7.98171L21.5543 7.98051L21.4106 7.98071L21.3818 7.98104L21.4271 11.8033L21.5086 11.8029L21.6135 11.8035L21.7184 11.8051L21.8234 11.8078L21.9285 11.8115L22.0336 11.8163L22.1387 11.8221L22.2439 11.8289L22.3491 11.8368L22.4543 11.8457L22.5595 11.8557L22.6646 11.8667L22.7698 11.8788L22.8749 11.8919L22.9799 11.906L23.0849 11.9213L23.1898 11.9375L23.2946 11.9548L23.3994 11.9732L23.504 11.9926L23.6085 12.0131L23.7129 12.0346L23.8172 12.0571L23.9213 12.0807L24.0252 12.1054L24.129 12.1311L24.2325 12.1578L24.3359 12.1856L24.4391 12.2144L24.5421 12.2443L24.6449 12.2752L24.7474 12.3071L24.8496 12.3401L24.9516 12.3741L25.0534 12.4092L25.1548 12.4453L25.256 12.4824L25.3568 12.5205L25.4574 12.5597L25.5576 12.5999L25.6575 12.6411L25.757 12.6834L25.8562 12.7266L25.955 12.7709L26.0534 12.8161L26.1514 12.8624L26.2491 12.9097L26.3463 12.958L26.4431 13.0073L26.5395 13.0576L26.6354 13.1088L26.7309 13.1611L26.8259 13.2143L26.9204 13.2685L27.0145 13.3237L27.1081 13.3799L27.2011 13.437L27.2936 13.4951L27.3856 13.5542L27.4771 13.6142L27.568 13.6751L27.6584 13.737L27.7482 13.7999L27.8374 13.8636L27.926 13.9283L28.014 13.994L28.1015 14.0605L28.1882 14.128L28.2744 14.1964L28.3599 14.2656L28.4448 14.3358L28.529 14.4069L28.6126 14.4788L28.6955 14.5516L28.7777 14.6253L28.8592 14.6999L28.9399 14.7753L29.02 14.8516L29.0993 14.9287L29.1779 15.0067L29.2558 15.0855L29.3329 15.1652L29.4093 15.2456L29.4848 15.3269L29.5596 15.409L29.6336 15.4919L29.7068 15.5755L29.7792 15.66L29.8508 15.7452L29.9216 15.8312L29.9915 15.918L30.0606 16.0055L30.1288 16.0938L30.1962 16.1828L30.2627 16.2726L30.3283 16.363L30.3931 16.4542L30.4569 16.5461L30.5199 16.6387L30.5819 16.732L30.643 16.8259L30.7032 16.9206L30.7625 17.0159L30.8209 17.1118L30.8783 17.2084L30.9347 17.3057L30.9902 17.4035L31.0447 17.502L31.0982 17.6011L31.1508 17.7008L31.2024 17.8011L31.2529 17.902L31.3025 18.0035L31.3511 18.1055L31.3986 18.208L31.4451 18.3112L31.4906 18.4148L31.5351 18.519L31.5785 18.6237L31.6209 18.7289L31.6622 18.8346L31.7024 18.9407L31.7416 19.0474L31.7797 19.1545L31.8168 19.2621L31.8528 19.3701L31.8876 19.4786L31.9214 19.5874L31.9541 19.6967L31.9857 19.8064L32.0162 19.9165L32.0455 20.027L32.0738 20.1378L32.1009 20.249L32.1269 20.3605L32.1518 20.4724L32.1755 20.5846L32.1981 20.6971L32.2195 20.8099L32.2398 20.9231L32.259 21.0365L32.277 21.1501L32.2938 21.2641L32.3095 21.3782L32.324 21.4926L32.3374 21.6073L32.3495 21.7222L32.3605 21.8372L32.3704 21.9525L32.379 22.0679L32.3865 22.1835L32.3927 22.2992L32.3978 22.4151L32.4017 22.5312L32.4044 22.6473L32.4059 22.7636L32.4062 22.88L32.4053 22.9964L32.4032 23.1129L32.3999 23.2295L32.3954 23.3462L32.3897 23.4628L32.3828 23.5795L32.3747 23.6963L32.3654 23.813L32.3548 23.9297L32.3431 24.0464L32.3301 24.163L32.316 24.2797L32.3006 24.3962L32.284 24.5127L32.2662 24.6291L32.2472 24.7454L32.227 24.8616L32.2055 24.9777L32.1829 25.0937L32.159 25.2095L32.1339 25.3252L32.1077 25.4407L32.0802 25.556L32.0515 25.6711L32.0216 25.7861L31.9905 25.9008L31.9582 26.0153L31.9247 26.1295L31.89 26.2435L31.8541 26.3573L31.8169 26.4708L31.7786 26.5839L31.7391 26.6968L31.6985 26.8094L31.6566 26.9216L31.6135 27.0335L31.5693 27.1451L31.5239 27.2563L31.4773 27.3672L31.4295 27.4776L31.3806 27.5877L31.3305 27.6974L31.2792 27.8066L31.2268 27.9154L31.1732 28.0238L31.1184 28.1317L31.0625 28.2392L31.0055 28.3461L30.9473 28.4526L30.888 28.5586L30.8276 28.6641L30.766 28.769L30.7033 28.8735L30.6395 28.9773L30.5746 29.0807L30.5085 29.1834L30.4414 29.2856L30.3731 29.3871L30.3038 29.4881L30.2334 29.5885L30.1619 29.6882L30.0893 29.7873L30.0157 29.8858L29.941 29.9836L29.8652 30.0807L29.7884 30.1771L29.7105 30.2729L29.6316 30.3679L29.5517 30.4623L29.4707 30.5559L29.3887 30.6488L29.3057 30.7409L29.2217 30.8323L29.1367 30.9229L29.0508 31.0128L28.9638 31.1018L28.8759 31.1901L28.7869 31.2775L28.6971 31.3642L28.6062 31.45L28.5145 31.5349L28.4218 31.6191L28.3281 31.7023L28.2336 31.7847L28.1381 31.8663L28.0418 31.9469L27.9445 32.0267L27.8464 32.1055L27.7473 32.1834L27.6474 32.2604L27.5467 32.3365L27.4451 32.4116L27.3426 32.4858L27.2394 32.5591L27.1353 32.6313L27.0304 32.7026L26.9246 32.7729L26.8181 32.8422L26.7108 32.9105L26.6028 32.9778L26.4939 33.044L26.3844 33.1093L26.274 33.1735L26.163 33.2366L26.0512 33.2987L25.9387 33.3598L25.8255 33.4198L25.7116 33.4787L25.597 33.5365L25.4818 33.5932L25.3659 33.6489L25.2493 33.7034L25.1321 33.7568L25.0143 33.8091L24.8959 33.8603L24.7768 33.9103L24.6572 33.9592L24.537 34.007L24.4162 34.0536L24.2949 34.0991L24.173 34.1434L24.0506 34.1865L23.9276 34.2284L23.8042 34.2692L23.6802 34.3087L23.5558 34.3471L23.4309 34.3843L23.3055 34.4202L23.1797 34.455L23.0534 34.4885L22.9267 34.5208L22.7996 34.5519L22.6721 34.5818L22.5441 34.6104L22.4159 34.6378L22.2872 34.6639L22.1582 34.6888L22.0289 34.7125L21.8992 34.7349L21.7692 34.756L21.639 34.7758L21.5084 34.7944L21.3775 34.8117L21.2464 34.8278L21.1151 34.8425L20.9835 34.856L20.8517 34.8682L20.7197 34.8791L20.5875 34.8887L20.4551 34.897L20.3225 34.904L20.1898 34.9097L20.0569 34.9141L19.9239 34.9172L19.7908 34.919L19.6575 34.9195L19.5242 34.9187L19.3909 34.9165L19.2574 34.9131L19.1239 34.9083L18.9904 34.9022L18.8568 34.8948L18.7233 34.8861L18.5897 34.8761L18.4562 34.8647L18.3227 34.852L18.1892 34.838L18.0558 34.8227L17.9225 34.8061L17.7892 34.7881L17.6561 34.7688L17.5231 34.7482L17.3902 34.7263L17.2574 34.703L17.1248 34.6785L16.9924 34.6526L16.8602 34.6253L16.7281 34.5968L16.5963 34.567L16.4647 34.5358L16.3333 34.5033L16.2022 34.4695L16.0713 34.4344L15.9407 34.398L15.8105 34.3603L15.6805 34.3213L15.5508 34.281L15.4215 34.2393L15.2926 34.1964L15.1639 34.1522L15.0357 34.1067L14.9079 34.0599L14.7804 34.0118L14.6534 33.9624L14.5268 33.9118L14.4006 33.8598L14.2749 33.8066L14.1497 33.7522L14.025 33.6964L13.9007 33.6394L13.777 33.5812L13.6538 33.5217L13.5311 33.4609L13.4089 33.3989L13.2874 33.3357L13.1664 33.2712L13.046 33.2055L12.9262 33.1386L12.807 33.0704L12.6884 33.0011L12.5705 32.9305L12.4532 32.8587L12.3366 32.7858L12.2207 32.7116L12.1055 32.6363L11.991 32.5597L11.8772 32.482L11.7641 32.4032L11.6518 32.3232L11.5402 32.242L11.4294 32.1597L11.3193 32.0762L11.2101 31.9916L11.1017 31.9059L10.9941 31.819L10.8873 31.7311L10.7813 31.642L10.6762 31.5519L10.572 31.4606L10.4686 31.3683L10.3661 31.2749L10.2646 31.1805L10.1639 31.085L10.0641 30.9884L9.96528 30.8908L9.86748 30.7922L9.77058 30.6925L9.67458 30.5919L9.57958 30.4902L9.48568 30.3876L9.39268 30.2839L9.30068 30.1793L9.20978 30.0737L9.11978 29.9672L9.03098 29.8597L8.94308 29.7512L8.85638 29.6419L8.77068 29.5316L8.68608 29.4204L8.60258 29.3083L8.52008 29.1954L8.43878 29.0815L8.35868 28.9668L8.27958 28.8512L8.20168 28.7348L8.12494 28.6176L8.04935 28.4995L7.97492 28.3806L7.90168 28.2609L7.82962 28.1404L7.75876 28.0192L7.6891 27.8971L7.62065 27.7744L7.55343 27.6508L7.48744 27.5266L7.42268 27.4016L7.35917 27.2759L7.29692 27.1495L7.23593 27.0224L7.17621 26.8947L7.11777 26.7662L7.06061 26.6372L7.00475 26.5075L6.95019 26.3771L6.89693 26.2462L6.845 26.1147L6.79438 25.9825L6.74509 25.8498L6.69713 25.7166L6.65052 25.5827L6.60526 25.4484L6.56135 25.3135L6.5188 25.1781L6.47762 25.0423L6.43781 24.9059L6.39938 24.7691L6.36233 24.6318L6.32668 24.494L6.29242 24.3559L6.25955 24.2173L6.2281 24.0783L6.19805 23.9389L6.16942 23.7992L6.14221 23.6591L6.11642 23.5186L6.09206 23.3778L6.06914 23.2367L6.04765 23.0953L6.0276 22.9536L6.009 22.8116L5.99185 22.6693L5.97615 22.5268L5.9619 22.3841L5.94911 22.2411L5.93779 22.0979L5.92793 21.9546L5.91953 21.811L5.91261 21.6673L5.90716 21.5235L5.90319 21.3795L5.90069 21.2354L5.89967 21.0911L5.90014 20.9468L5.90208 20.8024L5.90552 20.658L5.91043 20.5135L5.91684 20.3689L5.92474 20.2244L5.93412 20.0798L5.945 19.9353L5.95736 19.7907L5.97122 19.6463L5.98658 19.5018L6.00342 19.3575L6.02176 19.2132L6.04159 19.069L6.06291 18.9249L6.08573 18.781L6.11003 18.6372L6.13583 18.4936L6.16312 18.3501L6.1919 18.2068L6.22216 18.0638L6.25392 17.9209L6.28716 17.7783L6.32188 17.6359L6.35808 17.4938L6.39577 17.352L6.43493 17.2104L6.47557 17.0692L6.51769 16.9283L6.56127 16.7877L6.60633 16.6474L6.65285 16.5076L6.70083 16.3681L6.75028 16.229L6.80118 16.0903L6.85353 15.952L6.90733 15.8142L6.96258 15.6768L7.01927 15.5399L7.0774 15.4035L7.13696 15.2675L7.19796 15.1321L7.26037 14.9972L7.32421 14.8628L7.38946 14.729L7.45613 14.5958L7.5242 14.4631L7.59367 14.3311L7.66453 14.1996L7.73679 14.0688L7.81043 13.9386L7.88544 13.809L7.96183 13.6802L8.03959 13.552L8.1187 13.4245L8.19918 13.2977L8.28098 13.1716L8.36418 13.0463L8.44858 12.9217L8.53448 12.7979L8.62158 12.6748L8.70998 12.5525L8.79978 12.4311L8.89078 12.3104L8.98318 12.1906L9.07678 12.0716L9.17168 11.9535L9.26778 11.8363L9.36518 11.7199L9.46388 11.6044L9.56378 11.4898L9.66488 11.3762L9.76728 11.2635L9.87078 11.1517L9.97558 11.0409L10.0816 10.931L10.1887 10.8222L10.297 10.7143L10.4065 10.6074L10.5172 10.5016L10.629 10.3967L10.7419 10.293L10.856 10.1902L10.9712 10.0886L11.0874 9.98794L11.2048 9.88844L11.3233 9.79004L11.4428 9.69274L11.5634 9.59654L11.6851 9.50154L11.8078 9.40764L11.9315 9.31494L12.0563 9.22334L12.182 9.13294L12.3087 9.04374L12.4365 8.95574L12.5652 8.86894L12.6948 8.78344L12.8255 8.69904L12.957 8.61594L13.0895 8.53408L13.2229 8.45347L13.3572 8.37413L13.4923 8.29607L13.6284 8.21929L13.7653 8.1438L13.903 8.06963L14.0416 7.99677L14.181 7.92523L14.3212 7.85502L14.4622 7.78615L14.604 7.71863L14.7466 7.65247L14.8899 7.58767L15.034 7.52424L15.1788 7.4622L15.3243 7.40155L15.4705 7.34229L15.6173 7.28444L15.7649 7.228L15.9131 7.17298L16.062 7.11939L16.2115 7.06723L16.3616 7.01651L16.5123 6.96724L16.6635 6.91943L16.8154 6.87307L16.9678 6.82818L17.1208 6.78477L17.2742 6.74283L17.4282 6.70238L17.5827 6.66342L17.7377 6.62596L17.8931 6.59001L18.049 6.55555L18.2053 6.52261L18.362 6.49119L18.5192 6.4613L18.6767 6.43293L18.8346 6.40609L18.9929 6.38079L19.1515 6.35703L19.3104 6.33482L19.4696 6.31415L19.529 6.30703ZM19.5962 11.9762L19.5504 8.11193L19.4199 8.13017L19.2796 8.1512L19.1392 8.17363L18.9997 8.19734L18.86 8.2225L18.721 8.24895L18.5823 8.27676L18.4441 8.30587L18.3062 8.33636L18.1686 8.3682L18.0314 8.40135L17.8948 8.43581L17.7583 8.47165L17.6272 8.50744L17.4875 8.54714L17.3526 8.58684L17.2183 8.62784L17.0847 8.67004L16.9514 8.71364L16.8186 8.75854L16.6864 8.80464L16.5549 8.85194L16.4239 8.90064L16.2935 8.95044L16.1636 9.00164L16.0347 9.05394L15.9058 9.10764L15.7779 9.16244L15.6506 9.21844L15.5242 9.27564L15.3981 9.33414L15.2727 9.39384L15.1484 9.45454L15.0243 9.51664L14.9015 9.57974L14.7789 9.64424L14.6575 9.70954L14.5363 9.77644L14.4163 9.84404L14.2971 9.91294L14.1785 9.98304L14.0608 10.0542L13.9437 10.1266L13.8278 10.1998L13.7124 10.2743L13.5981 10.3498L13.4846 10.4263L13.3719 10.504L13.2599 10.5828L13.1492 10.6623L13.0391 10.7432L12.9299 10.825L12.8217 10.9078L12.7145 10.9915L12.608 11.0764L12.5027 11.1621L12.3983 11.2488L12.2947 11.3367L12.1924 11.4252L12.0908 11.5149L11.9902 11.6055L11.8907 11.6969L11.7923 11.7892L11.6946 11.8826L11.5983 11.9766L11.5029 12.0716L11.4084 12.1676L11.3151 12.2643L11.2228 12.362L11.1316 12.4604L11.0415 12.5596L10.9524 12.6597L10.8643 12.7607L10.7777 12.8622L10.6919 12.9647L10.6072 13.068L10.5237 13.1719L10.4414 13.2765L10.36 13.3821L10.2799 13.4882L10.2009 13.5951L10.1231 13.7027L10.0464 13.811L9.97098 13.9198L9.89668 14.0294L9.82348 14.1397L9.75148 14.2506L9.68078 14.362L9.61128 14.4741L9.54288 14.587L9.47568 14.7002L9.40978 14.8141L9.34498 14.9286L9.28158 15.0434L9.21928 15.159L9.15808 15.2752L9.09838 15.3916L9.03978 15.5088L8.98248 15.6264L8.92638 15.7443L8.87158 15.8629L8.81798 15.9818L8.76568 16.1012L8.71458 16.221L8.66488 16.3412L8.61638 16.4618L8.56908 16.5829L8.52308 16.7043L8.47848 16.826L8.43498 16.9482L8.39298 17.0705L8.35208 17.1933L8.31258 17.3164L8.27428 17.4398L8.23738 17.5634L8.20168 17.6873L8.16738 17.8114L8.13429 17.9359L8.10253 18.0605L8.07208 18.1854L8.04294 18.3105L8.01509 18.4357L7.98854 18.5612L7.96333 18.6868L7.9394 18.8125L7.91678 18.9385L7.89549 19.0645L7.87548 19.1907L7.85681 19.3168L7.83942 19.4432L7.82336 19.5696L7.8086 19.6961L7.79515 19.8226L7.78301 19.9492L7.77218 20.0758L7.76266 20.2023L7.75444 20.329L7.74752 20.4556L7.74191 20.5821L7.73761 20.7086L7.7346 20.835L7.7329 20.9614L7.73249 21.0878L7.73338 21.214L7.73557 21.3401L7.73905 21.4661L7.74381 21.5919L7.74987 21.7177L7.75721 21.8433L7.76583 21.9686L7.77574 22.0939L7.78692 22.2189L7.79938 22.3437L7.81311 22.4683L7.8281 22.5927L7.84437 22.7169L7.86189 22.8407L7.88068 22.9644L7.90071 23.0876L7.922 23.2107L7.94454 23.3335L7.96831 23.4558L7.99333 23.578L8.01957 23.6997L8.04706 23.8212L8.07574 23.9421L8.10568 24.0628L8.13682 24.1831L8.16918 24.303L8.20268 24.4224L8.23748 24.5415L8.27338 24.6601L8.31058 24.7783L8.34888 24.8961L8.38838 25.0133L8.42908 25.13L8.47088 25.2463L8.51388 25.3621L8.55808 25.4774L8.60338 25.5921L8.64978 25.7063L8.69738 25.82L8.74608 25.9331L8.79598 26.0456L8.84688 26.1576L8.89898 26.2689L8.95218 26.3797L9.00638 26.4899L9.06178 26.5994L9.11818 26.7084L9.17568 26.8167L9.23428 26.9243L9.29388 27.0313L9.35458 27.1376L9.41628 27.2432L9.47908 27.3481L9.54288 27.4524L9.60768 27.5559L9.67348 27.6587L9.74038 27.7609L9.80808 27.8621L9.87698 27.9628L9.94668 28.0626L10.0175 28.1617L10.0892 28.26L10.1619 28.3575L10.2355 28.4542L10.3101 28.5502L10.3855 28.6453L10.4619 28.7396L10.5392 28.8331L10.6174 28.9258L10.6965 29.0175L10.7765 29.1086L10.8573 29.1986L10.939 29.2879L11.0215 29.3762L11.1049 29.4637L11.1891 29.5503L11.2742 29.636L11.36 29.7208L11.4467 29.8047L11.5342 29.8877L11.6223 29.9697L11.7114 30.0509L11.8011 30.131L11.8916 30.2102L11.9829 30.2885L12.0749 30.3658L12.1676 30.4422L12.261 30.5175L12.3551 30.5919L12.4499 30.6653L12.5454 30.7378L12.6416 30.8092L12.7383 30.8796L12.8357 30.949L12.9338 31.0174L13.0325 31.0848L13.1319 31.1512L13.2318 31.2165L13.3323 31.2808L13.4334 31.3441L13.535 31.4063L13.6372 31.4675L13.74 31.5276L13.8432 31.5866L13.9471 31.6446L14.0513 31.7015L14.1562 31.7574L14.2615 31.8122L14.3672 31.8658L14.4735 31.9185L14.5803 31.97L14.6874 32.0205L14.7949 32.0698L14.903 32.1181L15.0113 32.1652L15.1201 32.2112L15.2293 32.2562L15.3389 32.3L15.4487 32.3427L15.559 32.3843L15.6696 32.4248L15.7805 32.4642L15.8917 32.5024L16.0033 32.5396L16.1151 32.5755L16.2272 32.6104L16.3396 32.6441L16.4522 32.6767L16.565 32.7082L16.6781 32.7385L16.7914 32.7678L16.9049 32.7958L17.0186 32.8227L17.1325 32.8485L17.2466 32.8732L17.3608 32.8967L17.4751 32.919L17.5897 32.9402L17.7042 32.9603L17.819 32.9793L17.9338 32.997L18.0487 33.0137L18.1637 33.0292L18.2787 33.0436L18.3938 33.0568L18.5089 33.0689L18.6241 33.0798L18.7393 33.0896L18.8545 33.0982L18.9697 33.1058L19.0848 33.1121L19.1999 33.1174L19.3151 33.1215L19.4301 33.1245L19.545 33.1263L19.6599 33.127L19.7747 33.1266L19.8894 33.125L20.004 33.1224L20.1184 33.1186L20.2328 33.1137L20.3469 33.1076L20.4609 33.1005L20.5747 33.0922L20.6884 33.0828L20.8018 33.0723L20.9151 33.0607L21.0282 33.048L21.141 33.0342L21.2536 33.0193L21.3659 33.0034L21.478 32.9863L21.5898 32.9681L21.7012 32.9489L21.8125 32.9285L21.9234 32.9071L22.034 32.8847L22.1444 32.8611L22.2542 32.8365L22.3638 32.8109L22.473 32.7841L22.5819 32.7564L22.6904 32.7276L22.7985 32.6977L22.9062 32.6668L23.0135 32.6349L23.1203 32.602L23.2267 32.568L23.3328 32.533L23.4383 32.497L23.5434 32.46L23.648 32.422L23.7521 32.383L23.8557 32.343L23.9588 32.302L24.0615 32.26L24.1636 32.2171L24.2651 32.1732L24.3662 32.1284L24.4666 32.0826L24.5666 32.0358L24.666 31.9881L24.7646 31.9396L24.863 31.8899L24.9605 31.8395L25.0576 31.788L25.1538 31.7358L25.2496 31.6826L25.3448 31.6285L25.4392 31.5735L25.5331 31.5176L25.6263 31.4609L25.7187 31.4033L25.8107 31.3448L25.9017 31.2856L25.9922 31.2254L26.0821 31.1643L26.1711 31.1025L26.2593 31.04L26.3471 30.9764L26.4339 30.9123L26.5201 30.8472L26.6056 30.7813L26.69 30.7148L26.7741 30.6473L26.8573 30.5791L26.9394 30.5103L27.0212 30.4404L27.1019 30.3701L27.1818 30.2991L27.2612 30.227L27.3394 30.1546L27.417 30.0813L27.4938 30.0073L27.5696 29.9327L27.6447 29.8573L27.719 29.7813L27.7924 29.7046L27.8648 29.6273L27.9365 29.5493L28.0074 29.4707L28.0772 29.3916L28.1464 29.3116L28.2145 29.2312L28.2817 29.1502L28.3482 29.0684L28.4136 28.9864L28.4782 28.9035L28.5419 28.8202L28.6047 28.7362L28.6665 28.6518L28.7273 28.567L28.7874 28.4813L28.8464 28.3954L28.9045 28.3089L28.9618 28.2218L29.0178 28.1345L29.0732 28.0465L29.1275 27.958L29.1809 27.8692L29.2332 27.7799L29.2848 27.69L29.3351 27.6001L29.3847 27.5093L29.4332 27.4184L29.4806 27.3271L29.5273 27.2351L29.5727 27.1433L29.6174 27.0505L29.6608 26.958L29.7036 26.8645L29.745 26.7712L29.7857 26.6771L29.8253 26.5831L29.8638 26.4887L29.9014 26.3939L29.938 26.2988L29.9734 26.2037L30.0081 26.108L30.0415 26.0122L30.074 25.9162L30.1055 25.8199L30.136 25.7233L30.1655 25.6266L30.1939 25.5298L30.2213 25.4326L30.2476 25.3354L30.273 25.2379L30.2973 25.1403L30.3206 25.0427L30.3429 24.9446L30.3641 24.8466L30.3844 24.7485L30.4035 24.6504L30.4217 24.5521L30.4388 24.4534L30.4549 24.3551L30.47 24.2565L30.484 24.1578L30.497 24.0593L30.509 23.9606L30.52 23.8616L30.5299 23.7633L30.5389 23.6642L30.5468 23.5655L30.5536 23.467L30.5595 23.3682L30.5643 23.2696L30.5681 23.1711L30.5709 23.0723L30.5726 22.9741L30.5734 22.8755L30.5731 22.7772L30.5719 22.6789L30.5696 22.581L30.5663 22.4829L30.562 22.385L30.5567 22.2875L30.5504 22.1897L30.5431 22.0922L30.5349 21.9952L30.5256 21.8979L30.5153 21.8012L30.504 21.7043L30.4918 21.6079L30.4786 21.5116L30.4644 21.4154L30.4492 21.3196L30.4331 21.2241L30.416 21.1288L30.3979 21.0338L30.3788 20.9387L30.3588 20.8443L30.3379 20.7502L30.316 20.6562L30.2931 20.5624L30.2694 20.4694L30.2446 20.3761L30.219 20.2836L30.1924 20.1912L30.1649 20.0994L30.1365 20.0077L30.1071 19.9164L30.0769 19.8257L30.0458 19.7353L30.0136 19.645L29.9808 19.5555L29.9469 19.4662L29.9122 19.3775L29.8766 19.289L29.8401 19.2009L29.8028 19.1136L29.7645 19.0264L29.7255 18.9399L29.6856 18.8539L29.6448 18.7681L29.6031 18.6828L29.5608 18.5983L29.5174 18.514L29.4734 18.4305L29.4285 18.3475L29.3827 18.2646L29.3363 18.1827L29.2889 18.1011L29.2408 18.0202L29.1918 17.9396L29.1423 17.8599L29.0917 17.7804L29.0406 17.7018L28.9886 17.6237L28.9359 17.5462L28.8823 17.4691L28.8281 17.3928L28.7733 17.3172L28.7175 17.2419L28.6612 17.1675L28.604 17.0936L28.5464 17.0205L28.4878 16.9478L28.4286 16.8759L28.3687 16.8046L28.3082 16.7339L28.2471 16.6641L28.1851 16.5947L28.1227 16.5262L28.0595 16.4582L27.9959 16.3912L27.9313 16.3245L27.8664 16.2588L27.8006 16.1935L27.7344 16.1292L27.6677 16.0656L27.6003 16.0026L27.5322 15.9403L27.4636 15.8789L27.3945 15.8182L27.3246 15.758L27.2547 15.699L27.1838 15.6403L27.1125 15.5826L27.0407 15.5257L26.9683 15.4693L26.8955 15.4139L26.8224 15.3594L26.7484 15.3054L26.6739 15.2521L26.5994 15.2L26.5239 15.1483L26.4485 15.0978L26.3724 15.0478L26.2958 14.9986L26.2187 14.9502L26.1415 14.9028L26.0635 14.856L25.9854 14.8102L25.9066 14.765L25.8279 14.7209L25.7485 14.6775L25.6687 14.6348L25.5886 14.593L25.5083 14.5522L25.4275 14.512L25.3463 14.4727L25.265 14.4343L25.1835 14.3968L25.1011 14.3599L25.0191 14.3241L24.9365 14.2891L24.8535 14.2548L24.7704 14.2215L24.6872 14.1891L24.6036 14.1575L24.5195 14.1266L24.4356 14.0968L24.3512 14.0677L24.2666 14.0395L24.1821 14.0122L24.0972 13.9858L24.0123 13.9602L23.9267 13.9354L23.8414 13.9116L23.7559 13.8886L23.6702 13.8665L23.5844 13.8452L23.4982 13.8248L23.4122 13.8053L23.3262 13.7867L23.2398 13.7689L23.1532 13.7519L23.0671 13.736L22.9804 13.7208L22.8939 13.7065L22.807 13.693L22.7206 13.6805L22.6335 13.6687L22.547 13.658L22.4602 13.648L22.3734 13.6389L22.2867 13.6307L22.1998 13.6233L22.1133 13.6168L22.0263 13.6112L21.9397 13.6064L21.8533 13.6025L21.7663 13.5994L21.68 13.5972L21.5936 13.5959L21.5073 13.5954L21.4483 13.5956L21.493 17.371L21.5197 17.3711L21.5693 17.3718L21.619 17.373L21.6688 17.3746L21.7186 17.3769L21.7685 17.3796L21.8184 17.3828L21.8684 17.3866L21.9184 17.3909L21.9685 17.3957L22.0186 17.401L22.0687 17.4068L22.1189 17.4132L22.169 17.4201L22.2192 17.4275L22.2694 17.4355L22.3196 17.444L22.3697 17.453L22.4199 17.4626L22.47 17.4726L22.5201 17.4833L22.5702 17.4944L22.6203 17.5061L22.6702 17.5183L22.7202 17.531L22.7701 17.5443L22.8199 17.5581L22.8697 17.5724L22.9194 17.5873L22.969 17.6027L23.0185 17.6187L23.068 17.6352L23.1173 17.6522L23.1666 17.6697L23.2157 17.6878L23.2647 17.7064L23.3136 17.7255L23.3624 17.7452L23.411 17.7654L23.4595 17.7861L23.5079 17.8074L23.5561 17.8292L23.6042 17.8515L23.6521 17.8744L23.6998 17.8977L23.7474 17.9216L23.7947 17.9461L23.8419 17.971L23.8889 17.9965L23.9357 18.0225L23.9823 18.049L24.0287 18.076L24.0748 18.1035L24.1208 18.1316L24.1665 18.1602L24.212 18.1893L24.2572 18.2188L24.3022 18.2489L24.347 18.2796L24.3915 18.3107L24.4357 18.3423L24.4797 18.3744L24.5234 18.407L24.5668 18.4401L24.6099 18.4737L24.6528 18.5078L24.6953 18.5424L24.7375 18.5774L24.7795 18.613L24.8211 18.649L24.8624 18.6855L24.9034 18.7225L24.944 18.76L24.9843 18.7979L25.0242 18.8363L25.0639 18.8752L25.1031 18.9145L25.142 18.9543L25.1806 18.9945L25.2187 19.0352L25.2565 19.0764L25.2939 19.118L25.331 19.16L25.3676 19.2025L25.4038 19.2454L25.4397 19.2887L25.4751 19.3325L25.5101 19.3767L25.5447 19.4213L25.5789 19.4664L25.6127 19.5118L25.646 19.5577L25.6788 19.6039L25.7113 19.6506L25.7433 19.6977L25.7748 19.7452L25.8059 19.793L25.8366 19.8413L25.8667 19.8899L25.8964 19.9389L25.9256 19.9883L25.9543 20.038L25.9826 20.0881L26.0103 20.1386L26.0376 20.1894L26.0644 20.2406L26.0906 20.2921L26.1164 20.3439L26.1416 20.3961L26.1663 20.4487L26.1905 20.5015L26.2142 20.5547L26.2374 20.6082L26.26 20.662L26.2821 20.7161L26.3036 20.7705L26.3246 20.8252L26.3451 20.8802L26.365 20.9355L26.3843 20.9911L26.4031 21.0469L26.4213 21.103L26.4389 21.1594L26.456 21.216L26.4725 21.2729L26.4884 21.3301L26.5038 21.3874L26.5186 21.445L26.5327 21.5029L26.5463 21.561L26.5593 21.6192L26.5717 21.6778L26.5835 21.7365L26.5946 21.7953L26.6052 21.8545L26.6152 21.9138L26.6246 21.9732L26.6333 22.0329L26.6414 22.0927L26.6489 22.1527L26.6558 22.2129L26.6621 22.2732L26.6677 22.3336L26.6727 22.3942L26.6771 22.455L26.6808 22.5158L26.6839 22.5768L26.6863 22.6379L26.6882 22.6991L26.6893 22.7604L26.6899 22.8218L26.6897 22.8832L26.689 22.9448L26.6876 23.0065L26.6855 23.0682L26.6828 23.13L26.6794 23.1918L26.6754 23.2537L26.6707 23.3156L26.6653 23.3776L26.6593 23.4396L26.6527 23.5016L26.6453 23.5636L26.6373 23.6257L26.6287 23.6878L26.6194 23.7498L26.6094 23.8118L26.5987 23.8738L26.5874 23.9358L26.5754 23.9978L26.5628 24.0597L26.5494 24.1216L26.5354 24.1834L26.5208 24.2452L26.5054 24.3069L26.4894 24.3686L26.4728 24.4301L26.4554 24.4916L26.4374 24.5529L26.4187 24.6142L26.3994 24.6754L26.3794 24.7364L26.3587 24.7974L26.3374 24.8582L26.3153 24.9188L26.2926 24.9794L26.2693 25.0397L26.2453 25.1L26.2206 25.16L26.1953 25.2199L26.1693 25.2796L26.1426 25.3392L26.1153 25.3985L26.0873 25.4576L26.0586 25.5166L26.0294 25.5753L25.9994 25.6338L25.9688 25.6921L25.9375 25.7501L25.9056 25.8079L25.8731 25.8655L25.8399 25.9228L25.806 25.9799L25.7716 26.0366L25.7364 26.0932L25.7007 26.1494L25.6643 26.2053L25.6272 26.261L25.5896 26.3163L25.5513 26.3714L25.5124 26.4261L25.4728 26.4805L25.4327 26.5346L25.3919 26.5883L25.3505 26.6417L25.3085 26.6948L25.2659 26.7475L25.2227 26.7998L25.1789 26.8518L25.1345 26.9034L25.0894 26.9546L25.0438 27.0054L24.9976 27.0559L24.9508 27.1059L24.9035 27.1555L24.8555 27.2048L24.807 27.2536L24.7579 27.3019L24.7083 27.3499L24.658 27.3974L24.6072 27.4444L24.5559 27.491L24.504 27.5372L24.4516 27.5829L24.3986 27.6281L24.3451 27.6728L24.291 27.7171L24.2364 27.7609L24.1813 27.8041L24.1257 27.8469L24.0696 27.8892L24.0129 27.931L23.9558 27.9722L23.8981 28.0129L23.84 28.0532L23.7813 28.0928L23.7222 28.132L23.6626 28.1705L23.6025 28.2086L23.5419 28.2461L23.4809 28.283L23.4194 28.3193L23.3575 28.3551L23.2951 28.3903L23.2322 28.4249L23.169 28.459L23.1053 28.4924L23.0412 28.5253L22.9766 28.5575L22.9117 28.5892L22.8463 28.6202L22.7805 28.6506L22.7144 28.6804L22.6478 28.7095L22.5809 28.7381L22.5136 28.766L22.4459 28.7932L22.3778 28.8198L22.3094 28.8458L22.2406 28.8711L22.1715 28.8958L22.1021 28.9198L22.0323 28.9431L21.9622 28.9658L21.8918 28.9877L21.8211 29.009L21.75 29.0297L21.6787 29.0496L21.6071 29.0689L21.5352 29.0874L21.463 29.1053L21.3905 29.1224L21.3178 29.1389L21.2448 29.1546L21.1716 29.1697L21.0981 29.184L21.0244 29.1976L20.9505 29.2105L20.8763 29.2227L20.802 29.2341L20.7274 29.2448L20.6527 29.2548L20.5777 29.2641L20.5026 29.2726L20.4273 29.2803L20.3518 29.2874L20.2762 29.2936L20.2004 29.2992L20.1244 29.3039L20.0484 29.308L19.9722 29.3113L19.8959 29.3138L19.8194 29.3155L19.7429 29.3165L19.6663 29.3168L19.5896 29.3163L19.5128 29.315L19.4359 29.3129L19.359 29.3101L19.282 29.3065L19.2049 29.3021L19.1278 29.297L19.0507 29.2911L18.9736 29.2844L18.8964 29.2769L18.8193 29.2687L18.7421 29.2596L18.665 29.2498L18.5878 29.2392L18.5107 29.2279L18.4336 29.2157L18.3566 29.2028L18.2796 29.1891L18.2027 29.1746L18.1258 29.1594L18.049 29.1433L17.9723 29.1265L17.8957 29.1088L17.8192 29.0904L17.7427 29.0713L17.6664 29.0513L17.5903 29.0305L17.5142 29.009L17.4384 28.9867L17.3626 28.9636L17.287 28.9397L17.2116 28.9151L17.1363 28.8897L17.0613 28.8635L16.9864 28.8365L16.9117 28.8087L16.8373 28.7802L16.763 28.7509L16.689 28.7208L16.6152 28.69L16.5417 28.6584L16.4684 28.626L16.3953 28.5929L16.3226 28.559L16.25 28.5243L16.1778 28.4889L16.1059 28.4527L16.0343 28.4158L15.963 28.3781L15.892 28.3397L15.8213 28.3005L15.751 28.2606L15.6809 28.2199L15.6113 28.1785L15.542 28.1364L15.4731 28.0935L15.4045 28.0499L15.3363 28.0056L15.2685 27.9605L15.2011 27.9147L15.1342 27.8682L15.0676 27.821L15.0014 27.7731L14.9357 27.7244L14.8704 27.6751L14.8056 27.6251L14.7412 27.5743L14.6773 27.5229L14.6138 27.4708L14.5508 27.418L14.4883 27.3645L14.4263 27.3103L14.3648 27.2555L14.3038 27.2L14.2433 27.1438L14.1833 27.087L14.1239 27.0295L14.0649 26.9714L14.0066 26.9126L13.9488 26.8532L13.8915 26.7931L13.8348 26.7325L13.7787 26.6711L13.7232 26.6092L13.6682 26.5467L13.6139 26.4835L13.5601 26.4198L13.5069 26.3554L13.4544 26.2904L13.4025 26.2249L13.3512 26.1588L13.3005 26.0921L13.2505 26.0248L13.2012 25.957L13.1525 25.8886L13.1044 25.8196L13.057 25.7501L13.0103 25.6801L12.9643 25.6095L12.919 25.5384L12.8743 25.4668L12.8304 25.3947L12.7871 25.322L12.7446 25.2489L12.7028 25.1752L12.6617 25.1011L12.6213 25.0265L12.5817 24.9514L12.5428 24.8758L12.5046 24.7998L12.4672 24.7234L12.4306 24.6464L12.3947 24.5691L12.3596 24.4913L12.3253 24.4131L12.2917 24.3344L12.2589 24.2554L12.2269 24.1759L12.1957 24.0961L12.1653 24.0158L12.1358 23.9352L12.107 23.8542L12.079 23.7729L12.0518 23.6912L12.0255 23.6091L12 23.5267L11.9753 23.444L11.9514 23.3609L11.9284 23.2775L11.9063 23.1938L11.8849 23.1098L11.8645 23.0255L11.8449 22.941L11.8261 22.8561L11.8082 22.771L11.7912 22.6856L11.775 22.6L11.7597 22.5141L11.7453 22.428L11.7318 22.3417L11.7191 22.2551L11.7073 22.1684L11.6965 22.0814L11.6865 21.9943L11.6774 21.9069L11.6692 21.8194L11.6619 21.7317L11.6555 21.6439L11.65 21.5559L11.6454 21.4678L11.6417 21.3796L11.6389 21.2912L11.6371 21.2027L11.6362 21.1142L11.6361 21.0255L11.637 20.9367L11.6389 20.8479L11.6416 20.759L11.6453 20.67L11.6499 20.581L11.6554 20.492L11.6618 20.4029L11.6692 20.3138L11.6775 20.2247L11.6867 20.1356L11.6969 20.0465L11.708 19.9574L11.72 19.8684L11.733 19.7794L11.7469 19.6904L11.7618 19.6015L11.7775 19.5126L11.7942 19.4238L11.8119 19.3351L11.8305 19.2465L11.85 19.158L11.8704 19.0696L11.8918 18.9814L11.9141 18.8932L11.9374 18.8052L11.9616 18.7174L11.9867 18.6297L12.0127 18.5421L12.0397 18.4548L12.0676 18.3676L12.0964 18.2806L12.1262 18.1939L12.1569 18.1073L12.1885 18.021L12.221 17.9349L12.2545 17.8491L12.2889 17.7635L12.3242 17.6781L12.3604 17.5931L12.3975 17.5083L12.4356 17.4238L12.4745 17.3396L12.5144 17.2557L12.5551 17.1722L12.5968 17.0889L12.6393 17.006L12.6828 16.9235L12.7271 16.8413L12.7724 16.7595L12.8185 16.678L12.8655 16.5969L12.9134 16.5163L12.9622 16.436L13.0118 16.3561L13.0624 16.2767L13.1138 16.1976L13.166 16.119L13.2191 16.0409L13.2731 15.9632L13.3279 15.886L13.3836 15.8093L13.4401 15.733L13.4974 15.6572L13.5556 15.582L13.6146 15.5072L13.6745 15.433L13.7352 15.3592L13.7966 15.2861L13.8589 15.2134L13.922 15.1413L13.9859 15.0698L14.0506 14.9988L14.1161 14.9285L14.1824 14.8587L14.2495 14.7895L14.3173 14.7209L14.3859 14.6529L14.4553 14.5855L14.5254 14.5188L14.5963 14.4527L14.6679 14.3872L14.7402 14.3224L14.8133 14.2582L14.8872 14.1948L14.9617 14.1319L15.037 14.0698L15.1129 14.0084L15.1896 13.9476L15.2669 13.8876L15.345 13.8283L15.4237 13.7697L15.5031 13.7118L15.5832 13.6547L15.6639 13.5983L15.7453 13.5426L15.8274 13.4877L15.91 13.4336L15.9933 13.3803L16.0773 13.3277L16.1618 13.2759L16.247 13.2249L16.3327 13.1747L16.4191 13.1253L16.506 13.0767L16.5935 13.0289L16.6816 12.982L16.7702 12.9359L16.8594 12.8906L16.9491 12.8462L17.0394 12.8026L17.1302 12.7599L17.2215 12.718L17.3133 12.677L17.4056 12.6369L17.4985 12.5976L17.5918 12.5592L17.6855 12.5218L17.7798 12.4852L17.8745 12.4495L17.9696 12.4147L18.0652 12.3809L18.1613 12.3479L18.2577 12.3159L18.3546 12.2848L18.4518 12.2546L18.5495 12.2254L18.6475 12.1971L18.7459 12.1698L18.8447 12.1434L18.9438 12.1179L19.0433 12.0934L19.1431 12.0699L19.2433 12.0474L19.3437 12.0258L19.4445 12.0052L19.5455 11.9856L19.5962 11.9762ZM20.8381 19.2365L19.6855 19.5119L19.6178 13.8024L19.5635 13.8146L19.4817 13.8339L19.4 13.854L19.3189 13.8748L19.2379 13.8964L19.1574 13.9188L19.0769 13.9421L18.9972 13.9659L18.9173 13.9907L18.8384 14.016L18.7593 14.0423L18.6807 14.0693L18.6025 14.097L18.5246 14.1254L18.4474 14.1545L18.3703 14.1845L18.2936 14.2151L18.2174 14.2464L18.1413 14.2786L18.0662 14.3112L17.9911 14.3448L17.9167 14.3789L17.8424 14.4139L17.7688 14.4494L17.6954 14.4857L17.6228 14.5226L17.5505 14.5602L17.4787 14.5985L17.4074 14.6374L17.3365 14.677L17.2661 14.7173L17.1965 14.7581L17.1268 14.7998L17.058 14.8419L16.9898 14.8847L16.922 14.9281L16.8546 14.9722L16.7879 15.0169L16.7217 15.0622L16.656 15.108L16.591 15.1544L16.5263 15.2015L16.4623 15.2492L16.3989 15.2974L16.336 15.3462L16.2738 15.3954L16.2122 15.4453L16.151 15.4958L16.0904 15.5469L16.0306 15.5983L15.9713 15.6504L15.9126 15.7029L15.8545 15.756L15.797 15.8097L15.7402 15.8638L15.684 15.9183L15.6283 15.9735L15.5734 16.029L15.5191 16.0851L15.4655 16.1415L15.4123 16.1987L15.36 16.256L15.3083 16.3139L15.2572 16.3723L15.2069 16.4309L15.1571 16.4902L15.1082 16.5496L15.0597 16.6098L15.0121 16.6701L14.965 16.731L14.9187 16.7923L14.8731 16.8538L14.8281 16.9157L14.7839 16.978L14.7403 17.0408L14.6974 17.1038L14.6553 17.1673L14.6139 17.2309L14.5732 17.2949L14.5331 17.3594L14.4939 17.424L14.4552 17.4892L14.4174 17.5543L14.3802 17.62L14.3437 17.6859L14.3081 17.752L14.2731 17.8184L14.2389 17.8851L14.2053 17.9522L14.1726 18.0192L14.1405 18.0868L14.1092 18.1544L14.0787 18.2223L14.0488 18.2904L14.0197 18.3588L13.9914 18.4272L13.9638 18.496L13.937 18.5649L13.9108 18.634L13.8855 18.7031L13.8609 18.7726L13.837 18.8422L13.8139 18.9119L13.7915 18.9817L13.7699 19.0518L13.749 19.1219L13.729 19.192L13.7096 19.2624L13.6909 19.3329L13.6731 19.4034L13.656 19.474L13.6396 19.5447L13.624 19.6155L13.6092 19.6864L13.5951 19.7572L13.5817 19.8281L13.5691 19.8992L13.5573 19.9701L13.5462 20.0411L13.5358 20.1123L13.5262 20.1832L13.5174 20.2544L13.5093 20.3253L13.5019 20.3964L13.4953 20.4676L13.4894 20.5385L13.4843 20.6095L13.4799 20.6805L13.4762 20.7513L13.4733 20.8221L13.4711 20.8928L13.4697 20.9636L13.4689 21.0342L13.469 21.1047L13.4697 21.1751L13.4712 21.2455L13.4734 21.3157L13.4763 21.3858L13.4799 21.4558L13.4843 21.5256L13.4894 21.5953L13.4952 21.6649L13.5017 21.7343L13.5089 21.8037L13.5168 21.8726L13.5254 21.9417L13.5347 22.0103L13.5448 22.079L13.5555 22.1473L13.5669 22.2155L13.579 22.2836L13.5918 22.3513L13.6053 22.4189L13.6194 22.4861L13.6343 22.5533L13.6498 22.6201L13.666 22.6868L13.6828 22.753L13.7004 22.8193L13.7185 22.885L13.7373 22.9507L13.7568 23.0159L13.7769 23.081L13.7977 23.1457L13.8191 23.21L13.8412 23.2743L13.8639 23.3381L13.8872 23.4015L13.9111 23.4648L13.9357 23.5277L13.9609 23.5902L13.9867 23.6524L14.013 23.7142L14.0401 23.7758L14.0677 23.837L14.0959 23.8978L14.1247 23.9582L14.154 24.0182L14.1841 24.0781L14.2145 24.1373L14.2456 24.1962L14.2773 24.2548L14.3096 24.3129L14.3424 24.3707L14.3757 24.4281L14.4096 24.4849L14.4441 24.5415L14.479 24.5976L14.5145 24.6532L14.5506 24.7085L14.5871 24.7633L14.6242 24.8178L14.6617 24.8715L14.6998 24.9251L14.7384 24.9781L14.7774 25.0306L14.8171 25.0828L14.8571 25.1344L14.8976 25.1855L14.9386 25.2362L14.9801 25.2865L15.0219 25.3361L15.0644 25.3854L15.1072 25.4342L15.1504 25.4824L15.1943 25.5302L15.2383 25.5773L15.2829 25.6242L15.3279 25.6704L15.3732 25.7161L15.4191 25.7613L15.4653 25.806L15.5119 25.8502L15.5589 25.8938L15.6063 25.9369L15.6541 25.9795L15.7022 26.0215L15.7507 26.063L15.7995 26.104L15.8487 26.1444L15.8983 26.1843L15.9483 26.2236L15.9984 26.2623L16.049 26.3005L16.0999 26.3382L16.1511 26.3753L16.2026 26.4118L16.2544 26.4478L16.3065 26.4832L16.3589 26.518L16.4115 26.5522L16.4644 26.5859L16.5178 26.6191L16.5712 26.6515L16.6249 26.6835L16.679 26.7149L16.7331 26.7456L16.7875 26.7758L16.8424 26.8055L16.8973 26.8345L16.9524 26.8629L17.0077 26.8907L17.0634 26.918L17.119 26.9446L17.1751 26.9707L17.2312 26.9962L17.2874 27.021L17.344 27.0453L17.4007 27.069L17.4574 27.0921L17.5144 27.1146L17.5715 27.1364L17.6289 27.1577L17.6861 27.1784L17.7438 27.1985L17.8013 27.2179L17.859 27.2368L17.9169 27.2551L17.9749 27.2728L18.0329 27.2898L18.091 27.3063L18.1493 27.3221L18.2076 27.3374L18.2659 27.352L18.3243 27.3661L18.3827 27.3795L18.4412 27.3923L18.4998 27.4046L18.5584 27.4162L18.617 27.4273L18.6756 27.4377L18.7343 27.4476L18.793 27.4568L18.8517 27.4655L18.9102 27.4735L18.9689 27.4809L19.0275 27.4878L19.0862 27.4941L19.1448 27.4997L19.2034 27.5048L19.2619 27.5093L19.3203 27.5132L19.3788 27.5165L19.4371 27.5192L19.4953 27.5214L19.5537 27.5229L19.6117 27.5239L19.6697 27.5243L19.7277 27.5241L19.7855 27.5234L19.8434 27.522L19.9011 27.5201L19.9585 27.5177L20.0159 27.5146L20.0734 27.511L20.1304 27.5068L20.1875 27.5021L20.2443 27.4968L20.3011 27.491L20.3577 27.4845L20.414 27.4776L20.4704 27.4701L20.5264 27.462L20.5822 27.4534L20.6381 27.4443L20.6936 27.4346L20.7489 27.4244L20.8041 27.4136L20.8591 27.4023L20.9137 27.3905L20.9681 27.3782L21.0225 27.3653L21.0766 27.3519L21.1304 27.3381L21.184 27.3237L21.2373 27.3088L21.2906 27.2933L21.3434 27.2774L21.3958 27.261L21.4484 27.244L21.5004 27.2266L21.5522 27.2088L21.6037 27.1904L21.6549 27.1715L21.706 27.1521L21.7567 27.1323L21.807 27.112L21.8571 27.0913L21.9069 27.07L21.9565 27.0483L22.0055 27.0262L22.0545 27.0036L22.103 26.9806L22.1511 26.9571L22.1991 26.9332L22.2465 26.9089L22.2938 26.8841L22.3407 26.8588L22.3872 26.8332L22.4333 26.8072L22.4792 26.7807L22.5247 26.7538L22.5697 26.7265L22.6144 26.6988L22.6588 26.6707L22.7028 26.6423L22.7465 26.6134L22.7897 26.5842L22.8326 26.5545L22.8751 26.5245L22.9171 26.4942L22.9588 26.4634L23.0001 26.4323L23.041 26.4008L23.0815 26.369L23.1217 26.3368L23.1613 26.3044L23.2006 26.2716L23.2394 26.2384L23.2778 26.2049L23.3159 26.1711L23.3535 26.1369L23.3907 26.1025L23.4273 26.0678L23.4637 26.0327L23.4996 25.9973L23.5351 25.9617L23.5701 25.9258L23.6046 25.8895L23.6387 25.8531L23.6725 25.8162L23.7056 25.7793L23.7385 25.7419L23.7708 25.7043L23.8026 25.6666L23.8342 25.6284L23.865 25.5902L23.8956 25.5516L23.9257 25.5129L23.9552 25.4739L23.9844 25.4346L24.013 25.3953L24.0412 25.3555L24.069 25.3156L24.0962 25.2757L24.123 25.2353L24.1494 25.1949L24.1751 25.1543L24.2005 25.1135L24.2254 25.0725L24.2498 25.0313L24.2738 24.99L24.2972 24.9485L24.3202 24.9069L24.3427 24.865L24.3647 24.8232L24.3862 24.7811L24.4073 24.7389L24.4279 24.6966L24.448 24.654L24.4676 24.6115L24.4867 24.5688L24.5053 24.5261L24.5235 24.4831L24.5411 24.4402L24.5584 24.3969L24.575 24.354L24.5913 24.3104L24.6069 24.2675L24.6222 24.2239L24.637 24.1803L24.6512 24.1369L24.665 24.0933L24.6783 24.0498L24.6912 24.0058L24.7034 23.9624L24.7154 23.9183L24.7267 23.8749L24.7376 23.8309L24.748 23.7869L24.7579 23.7432L24.7673 23.6996L24.7763 23.6554L24.7848 23.6117L24.7928 23.5676L24.8003 23.524L24.8074 23.4802L24.814 23.4363L24.8201 23.3924L24.8257 23.3486L24.8309 23.305L24.8356 23.2615L24.8398 23.2176L24.8436 23.1741L24.8469 23.1305L24.8497 23.087L24.8521 23.0436L24.854 23.0003L24.8554 22.9572L24.8564 22.9138L24.857 22.8705L24.8571 22.8276L24.8567 22.7847L24.8559 22.7419L24.8546 22.6992L24.8529 22.6563L24.8507 22.6142L24.8481 22.5712L24.8451 22.5293L24.8416 22.4872L24.8377 22.4448L24.8333 22.4029L24.8286 22.3614L24.8233 22.3193L24.8177 22.2781L24.8116 22.2366L24.8052 22.1957L24.7982 22.1544L24.7909 22.1134L24.7832 22.0728L24.7751 22.0323L24.7665 21.9917L24.7575 21.9516L24.7482 21.9115L24.7384 21.8717L24.7283 21.8322L24.7176 21.7924L24.7068 21.7534L24.6954 21.714L24.6837 21.6753L24.6716 21.6366L24.6591 21.5982L24.6462 21.5599L24.6329 21.5217L24.6194 21.4841L24.6054 21.4466L24.591 21.409L24.5763 21.372L24.5612 21.3348L24.5459 21.2985L24.53 21.2618L24.514 21.2257L24.4975 21.1899L24.4807 21.1541L24.4636 21.1187L24.4461 21.0835L24.4283 21.0485L24.4102 21.0139L24.3917 20.9795L24.373 20.9454L24.3539 20.9115L24.3344 20.8779L24.3148 20.8446L24.2948 20.8116L24.2744 20.7787L24.2538 20.7464L24.2329 20.7142L24.2117 20.6823L24.1902 20.6506L24.1685 20.6194L24.1464 20.5883L24.1241 20.5576L24.1015 20.5272L24.0786 20.4971L24.0556 20.4673L24.0321 20.4377L24.0085 20.4086L23.9846 20.3797L23.9605 20.3511L23.9361 20.3228L23.9116 20.2949L23.8867 20.2673L23.8616 20.24L23.8363 20.2129L23.8108 20.1863L23.785 20.16L23.759 20.1339L23.7329 20.1083L23.7065 20.083L23.68 20.058L23.653 20.0332L23.6262 20.0089L23.599 19.9848L23.5717 19.9612L23.5441 19.9378L23.5164 19.9149L23.4885 19.8922L23.4605 19.8699L23.4323 19.8479L23.4039 19.8262L23.3754 19.805L23.3467 19.784L23.3178 19.7634L23.2889 19.7432L23.2598 19.7232L23.2306 19.7037L23.2012 19.6845L23.1716 19.6656L23.1421 19.6471L23.1122 19.6289L23.0824 19.6111L23.0525 19.5937L23.0224 19.5766L22.9921 19.5598L22.9619 19.5434L22.9316 19.5273L22.9011 19.5116L22.8707 19.4963L22.8399 19.4812L22.8093 19.4666L22.7785 19.4524L22.7477 19.4384L22.7168 19.4248L22.6857 19.4115L22.6549 19.3987L22.6237 19.3862L22.5925 19.374L22.5614 19.3622L22.5302 19.3507L22.499 19.3396L22.4677 19.3288L22.4364 19.3183L22.4052 19.3083L22.3738 19.2985L22.3424 19.2891L22.3112 19.2801L22.2796 19.2714L22.2484 19.2631L22.217 19.2551L22.1856 19.2474L22.1542 19.2401L22.1229 19.2331L22.0915 19.2265L22.0602 19.2202L22.029 19.2142L21.9978 19.2086L21.9664 19.2033L21.9354 19.1984L21.904 19.1938L21.8731 19.1895L21.8419 19.1855L21.8109 19.1819L21.7801 19.1786L21.7491 19.1757L21.7183 19.173L21.6875 19.1707L21.6568 19.1687L21.6261 19.167L21.5955 19.1657L21.5652 19.1647L21.5347 19.1639L21.5044 19.1635L21.4741 19.1634L21.444 19.1637L21.4139 19.1642L21.384 19.165L21.3541 19.1662L21.3245 19.1676L21.2947 19.1694L21.2653 19.1714L21.2359 19.1737L21.2066 19.1764L21.1775 19.1793L21.1483 19.1825L21.1195 19.186L21.0907 19.1898L21.0621 19.1939L21.0335 19.1983L21.0052 19.2029L20.9769 19.2078L20.949 19.213L20.9209 19.2185L20.8932 19.2242L20.8655 19.2302L20.8381 19.2365Z" fill="#7C3AED"/>
</svg>
