
      <svg data-logo="logo" xmlns="http://www.w3.org/2000/svg" viewBox="0 0 145 42">
        <g id="logogram" transform="translate(0, 1) rotate(0) "><path d="M24 0H16V12.0632C15.9663 14.2434 14.1885 16 12.0005 16H0V24H8.68629C10.808 24 12.8429 23.1571 14.3431 21.6569L21.6569 14.3431C23.1571 12.8429 24 10.808 24 8.68629V0Z" fill="url(#paint0_linear_7697_8782)"/><path d="M16 40H24V27.9368C24.0337 25.7566 25.8115 24 27.9995 24H40V16H31.3137C29.192 16 27.1571 16.8429 25.6569 18.3431L18.3431 25.6569C16.8429 27.1571 16 29.192 16 31.3137V40Z" fill="url(#paint1_linear_7697_8782)"/></g>
        <g id="logotype" transform="translate(46, 2.5)"><path fill="#111111" d="M13.28 31L7.58 31L7.58 6.15L13.28 6.15Q15.52 6.15 17.20 7.32Q18.88 8.49 19.81 11.21Q20.73 13.92 20.73 18.57L20.73 18.57Q20.73 23.23 19.81 25.94Q18.88 28.66 17.20 29.83Q15.52 31 13.28 31L13.28 31ZM11.57 9.51L11.57 27.64L12.93 27.64Q14.61 27.64 15.64 26.19Q16.68 24.73 16.68 21.02L16.68 21.02L16.68 16.13Q16.68 13.60 16.20 12.17Q15.73 10.73 14.89 10.12Q14.05 9.51 12.93 9.51L12.93 9.51L11.57 9.51ZM27.11 10.56L23.18 10.56L23.18 6.85L27.11 6.85L27.11 10.56ZM27.11 31L23.18 31L23.18 13.18L27.11 13.18L27.11 31ZM33.58 31.28L33.58 31.28Q31.55 31.28 30.41 30.00Q29.28 28.73 29.28 26.41L29.28 26.41Q29.28 24.11 30.48 22.81Q31.69 21.52 33.86 20.74L33.86 20.74L37.08 19.55L37.08 18.12Q37.08 16.79 36.57 16.30Q36.07 15.81 35.23 15.81L35.23 15.81Q34.32 15.81 33.77 16.44Q33.23 17.07 33.06 18.75L33.06 18.75L29.45 18.29Q29.73 15.60 31.22 14.18Q32.71 12.76 35.40 12.76L35.40 12.76Q41 12.76 41 18.57L41 18.57L41 26.45Q41 27.32 41.02 28.23Q41.04 29.14 41.14 31L41.14 31L37.50 31L37.29 29.07Q36.73 30.20 35.77 30.74Q34.81 31.28 33.58 31.28ZM33.13 26.10L33.13 26.10Q33.13 27.43 33.60 27.95Q34.07 28.48 34.95 28.48L34.95 28.48Q35.93 28.48 36.50 27.83Q37.08 27.18 37.08 26.17L37.08 26.17L37.08 22.21L35.33 22.95Q34.32 23.41 33.72 24.07Q33.13 24.73 33.13 26.10ZM49.33 37.20L49.33 37.20Q45.94 37.20 44.36 35.99Q42.79 34.78 42.79 32.96L42.79 32.96Q42.79 31.73 43.59 30.67Q44.40 29.60 46.04 29.04L46.04 29.04Q45.20 28.59 44.80 27.87Q44.40 27.15 44.40 26.41L44.40 26.41Q44.40 25.64 44.75 24.96Q45.09 24.28 45.66 23.75L45.66 23.75Q43.17 22.21 43.17 18.75L43.17 18.75Q43.17 16.13 44.73 14.44Q46.29 12.76 49.26 12.76L49.26 12.76Q51.12 12.76 52.48 13.46L52.48 13.46Q53.04 12.31 53.83 11.75Q54.62 11.19 55.53 11.19L55.53 11.19Q55.95 11.19 56.37 11.29L56.37 11.29L56.37 14.44Q55.73 14.38 55.18 14.44Q54.62 14.51 54.16 14.83L54.16 14.83Q55.42 16.41 55.42 18.75L55.42 18.75Q55.42 21.41 53.83 23.05Q52.23 24.70 49.26 24.70L49.26 24.70Q48.39 24.70 47.65 24.56L47.65 24.56Q47.44 24.95 47.44 25.36L47.44 25.36Q47.44 26.34 49.02 26.66L49.02 26.66L52.31 27.29Q54.58 27.75 55.59 28.97Q56.61 30.20 56.61 31.84L56.61 31.84Q56.61 34.47 54.63 35.83Q52.66 37.20 49.33 37.20ZM49.26 22.21L49.26 22.21Q50.48 22.21 51.01 21.32Q51.54 20.43 51.54 18.71L51.54 18.71Q51.54 17.03 51.01 16.14Q50.48 15.25 49.26 15.25L49.26 15.25Q48.04 15.25 47.53 16.16Q47.02 17.07 47.02 18.71L47.02 18.71Q47.02 20.50 47.55 21.36Q48.07 22.21 49.26 22.21ZM46.11 32.37L46.11 32.37Q46.11 33.48 47.02 34.01Q47.93 34.53 49.58 34.53L49.58 34.53Q51.29 34.53 52.25 34.01Q53.22 33.48 53.22 32.51L53.22 32.51Q53.22 31.73 52.64 31.23Q52.06 30.72 50.77 30.48L50.77 30.48L48.04 30.05Q46.11 30.82 46.11 32.37ZM62.31 31L58.40 31L58.40 13.18L62.28 13.18L62.28 15.32Q62.91 13.99 63.94 13.38Q64.97 12.76 66.13 12.76L66.13 12.76Q67.98 12.76 69.07 14.02Q70.16 15.28 70.16 17.84L70.16 17.84L70.16 31L66.23 31L66.23 18.50Q66.23 17.07 65.76 16.47Q65.29 15.88 64.42 15.88L64.42 15.88Q63.58 15.88 62.95 16.46Q62.31 17.03 62.31 18.57L62.31 18.57L62.31 31ZM78.77 31.42L78.77 31.42Q76.91 31.42 75.48 30.53Q74.04 29.63 73.24 27.57Q72.43 25.50 72.43 22.07L72.43 22.07Q72.43 18.64 73.24 16.61Q74.04 14.58 75.48 13.67Q76.91 12.76 78.77 12.76L78.77 12.76Q80.66 12.76 82.07 13.67Q83.49 14.58 84.30 16.61Q85.10 18.64 85.10 22.07L85.10 22.07Q85.10 25.50 84.30 27.57Q83.49 29.63 82.07 30.53Q80.66 31.42 78.77 31.42ZM78.77 28.38L78.77 28.38Q79.89 28.38 80.50 27.39Q81.11 26.41 81.11 23.93L81.11 23.93L81.11 20.25Q81.11 17.77 80.50 16.79Q79.89 15.81 78.77 15.81L78.77 15.81Q77.65 15.81 77.03 16.79Q76.42 17.77 76.42 20.25L76.42 20.25L76.42 23.93Q76.42 26.41 77.03 27.39Q77.65 28.38 78.77 28.38ZM92.49 31.42L92.49 31.42Q89.41 31.42 88.02 29.67Q86.64 27.92 86.68 25.23L86.68 25.23L90.00 25.12Q90.04 28.52 92.49 28.52L92.49 28.52Q93.50 28.52 94.03 27.97Q94.55 27.43 94.55 26.55L94.55 26.55Q94.55 25.61 93.96 25.03Q93.36 24.45 92.35 23.89L92.35 23.89L90.74 23.02Q88.88 22.00 87.97 20.71Q87.06 19.41 87.06 17.66L87.06 17.66Q87.06 15.39 88.57 14.08Q90.07 12.76 92.42 12.76L92.42 12.76Q95.29 12.76 96.60 14.34Q97.91 15.91 97.84 18.64L97.84 18.64L94.52 18.71Q94.48 17.07 93.94 16.37Q93.40 15.67 92.45 15.67L92.45 15.67Q91.47 15.67 91.00 16.16Q90.53 16.65 90.53 17.38L90.53 17.38Q90.53 18.23 91.00 18.77Q91.47 19.31 92.49 19.91L92.49 19.91L94.55 21.09Q96.27 22.07 97.18 23.20Q98.09 24.31 98.09 26.24L98.09 26.24Q98.09 28.59 96.63 30.00Q95.18 31.42 92.49 31.42Z"/></g>
        <defs xmlns="http://www.w3.org/2000/svg">
<linearGradient id="paint0_linear_7697_8782" x1="20" y1="-0.997096" x2="20" y2="33.7931" gradientUnits="userSpaceOnUse">
<stop stop-color="#7C3AED"/>
<stop offset="1" stop-color="#75D8FC"/>
</linearGradient>
<linearGradient id="paint1_linear_7697_8782" x1="20" y1="-0.997096" x2="20" y2="33.7931" gradientUnits="userSpaceOnUse">
<stop stop-color="#75D8FC"/>
<stop offset="1" stop-color="#7C3AED"/>
</linearGradient>
</defs>
      </svg>
    