<svg width="156" height="43" viewBox="0 0 156 43" fill="none" xmlns="http://www.w3.org/2000/svg">
<path fill-rule="evenodd" clip-rule="evenodd" d="M0.150879 21.9754L0.152809 21.775L0.156789 21.5745L0.162829 21.374L0.170919 21.1735L0.181079 20.973L0.193289 20.7725L0.207569 20.5721L0.223899 20.3717L0.242299 20.1714L0.262759 19.9711L0.285279 19.7711L0.309849 19.5711L0.336489 19.3713L0.365189 19.1717L0.395939 18.9723L0.428749 18.7732L0.463619 18.5742L0.500529 18.3756L0.539499 18.1772L0.580519 17.9791L0.623589 17.7813L0.668689 17.5839L0.715849 17.3869L0.765029 17.1902L0.816259 16.994L0.869509 16.7981L0.924799 16.6027L0.982109 16.4078L1.04144 16.2134L1.10278 16.0195L1.16614 15.8261L1.23151 15.6332L1.29888 15.4409L1.36824 15.2492L1.4396 15.0581L1.51294 14.8676L1.58827 14.6778L1.66557 14.4886L1.74484 14.3002L1.82607 14.1124L1.90926 13.9253L1.9944 13.739L2.08148 13.5535L2.1705 13.3687L2.26145 13.1847L2.35432 13.0016L2.4491 12.8193L2.54579 12.6378L2.64437 12.4573L2.74484 12.2776L2.8472 12.0988L2.95142 11.921L3.05751 11.7441L3.16545 11.5682L3.27524 11.3933L3.38686 11.2194L3.50031 11.0466L3.61558 10.8746L3.73265 10.7039L3.85152 10.5342L3.97217 10.3656L4.09459 10.1982L4.21878 10.0318L4.34472 9.86674L4.47241 9.70274L4.60182 9.53988L4.73295 9.37828L4.86579 9.2179L5.00032 9.05876L5.13654 8.90087L5.27443 8.74426L5.41397 8.58895L5.55516 8.43494L5.69799 8.28226L5.84243 8.13092L5.98848 7.98094L6.13612 7.83233L6.28534 7.68511L6.43613 7.5393L6.58847 7.39491L6.74235 7.25197L6.89775 7.11047L7.05466 6.97045L7.21307 6.83191L7.37296 6.69486L7.53431 6.55934L7.69711 6.42535L7.86135 6.2929L8.02701 6.16201L8.19408 6.03269L8.36248 5.90497L8.53238 5.77884L8.70358 5.65434L8.87608 5.53147L9.04988 5.41024L9.22508 5.29067L9.40148 5.17276L9.57918 5.05655L9.75818 4.94203L9.93848 4.82923L10.1199 4.71815L10.3026 4.6088L10.4864 4.50121L10.6714 4.39538L10.8576 4.29132L11.0449 4.18905L11.2333 4.08857L11.4228 3.98991L11.6134 3.89306L11.8051 3.79805L11.9978 3.70488L12.1916 3.61356L12.3863 3.52411L12.5821 3.43654L12.7788 3.35085L12.9765 3.26706L13.1751 3.18518L13.3746 3.10521L13.575 3.02716L13.7763 2.95106L13.9784 2.87689L14.1814 2.80469L14.3852 2.73444L14.5898 2.66616L14.7951 2.59987L15.0012 2.53556L15.2081 2.47325L15.4157 2.41295L15.6239 2.35466L15.8329 2.29838L16.0425 2.24413L16.2527 2.19192L16.4635 2.14176L16.675 2.09363L16.887 2.04757L17.0995 2.00356L17.3126 1.96162L17.5262 1.92176L17.7403 1.88397L17.9549 1.84827L18.1699 1.81466L18.3853 1.78314L18.6011 1.75373L18.8173 1.72642L19.0339 1.70122L19.2508 1.67812L19.468 1.65716L19.6855 1.63831L19.9033 1.62158L20.1213 1.60699L21.2937 1.54004L21.3606 7.18871L21.3989 7.18827L21.5608 7.18804L21.7227 7.1894L21.8846 7.19235L22.0467 7.1969L22.2087 7.20304L22.3708 7.21076L22.5329 7.22009L22.695 7.23102L22.857 7.24353L23.0191 7.25765L23.181 7.27337L23.3429 7.29069L23.5046 7.3096L23.6663 7.33011L23.8278 7.35222L23.9892 7.37592L24.1504 7.40123L24.3115 7.42813L24.4723 7.45662L24.633 7.48671L24.7934 7.51839L24.9535 7.55167L25.1135 7.58653L25.2731 7.62298L25.4324 7.66101L25.5915 7.70063L25.7502 7.74184L25.9085 7.78462L26.0665 7.82898L26.2242 7.87491L26.3814 7.92241L26.5382 7.97148L26.6946 8.02212L26.8506 8.07432L27.0061 8.12807L27.1611 8.18338L27.3157 8.24023L27.4697 8.29864L27.6232 8.35858L27.7762 8.42007L27.9286 8.48309L28.0804 8.54763L28.2317 8.6137L28.3824 8.68129L28.5324 8.75039L28.6818 8.82099L28.8306 8.8931L28.9787 8.96671L29.1261 9.04181L29.2728 9.11839L29.4188 9.19645L29.5641 9.27599L29.7086 9.35699L29.8524 9.43945L29.9954 9.52336L30.1376 9.60874L30.279 9.69554L30.4196 9.78374L30.5593 9.87344L30.6982 9.96444L30.8362 10.0569L30.9734 10.1508L31.1096 10.246L31.245 10.3427L31.3794 10.4407L31.5128 10.5401L31.6454 10.6409L31.7769 10.743L31.9075 10.8465L32.037 10.9512L32.1656 11.0574L32.2931 11.1649L32.4196 11.2736L32.5451 11.3836L32.6695 11.4949L32.7927 11.6075L32.9149 11.7214L33.036 11.8365L33.156 11.9528L33.2748 12.0704L33.3925 12.1892L33.509 12.3093L33.6244 12.4305L33.7385 12.5529L33.8515 12.6765L33.9632 12.8013L34.0737 12.9272L34.183 13.0543L34.291 13.1825L34.3978 13.3118L34.5033 13.4423L34.6075 13.5738L34.7104 13.7064L34.812 13.8401L34.9123 13.9749L35.0112 14.1107L35.1088 14.2476L35.205 14.3855L35.2999 14.5243L35.3934 14.6642L35.4855 14.8051L35.5762 14.947L35.6654 15.0898L35.7533 15.2335L35.8397 15.3782L35.9247 15.5238L36.0082 15.6703L36.0903 15.8177L36.1709 15.966L36.25 16.1151L36.3276 16.2651L36.4037 16.4159L36.4783 16.5675L36.5514 16.72L36.623 16.8732L36.693 17.0272L36.7615 17.182L36.8284 17.3375L36.8937 17.4938L36.9575 17.6507L37.0197 17.8084L37.0803 17.9667L37.1393 18.1258L37.1967 18.2854L37.2525 18.4458L37.3067 18.6067L37.3593 18.7683L37.4102 18.9304L37.4595 19.0931L37.5071 19.2564L37.5531 19.4202L37.5974 19.5846L37.6401 19.7495L37.681 19.9148L37.7204 20.0807L37.758 20.247L37.7939 20.4138L37.8282 20.5809L37.8607 20.7486L37.8915 20.9166L37.9207 21.085L37.9481 21.2537L37.9738 21.4228L37.9978 21.5923L38.02 21.762L38.0405 21.9321L38.0593 22.1024L38.0763 22.273L38.0916 22.4438L38.1052 22.6149L38.117 22.7862L38.127 22.9577L38.1353 23.1293L38.1419 23.3012L38.1466 23.4731L38.1497 23.6452L38.1509 23.8174L38.1504 23.9897L38.1481 24.1621L38.144 24.3346L38.1382 24.507L38.1306 24.6795L38.1213 24.852L38.1101 25.0245L38.0972 25.197L38.0825 25.3694L38.066 25.5418L38.0478 25.7141L38.0277 25.8862L38.0059 26.0583L37.9824 26.2302L37.957 26.402L37.9299 26.5736L37.901 26.745L37.8703 26.9162L37.8379 27.0872L37.8037 27.258L37.7677 27.4285L37.7299 27.5987L37.6904 27.7687L37.6492 27.9383L37.6061 28.1076L37.5613 28.2765L37.5148 28.4451L37.4665 28.6133L37.4165 28.7811L37.3647 28.9486L37.3111 29.1155L37.2559 29.2821L37.1989 29.4481L37.1401 29.6137L37.0797 29.7788L37.0175 29.9433L36.9536 30.1073L36.888 30.2708L36.8207 30.4337L36.7517 30.596L36.681 30.7578L36.6086 30.9188L36.5345 31.0793L36.4587 31.2391L36.3813 31.3982L36.3021 31.5567L36.2214 31.7144L36.1389 31.8715L36.0549 32.0277L35.9691 32.1833L35.8818 32.338L35.7928 32.492L35.7022 32.6452L35.61 32.7975L35.5162 32.9491L35.4207 33.0997L35.3237 33.2495L35.2252 33.3984L35.125 33.5464L35.0233 33.6935L34.92 33.8397L34.8152 33.9849L34.7088 34.1292L34.6009 34.2725L34.4915 34.4148L34.3806 34.556L34.2682 34.6963L34.1543 34.8355L34.0389 34.9736L33.922 35.1107L33.8037 35.2467L33.6839 35.3816L33.5627 35.5154L33.4401 35.6481L33.3161 35.7796L33.1906 35.91L33.0638 36.0391L32.9355 36.1671L32.8059 36.2939L32.675 36.4195L32.5427 36.5439L32.4091 36.667L32.2741 36.7889L32.1378 36.9094L32.0003 37.0287L31.8614 37.1468L31.7213 37.2635L31.5799 37.3788L31.4373 37.4929L31.2934 37.6056L31.1483 37.7169L31.002 37.8268L30.8545 37.9354L30.7059 38.0426L30.556 38.1483L30.405 38.2527L30.2529 38.3556L30.0997 38.457L29.9453 38.557L29.7899 38.6556L29.6334 38.7526L29.4758 38.8482L29.3171 38.9422L29.1574 39.0348L28.9968 39.1258L28.835 39.2152L28.6724 39.3032L28.5087 39.3895L28.3441 39.4743L28.1785 39.5576L28.012 39.6392L27.8446 39.7192L27.6763 39.7977L27.5071 39.8745L27.3371 39.9497L27.1662 40.0232L26.9945 40.0951L26.822 40.1654L26.6487 40.234L26.4746 40.3009L26.2997 40.3662L26.1241 40.4297L25.9477 40.4916L25.7707 40.5517L25.593 40.6102L25.4145 40.6669L25.2354 40.7219L25.0557 40.7752L24.8754 40.8267L24.6944 40.8765L24.5129 40.9246L24.3307 40.9708L24.1481 41.0153L23.9649 41.0581L23.7811 41.099L23.5969 41.1382L23.4122 41.1756L23.227 41.2112L23.0414 41.245L22.8554 41.2769L22.6689 41.3071L22.4821 41.3355L22.2948 41.362L22.1073 41.3867L21.9194 41.4096L21.7311 41.4306L21.5426 41.4498L21.3538 41.4672L21.1648 41.4827L20.9755 41.4964L20.786 41.5082L20.5962 41.5182L20.4063 41.5263L20.2163 41.5325L20.026 41.5369L19.8357 41.5394L19.6452 41.5401L19.4547 41.5389L19.2641 41.5358L19.0734 41.5309L18.8827 41.524L18.692 41.5153L18.5013 41.5048L18.3107 41.4923L18.12 41.478L17.9295 41.4618L17.739 41.4437L17.5486 41.4238L17.3584 41.402L17.1683 41.3783L16.9783 41.3527L16.7886 41.3252L16.599 41.2959L16.4097 41.2647L16.2206 41.2317L16.0317 41.1967L15.8432 41.1599L15.6549 41.1213L15.467 41.0807L15.2793 41.0383L15.0921 40.9941L14.9052 40.948L14.7187 40.9L14.5326 40.8502L14.347 40.7986L14.1618 40.7451L13.977 40.6898L13.7928 40.6326L13.6091 40.5736L13.4259 40.5128L13.2432 40.4501L13.0611 40.3856L12.8796 40.3194L12.6987 40.2513L12.5184 40.1814L12.3388 40.1097L12.1598 40.0362L11.9815 39.9609L11.8039 39.8839L11.627 39.8051L11.4508 39.7245L11.2754 39.6421L11.1008 39.558L10.927 39.4721L10.7539 39.3845L10.5817 39.2952L10.4104 39.2041L10.2398 39.1114L10.0702 39.0169L9.90148 38.9207L9.73368 38.8228L9.56678 38.7232L9.40088 38.622L9.23588 38.519L9.07188 38.4145L8.90898 38.3082L8.74698 38.2004L8.58608 38.0908L8.42628 37.9797L8.26748 37.867L8.10979 37.7526L7.95321 37.6367L7.79775 37.5191L7.64344 37.4L7.49028 37.2794L7.33829 37.1571L7.1875 37.0334L7.03791 36.9081L6.88954 36.7813L6.74241 36.653L6.59654 36.5231L6.45194 36.3918L6.30863 36.2591L6.16661 36.1248L6.02592 35.9892L5.88656 35.852L5.74854 35.7135L5.61189 35.5736L5.47662 35.4322L5.34274 35.2895L5.21027 35.1454L5.07923 34.9999L4.94962 34.8531L4.82146 34.705L4.69477 34.5555L4.56956 34.4048L4.44585 34.2527L4.32364 34.0994L4.20296 33.9448L4.08381 33.789L3.96621 33.6319L3.85017 33.4736L3.73571 33.3141L3.62283 33.1534L3.51156 32.9916L3.4019 32.8286L3.29387 32.6644L3.18748 32.4992L3.08273 32.3328L2.97965 32.1653L2.87825 31.9968L2.77853 31.8271L2.68052 31.6565L2.58421 31.4848L2.48962 31.3121L2.39677 31.1383L2.30565 30.9636L2.2163 30.788L2.1287 30.6114L2.04289 30.4339L1.95886 30.2554L1.87662 30.0761L1.79619 29.8958L1.71757 29.7148L1.64078 29.5328L1.56583 29.3501L1.49271 29.1665L1.42145 28.9821L1.35206 28.797L1.28453 28.6111L1.21888 28.4245L1.15511 28.2372L1.09324 28.0491L1.03328 27.8604L0.975219 27.671L0.919089 27.481L0.864879 27.2903L0.812599 27.099L0.762259 26.9072L0.713869 26.7148L0.667429 26.5218L0.622959 26.3283L0.580449 26.1342L0.539909 25.9397L0.501349 25.7447L0.464769 25.5493L0.430179 25.3534L0.397589 25.1571L0.366989 24.9604L0.338399 24.7633L0.311819 24.5658L0.287259 24.368L0.264709 24.1699L0.244179 23.9715L0.225679 23.7729L0.209209 23.5739L0.194769 23.3747L0.182369 23.1753L0.172009 22.9757L0.163689 22.7759L0.157409 22.576L0.153179 22.3759L0.151009 22.1757L0.150879 21.9754ZM19.529 7.30703L19.4834 3.45683L19.4401 3.46101L19.2413 3.48217L19.043 3.50525L18.8448 3.53029L18.6474 3.55719L18.4502 3.58605L18.2532 3.61684L18.0568 3.64952L17.8606 3.68415L17.6654 3.72058L17.4699 3.75905L17.2758 3.79925L17.0814 3.84148L16.888 3.8855L16.6948 3.93148L16.5025 3.97922L16.3107 4.02888L16.1194 4.08039L15.9287 4.13376L15.7389 4.18892L15.5494 4.24598L15.3609 4.30481L15.1729 4.36551L14.9859 4.42789L14.7992 4.49224L14.6135 4.55831L14.4287 4.62613L14.2444 4.6958L14.0611 4.76717L13.8788 4.84026L13.697 4.91523L13.5161 4.9919L13.3361 5.07032L13.1571 5.15039L12.979 5.2322L12.8019 5.31566L12.6254 5.40096L12.4502 5.48782L12.2759 5.57637L12.1026 5.66659L11.9303 5.75848L11.7592 5.85194L11.5888 5.94713L11.4195 6.04397L11.2517 6.14219L11.0844 6.24233L10.9187 6.3438L10.7541 6.44685L10.5903 6.55159L10.4278 6.65786L10.2665 6.76568L10.1067 6.87477L9.94748 6.98579L9.78988 7.098L9.63348 7.21176L9.47818 7.32708L9.32428 7.44377L9.17178 7.56186L9.02018 7.68161L8.87028 7.8025L8.72148 7.92498L8.57408 8.04879L8.42798 8.17404L8.28338 8.30049L8.13986 8.42854L7.99798 8.55773L7.85731 8.68841L7.71827 8.82019L7.5805 8.9534L7.44426 9.08781L7.30941 9.22355L7.17587 9.36069L7.04408 9.49877L6.91377 9.63804L6.78462 9.77894L6.65726 9.92074L6.53146 10.0635L6.40695 10.2078L6.28425 10.353L6.16291 10.4995L6.0432 10.647L5.92506 10.7957L5.80846 10.9454L5.69358 11.0962L5.5802 11.248L5.46838 11.401L5.35836 11.5547L5.24981 11.7097L5.14299 11.8655L5.03782 12.0223L4.93423 12.1801L4.83239 12.3388L4.73222 12.4983L4.63373 12.6588L4.537 12.8201L4.44186 12.9824L4.34843 13.1456L4.25684 13.3094L4.16689 13.4741L4.07866 13.6397L3.99222 13.806L3.90748 13.9731L3.82456 14.1408L3.74337 14.3093L3.66397 14.4785L3.5863 14.6485L3.51047 14.819L3.43636 14.9903L3.36406 15.1622L3.29361 15.3346L3.22492 15.5077L3.15803 15.6814L3.09298 15.8556L3.02973 16.0304L2.96835 16.2056L2.90874 16.3815L2.85098 16.5578L2.79507 16.7346L2.74101 16.9117L2.68875 17.0895L2.63838 17.2675L2.58985 17.446L2.54316 17.6248L2.49833 17.8041L2.45537 17.9836L2.41427 18.1635L2.37503 18.3437L2.33766 18.5242L2.30216 18.7049L2.26852 18.8859L2.23676 19.0671L2.20687 19.2486L2.17886 19.4302L2.15272 19.612L2.12846 19.794L2.10607 19.9761L2.08556 20.1583L2.06693 20.3407L2.05018 20.5231L2.0353 20.7055L2.0223 20.8881L2.01118 21.0707L2.00193 21.2532L1.99456 21.4358L1.98906 21.6183L1.98544 21.8008L1.98368 21.9832L1.9838 22.1656L1.98578 22.3478L1.98963 22.53L1.99534 22.712L2.00291 22.8938L2.01235 23.0755L2.02363 23.2569L2.03677 23.4382L2.05176 23.6192L2.0686 23.8L2.08727 23.9806L2.10779 24.1608L2.13014 24.3408L2.15432 24.5204L2.18033 24.6997L2.20817 24.8787L2.23781 25.0572L2.26928 25.2354L2.30255 25.4132L2.33762 25.5905L2.37449 25.7675L2.41315 25.9439L2.4536 26.1199L2.49583 26.2954L2.53983 26.4704L2.58561 26.6449L2.63313 26.8187L2.68243 26.9921L2.73347 27.1649L2.78625 27.3371L2.84077 27.5087L2.897 27.6796L2.95496 27.8499L3.01464 28.0195L3.07602 28.1885L3.13908 28.3567L3.20387 28.5243L3.2703 28.6911L3.33841 28.8572L3.4082 29.0225L3.47963 29.187L3.55272 29.3508L3.62744 29.5138L3.70379 29.6759L3.78175 29.8372L3.86133 29.9976L3.9425 30.1572L4.02527 30.3159L4.10961 30.4737L4.19553 30.6306L4.283 30.7865L4.37202 30.9415L4.46258 31.0956L4.55468 31.2486L4.64825 31.4007L4.74339 31.5518L4.83998 31.7018L4.93808 31.8509L5.03765 31.9989L5.13866 32.1458L5.24112 32.2917L5.34505 32.4365L5.45037 32.5802L5.55714 32.7228L5.66526 32.8642L5.77483 33.0045L5.88571 33.1436L5.99799 33.2816L6.11165 33.4185L6.22658 33.5541L6.34288 33.6885L6.46047 33.8217L6.5794 33.9537L6.69958 34.0844L6.82101 34.2139L6.94373 34.3421L7.06768 34.4691L7.1929 34.5948L7.3193 34.7191L7.44694 34.8422L7.57572 34.9639L7.70569 35.0844L7.83686 35.2035L7.96915 35.3212L8.1025 35.4375L8.23708 35.5525L8.37278 35.6661L8.50938 35.7783L8.64728 35.8892L8.78608 35.9985L8.92598 36.1065L9.06688 36.2131L9.20888 36.3182L9.35178 36.4218L9.49568 36.524L9.64048 36.6247L9.78638 36.724L9.93308 36.8217L10.0809 36.918L10.2294 37.0128L10.3789 37.106L10.5293 37.1978L10.6804 37.288L10.8325 37.3767L10.9853 37.4638L11.139 37.5494L11.2934 37.6334L11.4487 37.7159L11.6046 37.7968L11.7613 37.8762L11.9188 37.9539L12.077 38.0301L12.2358 38.1047L12.3953 38.1777L12.5554 38.249L12.7163 38.3188L12.8777 38.3869L13.0398 38.4535L13.2024 38.5184L13.3656 38.5816L13.5294 38.6433L13.6936 38.7033L13.8584 38.7616L14.0238 38.8183L14.1896 38.8734L14.3559 38.9268L14.5225 38.9785L14.6898 39.0286L14.8573 39.077L15.0253 39.1237L15.1937 39.1688L15.3624 39.2122L15.5315 39.2539L15.7008 39.2939L15.8706 39.3323L16.0406 39.3689L16.2108 39.4039L16.3814 39.4372L16.5522 39.4688L16.7232 39.4987L16.8944 39.5269L17.0658 39.5534L17.2374 39.5782L17.4092 39.6013L17.581 39.6228L17.753 39.6425L17.9251 39.6605L18.0973 39.6769L18.2696 39.6915L18.4419 39.7045L18.6142 39.7157L18.7866 39.7253L18.9589 39.7331L19.1312 39.7393L19.3035 39.7438L19.4758 39.7465L19.6479 39.7476L19.82 39.747L19.992 39.7447L20.1638 39.7408L20.3355 39.7351L20.5071 39.7278L20.6785 39.7188L20.8496 39.7081L21.0206 39.6958L21.1914 39.6818L21.3619 39.6661L21.5321 39.6487L21.7021 39.6297L21.8717 39.6091L22.0411 39.5868L22.2101 39.5628L22.3788 39.5372L22.5471 39.51L22.7151 39.4811L22.8827 39.4506L23.0498 39.4185L23.2165 39.3848L23.3828 39.3494L23.5486 39.3125L23.7139 39.2739L23.8788 39.2337L24.0431 39.192L24.2069 39.1486L24.3701 39.1037L24.5329 39.0572L24.695 39.0091L24.8566 38.9595L25.0175 38.9084L25.1779 38.8556L25.3376 38.8014L25.4965 38.7456L25.655 38.6882L25.8127 38.6294L25.9697 38.569L26.126 38.5072L26.2815 38.4439L26.4363 38.379L26.5904 38.3127L26.7437 38.2449L26.8961 38.1757L27.0479 38.105L27.1988 38.0328L27.3488 37.9593L27.4981 37.8842L27.6464 37.8078L27.7939 37.73L27.9406 37.6507L28.0862 37.5701L28.231 37.4881L28.3748 37.4048L28.5179 37.32L28.6597 37.234L28.8009 37.1465L28.9408 37.0578L29.0798 36.9677L29.2179 36.8763L29.355 36.7835L29.4908 36.6897L29.6257 36.5944L29.7596 36.4979L29.8924 36.4002L30.0242 36.3011L30.1547 36.201L30.2844 36.0994L30.4127 35.9968L30.5399 35.893L30.6662 35.7879L30.7912 35.6816L30.9149 35.5743L31.0376 35.4657L31.159 35.3561L31.2793 35.2453L31.3984 35.1334L31.5161 35.0205L31.6328 34.9063L31.7482 34.7911L31.8623 34.6749L31.9752 34.5576L32.0867 34.4394L32.1969 34.3202L32.3061 34.1996L32.4137 34.0784L32.5202 33.956L32.6252 33.8328L32.729 33.7085L32.8314 33.5834L32.9324 33.4573L33.0322 33.3302L33.1305 33.2024L33.2276 33.0735L33.3231 32.9439L33.4174 32.8133L33.5104 32.6818L33.6016 32.5498L33.6917 32.4167L33.7802 32.283L33.8674 32.1483L33.9533 32.0128L34.0375 31.8768L34.1203 31.74L34.2018 31.6021L34.2816 31.464L34.3601 31.3249L34.4372 31.1851L34.5126 31.0449L34.5867 30.9037L34.6593 30.7619L34.7302 30.62L34.7998 30.4769L34.8679 30.3333L34.9344 30.1893L34.9994 30.0447L35.0629 29.8995L35.1248 29.7539L35.1853 29.6075L35.2442 29.4607L35.3015 29.3138L35.3573 29.1658L35.4115 29.0178L35.4643 28.8691L35.5155 28.7201L35.5651 28.5706L35.613 28.4211L35.6596 28.2705L35.7044 28.1201L35.7477 27.9692L35.7895 27.8181L35.8297 27.6664L35.8682 27.5147L35.9053 27.3625L35.9407 27.21L35.9746 27.0574L36.0069 26.9044L36.0375 26.7515L36.0666 26.5979L36.0941 26.4447L36.12 26.2909L36.1443 26.137L36.167 25.9831L36.1882 25.8289L36.2077 25.6749L36.2257 25.5202L36.242 25.3661L36.2568 25.2115L36.2699 25.0572L36.2815 24.9024L36.2915 24.7482L36.2999 24.5935L36.3067 24.4387L36.3119 24.2843L36.3156 24.1302L36.3176 23.9755L36.3181 23.8211L36.317 23.6669L36.3143 23.5128L36.31 23.3587L36.3041 23.2052L36.2967 23.0511L36.2877 22.8977L36.2771 22.7443L36.265 22.5914L36.2513 22.4382L36.2361 22.2857L36.2193 22.1331L36.2009 21.981L36.181 21.829L36.1596 21.6775L36.1365 21.5259L36.112 21.375L36.086 21.2246L36.0584 21.0741L36.0292 20.9241L35.9986 20.7747L35.9664 20.6252L35.9329 20.4768L35.8976 20.3282L35.8611 20.1806L35.8228 20.0328L35.7832 19.8861L35.7421 19.7396L35.6995 19.5934L35.6555 19.4481L35.61 19.3033L35.5629 19.1586L35.5146 19.015L35.4646 18.8715L35.4134 18.7289L35.3606 18.5866L35.3065 18.4453L35.2508 18.3042L35.1938 18.1639L35.1355 18.0245L35.0758 17.8857L35.0144 17.7471L34.9521 17.6098L34.888 17.4726L34.8228 17.3367L34.7562 17.2013L34.6881 17.0664L34.6189 16.9326L34.5482 16.7994L34.4761 16.6668L34.4031 16.5355L34.3284 16.4045L34.2526 16.2746L34.1753 16.1453L34.0971 16.0173L34.0172 15.8896L33.9364 15.7631L33.8541 15.6372L33.7707 15.5124L33.6862 15.3887L33.6002 15.2655L33.5131 15.1434L33.4249 15.0222L33.3354 14.9021L33.2448 14.7827L33.153 14.6645L33.0601 14.5471L32.966 14.4308L32.8708 14.3155L32.7744 14.2011L32.6769 14.0878L32.5784 13.9755L32.4789 13.8643L32.3782 13.7541L32.2762 13.6448L32.1737 13.537L32.0695 13.4298L31.9648 13.3241L31.8589 13.2192L31.7521 13.1156L31.6439 13.0128L31.5353 12.9116L31.4253 12.8112L31.3144 12.712L31.2029 12.6141L31.0903 12.5173L30.9764 12.4214L30.8619 12.3269L30.7466 12.2336L30.6303 12.1415L30.5131 12.0505L30.3953 11.961L30.2762 11.8722L30.1567 11.7851L30.0362 11.6991L29.9148 11.6142L29.7929 11.5307L29.6697 11.4482L29.5465 11.3674L29.4219 11.2875L29.2969 11.209L29.1709 11.1317L29.0444 11.0557L28.9172 10.981L28.7895 10.9078L28.6606 10.8355L28.5317 10.7649L28.4017 10.6954L28.2712 10.6273L28.1402 10.5606L28.0084 10.4951L27.8761 10.4309L27.7433 10.3682L27.6098 10.3067L27.476 10.2467L27.3415 10.1879L27.2022 10.1287L27.0712 10.0746L26.9349 10.0198L26.7988 9.96674L26.6616 9.91464L26.5244 9.86424L26.3866 9.81504L26.2485 9.76734L26.1098 9.72084L25.971 9.67594L25.8316 9.63234L25.6919 9.59014L25.5521 9.54944L25.4117 9.51L25.2708 9.47192L25.1301 9.43539L24.9891 9.40025L24.8472 9.3664L24.7058 9.33411L24.5637 9.30311L24.4216 9.27361L24.279 9.24545L24.1366 9.21877L23.9938 9.19347L23.8511 9.16964L23.7077 9.14714L23.5647 9.12613L23.4214 9.10651L23.2779 9.0883L23.1344 9.07152L22.9909 9.05618L22.8473 9.04224L22.7036 9.02972L22.5598 9.01861L22.4159 9.00891L22.2724 9.00065L22.1288 8.9938L21.9847 8.98835L21.8414 8.98433L21.6978 8.98171L21.5543 8.98051L21.4106 8.98071L21.3818 8.98104L21.4271 12.8033L21.5086 12.8029L21.6135 12.8035L21.7184 12.8051L21.8234 12.8078L21.9285 12.8115L22.0336 12.8163L22.1387 12.8221L22.2439 12.8289L22.3491 12.8368L22.4543 12.8457L22.5595 12.8557L22.6646 12.8667L22.7698 12.8788L22.8749 12.8919L22.9799 12.906L23.0849 12.9213L23.1898 12.9375L23.2946 12.9548L23.3994 12.9732L23.504 12.9926L23.6085 13.0131L23.7129 13.0346L23.8172 13.0571L23.9213 13.0807L24.0252 13.1054L24.129 13.1311L24.2325 13.1578L24.3359 13.1856L24.4391 13.2144L24.5421 13.2443L24.6449 13.2752L24.7474 13.3071L24.8496 13.3401L24.9516 13.3741L25.0534 13.4092L25.1548 13.4453L25.256 13.4824L25.3568 13.5205L25.4574 13.5597L25.5576 13.5999L25.6575 13.6411L25.757 13.6834L25.8562 13.7266L25.955 13.7709L26.0534 13.8161L26.1514 13.8624L26.2491 13.9097L26.3463 13.958L26.4431 14.0073L26.5395 14.0576L26.6354 14.1088L26.7309 14.1611L26.8259 14.2143L26.9204 14.2685L27.0145 14.3237L27.1081 14.3799L27.2011 14.437L27.2936 14.4951L27.3856 14.5542L27.4771 14.6142L27.568 14.6751L27.6584 14.737L27.7482 14.7999L27.8374 14.8636L27.926 14.9283L28.014 14.994L28.1015 15.0605L28.1882 15.128L28.2744 15.1964L28.3599 15.2656L28.4448 15.3358L28.529 15.4069L28.6126 15.4788L28.6955 15.5516L28.7777 15.6253L28.8592 15.6999L28.9399 15.7753L29.02 15.8516L29.0993 15.9287L29.1779 16.0067L29.2558 16.0855L29.3329 16.1652L29.4093 16.2456L29.4848 16.3269L29.5596 16.409L29.6336 16.4919L29.7068 16.5755L29.7792 16.66L29.8508 16.7452L29.9216 16.8312L29.9915 16.918L30.0606 17.0055L30.1288 17.0938L30.1962 17.1828L30.2627 17.2726L30.3283 17.363L30.3931 17.4542L30.4569 17.5461L30.5199 17.6387L30.5819 17.732L30.643 17.8259L30.7032 17.9206L30.7625 18.0159L30.8209 18.1118L30.8783 18.2084L30.9347 18.3057L30.9902 18.4035L31.0447 18.502L31.0982 18.6011L31.1508 18.7008L31.2024 18.8011L31.2529 18.902L31.3025 19.0035L31.3511 19.1055L31.3986 19.208L31.4451 19.3112L31.4906 19.4148L31.5351 19.519L31.5785 19.6237L31.6209 19.7289L31.6622 19.8346L31.7024 19.9407L31.7416 20.0474L31.7797 20.1545L31.8168 20.2621L31.8528 20.3701L31.8876 20.4786L31.9214 20.5874L31.9541 20.6967L31.9857 20.8064L32.0162 20.9165L32.0455 21.027L32.0738 21.1378L32.1009 21.249L32.1269 21.3605L32.1518 21.4724L32.1755 21.5846L32.1981 21.6971L32.2195 21.8099L32.2398 21.9231L32.259 22.0365L32.277 22.1501L32.2938 22.2641L32.3095 22.3782L32.324 22.4926L32.3374 22.6073L32.3495 22.7222L32.3605 22.8372L32.3704 22.9525L32.379 23.0679L32.3865 23.1835L32.3927 23.2992L32.3978 23.4151L32.4017 23.5312L32.4044 23.6473L32.4059 23.7636L32.4062 23.88L32.4053 23.9964L32.4032 24.1129L32.3999 24.2295L32.3954 24.3462L32.3897 24.4628L32.3828 24.5795L32.3747 24.6963L32.3654 24.813L32.3548 24.9297L32.3431 25.0464L32.3301 25.163L32.316 25.2797L32.3006 25.3962L32.284 25.5127L32.2662 25.6291L32.2472 25.7454L32.227 25.8616L32.2055 25.9777L32.1829 26.0937L32.159 26.2095L32.1339 26.3252L32.1077 26.4407L32.0802 26.556L32.0515 26.6711L32.0216 26.7861L31.9905 26.9008L31.9582 27.0153L31.9247 27.1295L31.89 27.2435L31.8541 27.3573L31.8169 27.4708L31.7786 27.5839L31.7391 27.6968L31.6985 27.8094L31.6566 27.9216L31.6135 28.0335L31.5693 28.1451L31.5239 28.2563L31.4773 28.3672L31.4295 28.4776L31.3806 28.5877L31.3305 28.6974L31.2792 28.8066L31.2268 28.9154L31.1732 29.0238L31.1184 29.1317L31.0625 29.2392L31.0055 29.3461L30.9473 29.4526L30.888 29.5586L30.8276 29.6641L30.766 29.769L30.7033 29.8735L30.6395 29.9773L30.5746 30.0807L30.5085 30.1834L30.4414 30.2856L30.3731 30.3871L30.3038 30.4881L30.2334 30.5885L30.1619 30.6882L30.0893 30.7873L30.0157 30.8858L29.941 30.9836L29.8652 31.0807L29.7884 31.1771L29.7105 31.2729L29.6316 31.3679L29.5517 31.4623L29.4707 31.5559L29.3887 31.6488L29.3057 31.7409L29.2217 31.8323L29.1367 31.9229L29.0508 32.0128L28.9638 32.1018L28.8759 32.1901L28.7869 32.2775L28.6971 32.3642L28.6062 32.45L28.5145 32.5349L28.4218 32.6191L28.3281 32.7023L28.2336 32.7847L28.1381 32.8663L28.0418 32.9469L27.9445 33.0267L27.8464 33.1055L27.7473 33.1834L27.6474 33.2604L27.5467 33.3365L27.4451 33.4116L27.3426 33.4858L27.2394 33.5591L27.1353 33.6313L27.0304 33.7026L26.9246 33.7729L26.8181 33.8422L26.7108 33.9105L26.6028 33.9778L26.4939 34.044L26.3844 34.1093L26.274 34.1735L26.163 34.2366L26.0512 34.2987L25.9387 34.3598L25.8255 34.4198L25.7116 34.4787L25.597 34.5365L25.4818 34.5932L25.3659 34.6489L25.2493 34.7034L25.1321 34.7568L25.0143 34.8091L24.8959 34.8603L24.7768 34.9103L24.6572 34.9592L24.537 35.007L24.4162 35.0536L24.2949 35.0991L24.173 35.1434L24.0506 35.1865L23.9276 35.2284L23.8042 35.2692L23.6802 35.3087L23.5558 35.3471L23.4309 35.3843L23.3055 35.4202L23.1797 35.455L23.0534 35.4885L22.9267 35.5208L22.7996 35.5519L22.6721 35.5818L22.5441 35.6104L22.4159 35.6378L22.2872 35.6639L22.1582 35.6888L22.0289 35.7125L21.8992 35.7349L21.7692 35.756L21.639 35.7758L21.5084 35.7944L21.3775 35.8117L21.2464 35.8278L21.1151 35.8425L20.9835 35.856L20.8517 35.8682L20.7197 35.8791L20.5875 35.8887L20.4551 35.897L20.3225 35.904L20.1898 35.9097L20.0569 35.9141L19.9239 35.9172L19.7908 35.919L19.6575 35.9195L19.5242 35.9187L19.3909 35.9165L19.2574 35.9131L19.1239 35.9083L18.9904 35.9022L18.8568 35.8948L18.7233 35.8861L18.5897 35.8761L18.4562 35.8647L18.3227 35.852L18.1892 35.838L18.0558 35.8227L17.9225 35.8061L17.7892 35.7881L17.6561 35.7688L17.5231 35.7482L17.3902 35.7263L17.2574 35.703L17.1248 35.6785L16.9924 35.6526L16.8602 35.6253L16.7281 35.5968L16.5963 35.567L16.4647 35.5358L16.3333 35.5033L16.2022 35.4695L16.0713 35.4344L15.9407 35.398L15.8105 35.3603L15.6805 35.3213L15.5508 35.281L15.4215 35.2393L15.2926 35.1964L15.1639 35.1522L15.0357 35.1067L14.9079 35.0599L14.7804 35.0118L14.6534 34.9624L14.5268 34.9118L14.4006 34.8598L14.2749 34.8066L14.1497 34.7522L14.025 34.6964L13.9007 34.6394L13.777 34.5812L13.6538 34.5217L13.5311 34.4609L13.4089 34.3989L13.2874 34.3357L13.1664 34.2712L13.046 34.2055L12.9262 34.1386L12.807 34.0704L12.6884 34.0011L12.5705 33.9305L12.4532 33.8587L12.3366 33.7858L12.2207 33.7116L12.1055 33.6363L11.991 33.5597L11.8772 33.482L11.7641 33.4032L11.6518 33.3232L11.5402 33.242L11.4294 33.1597L11.3193 33.0762L11.2101 32.9916L11.1017 32.9059L10.9941 32.819L10.8873 32.7311L10.7813 32.642L10.6762 32.5519L10.572 32.4606L10.4686 32.3683L10.3661 32.2749L10.2646 32.1805L10.1639 32.085L10.0641 31.9884L9.96528 31.8908L9.86748 31.7922L9.77058 31.6925L9.67458 31.5919L9.57958 31.4902L9.48568 31.3876L9.39268 31.2839L9.30068 31.1793L9.20978 31.0737L9.11978 30.9672L9.03098 30.8597L8.94308 30.7512L8.85638 30.6419L8.77068 30.5316L8.68608 30.4204L8.60258 30.3083L8.52008 30.1954L8.43878 30.0815L8.35868 29.9668L8.27958 29.8512L8.20168 29.7348L8.12494 29.6176L8.04935 29.4995L7.97492 29.3806L7.90168 29.2609L7.82962 29.1404L7.75876 29.0192L7.6891 28.8971L7.62065 28.7744L7.55343 28.6508L7.48744 28.5266L7.42268 28.4016L7.35917 28.2759L7.29692 28.1495L7.23593 28.0224L7.17621 27.8947L7.11777 27.7662L7.06061 27.6372L7.00475 27.5075L6.95019 27.3771L6.89693 27.2462L6.845 27.1147L6.79438 26.9825L6.74509 26.8498L6.69713 26.7166L6.65052 26.5827L6.60526 26.4484L6.56135 26.3135L6.5188 26.1781L6.47762 26.0423L6.43781 25.9059L6.39938 25.7691L6.36233 25.6318L6.32668 25.494L6.29242 25.3559L6.25955 25.2173L6.2281 25.0783L6.19805 24.9389L6.16942 24.7992L6.14221 24.6591L6.11642 24.5186L6.09206 24.3778L6.06914 24.2367L6.04765 24.0953L6.0276 23.9536L6.009 23.8116L5.99185 23.6693L5.97615 23.5268L5.9619 23.3841L5.94911 23.2411L5.93779 23.0979L5.92793 22.9546L5.91953 22.811L5.91261 22.6673L5.90716 22.5235L5.90319 22.3795L5.90069 22.2354L5.89967 22.0911L5.90014 21.9468L5.90208 21.8024L5.90552 21.658L5.91043 21.5135L5.91684 21.3689L5.92474 21.2244L5.93412 21.0798L5.945 20.9353L5.95736 20.7907L5.97122 20.6463L5.98658 20.5018L6.00342 20.3575L6.02176 20.2132L6.04159 20.069L6.06291 19.9249L6.08573 19.781L6.11003 19.6372L6.13583 19.4936L6.16312 19.3501L6.1919 19.2068L6.22216 19.0638L6.25392 18.9209L6.28716 18.7783L6.32188 18.6359L6.35808 18.4938L6.39577 18.352L6.43493 18.2104L6.47557 18.0692L6.51769 17.9283L6.56127 17.7877L6.60633 17.6474L6.65285 17.5076L6.70083 17.3681L6.75028 17.229L6.80118 17.0903L6.85353 16.952L6.90733 16.8142L6.96258 16.6768L7.01927 16.5399L7.0774 16.4035L7.13696 16.2675L7.19796 16.1321L7.26037 15.9972L7.32421 15.8628L7.38946 15.729L7.45613 15.5958L7.5242 15.4631L7.59367 15.3311L7.66453 15.1996L7.73679 15.0688L7.81043 14.9386L7.88544 14.809L7.96183 14.6802L8.03959 14.552L8.1187 14.4245L8.19918 14.2977L8.28098 14.1716L8.36418 14.0463L8.44858 13.9217L8.53448 13.7979L8.62158 13.6748L8.70998 13.5525L8.79978 13.4311L8.89078 13.3104L8.98318 13.1906L9.07678 13.0716L9.17168 12.9535L9.26778 12.8363L9.36518 12.7199L9.46388 12.6044L9.56378 12.4898L9.66488 12.3762L9.76728 12.2635L9.87078 12.1517L9.97558 12.0409L10.0816 11.931L10.1887 11.8222L10.297 11.7143L10.4065 11.6074L10.5172 11.5016L10.629 11.3967L10.7419 11.293L10.856 11.1902L10.9712 11.0886L11.0874 10.9879L11.2048 10.8884L11.3233 10.79L11.4428 10.6927L11.5634 10.5965L11.6851 10.5015L11.8078 10.4076L11.9315 10.3149L12.0563 10.2233L12.182 10.1329L12.3087 10.0437L12.4365 9.95574L12.5652 9.86894L12.6948 9.78344L12.8255 9.69904L12.957 9.61594L13.0895 9.53408L13.2229 9.45347L13.3572 9.37413L13.4923 9.29607L13.6284 9.21929L13.7653 9.1438L13.903 9.06963L14.0416 8.99677L14.181 8.92523L14.3212 8.85502L14.4622 8.78615L14.604 8.71863L14.7466 8.65247L14.8899 8.58767L15.034 8.52424L15.1788 8.4622L15.3243 8.40155L15.4705 8.34229L15.6173 8.28444L15.7649 8.228L15.9131 8.17298L16.062 8.11939L16.2115 8.06723L16.3616 8.01651L16.5123 7.96724L16.6635 7.91943L16.8154 7.87307L16.9678 7.82818L17.1208 7.78477L17.2742 7.74283L17.4282 7.70238L17.5827 7.66342L17.7377 7.62596L17.8931 7.59001L18.049 7.55555L18.2053 7.52261L18.362 7.49119L18.5192 7.4613L18.6767 7.43293L18.8346 7.40609L18.9929 7.38079L19.1515 7.35703L19.3104 7.33482L19.4696 7.31415L19.529 7.30703ZM19.5962 12.9762L19.5504 9.11193L19.4199 9.13017L19.2796 9.1512L19.1392 9.17363L18.9997 9.19734L18.86 9.2225L18.721 9.24895L18.5823 9.27676L18.4441 9.30587L18.3062 9.33636L18.1686 9.3682L18.0314 9.40135L17.8948 9.43581L17.7583 9.47165L17.6272 9.50744L17.4875 9.54714L17.3526 9.58684L17.2183 9.62784L17.0847 9.67004L16.9514 9.71364L16.8186 9.75854L16.6864 9.80464L16.5549 9.85194L16.4239 9.90064L16.2935 9.95044L16.1636 10.0016L16.0347 10.0539L15.9058 10.1076L15.7779 10.1624L15.6506 10.2184L15.5242 10.2756L15.3981 10.3341L15.2727 10.3938L15.1484 10.4545L15.0243 10.5166L14.9015 10.5797L14.7789 10.6442L14.6575 10.7095L14.5363 10.7764L14.4163 10.844L14.2971 10.9129L14.1785 10.983L14.0608 11.0542L13.9437 11.1266L13.8278 11.1998L13.7124 11.2743L13.5981 11.3498L13.4846 11.4263L13.3719 11.504L13.2599 11.5828L13.1492 11.6623L13.0391 11.7432L12.9299 11.825L12.8217 11.9078L12.7145 11.9915L12.608 12.0764L12.5027 12.1621L12.3983 12.2488L12.2947 12.3367L12.1924 12.4252L12.0908 12.5149L11.9902 12.6055L11.8907 12.6969L11.7923 12.7892L11.6946 12.8826L11.5983 12.9766L11.5029 13.0716L11.4084 13.1676L11.3151 13.2643L11.2228 13.362L11.1316 13.4604L11.0415 13.5596L10.9524 13.6597L10.8643 13.7607L10.7777 13.8622L10.6919 13.9647L10.6072 14.068L10.5237 14.1719L10.4414 14.2765L10.36 14.3821L10.2799 14.4882L10.2009 14.5951L10.1231 14.7027L10.0464 14.811L9.97098 14.9198L9.89668 15.0294L9.82348 15.1397L9.75148 15.2506L9.68078 15.362L9.61128 15.4741L9.54288 15.587L9.47568 15.7002L9.40978 15.8141L9.34498 15.9286L9.28158 16.0434L9.21928 16.159L9.15808 16.2752L9.09838 16.3916L9.03978 16.5088L8.98248 16.6264L8.92638 16.7443L8.87158 16.8629L8.81798 16.9818L8.76568 17.1012L8.71458 17.221L8.66488 17.3412L8.61638 17.4618L8.56908 17.5829L8.52308 17.7043L8.47848 17.826L8.43498 17.9482L8.39298 18.0705L8.35208 18.1933L8.31258 18.3164L8.27428 18.4398L8.23738 18.5634L8.20168 18.6873L8.16738 18.8114L8.13429 18.9359L8.10253 19.0605L8.07208 19.1854L8.04294 19.3105L8.01509 19.4357L7.98854 19.5612L7.96333 19.6868L7.9394 19.8125L7.91678 19.9385L7.89549 20.0645L7.87548 20.1907L7.85681 20.3168L7.83942 20.4432L7.82336 20.5696L7.8086 20.6961L7.79515 20.8226L7.78301 20.9492L7.77218 21.0758L7.76266 21.2023L7.75444 21.329L7.74752 21.4556L7.74191 21.5821L7.73761 21.7086L7.7346 21.835L7.7329 21.9614L7.73249 22.0878L7.73338 22.214L7.73557 22.3401L7.73905 22.4661L7.74381 22.5919L7.74987 22.7177L7.75721 22.8433L7.76583 22.9686L7.77574 23.0939L7.78692 23.2189L7.79938 23.3437L7.81311 23.4683L7.8281 23.5927L7.84437 23.7169L7.86189 23.8407L7.88068 23.9644L7.90071 24.0876L7.922 24.2107L7.94454 24.3335L7.96831 24.4558L7.99333 24.578L8.01957 24.6997L8.04706 24.8212L8.07574 24.9421L8.10568 25.0628L8.13682 25.1831L8.16918 25.303L8.20268 25.4224L8.23748 25.5415L8.27338 25.6601L8.31058 25.7783L8.34888 25.8961L8.38838 26.0133L8.42908 26.13L8.47088 26.2463L8.51388 26.3621L8.55808 26.4774L8.60338 26.5921L8.64978 26.7063L8.69738 26.82L8.74608 26.9331L8.79598 27.0456L8.84688 27.1576L8.89898 27.2689L8.95218 27.3797L9.00638 27.4899L9.06178 27.5994L9.11818 27.7084L9.17568 27.8167L9.23428 27.9243L9.29388 28.0313L9.35458 28.1376L9.41628 28.2432L9.47908 28.3481L9.54288 28.4524L9.60768 28.5559L9.67348 28.6587L9.74038 28.7609L9.80808 28.8621L9.87698 28.9628L9.94668 29.0626L10.0175 29.1617L10.0892 29.26L10.1619 29.3575L10.2355 29.4542L10.3101 29.5502L10.3855 29.6453L10.4619 29.7396L10.5392 29.8331L10.6174 29.9258L10.6965 30.0175L10.7765 30.1086L10.8573 30.1986L10.939 30.2879L11.0215 30.3762L11.1049 30.4637L11.1891 30.5503L11.2742 30.636L11.36 30.7208L11.4467 30.8047L11.5342 30.8877L11.6223 30.9697L11.7114 31.0509L11.8011 31.131L11.8916 31.2102L11.9829 31.2885L12.0749 31.3658L12.1676 31.4422L12.261 31.5175L12.3551 31.5919L12.4499 31.6653L12.5454 31.7378L12.6416 31.8092L12.7383 31.8796L12.8357 31.949L12.9338 32.0174L13.0325 32.0848L13.1319 32.1512L13.2318 32.2165L13.3323 32.2808L13.4334 32.3441L13.535 32.4063L13.6372 32.4675L13.74 32.5276L13.8432 32.5866L13.9471 32.6446L14.0513 32.7015L14.1562 32.7574L14.2615 32.8122L14.3672 32.8658L14.4735 32.9185L14.5803 32.97L14.6874 33.0205L14.7949 33.0698L14.903 33.1181L15.0113 33.1652L15.1201 33.2112L15.2293 33.2562L15.3389 33.3L15.4487 33.3427L15.559 33.3843L15.6696 33.4248L15.7805 33.4642L15.8917 33.5024L16.0033 33.5396L16.1151 33.5755L16.2272 33.6104L16.3396 33.6441L16.4522 33.6767L16.565 33.7082L16.6781 33.7385L16.7914 33.7678L16.9049 33.7958L17.0186 33.8227L17.1325 33.8485L17.2466 33.8732L17.3608 33.8967L17.4751 33.919L17.5897 33.9402L17.7042 33.9603L17.819 33.9793L17.9338 33.997L18.0487 34.0137L18.1637 34.0292L18.2787 34.0436L18.3938 34.0568L18.5089 34.0689L18.6241 34.0798L18.7393 34.0896L18.8545 34.0982L18.9697 34.1058L19.0848 34.1121L19.1999 34.1174L19.3151 34.1215L19.4301 34.1245L19.545 34.1263L19.6599 34.127L19.7747 34.1266L19.8894 34.125L20.004 34.1224L20.1184 34.1186L20.2328 34.1137L20.3469 34.1076L20.4609 34.1005L20.5747 34.0922L20.6884 34.0828L20.8018 34.0723L20.9151 34.0607L21.0282 34.048L21.141 34.0342L21.2536 34.0193L21.3659 34.0034L21.478 33.9863L21.5898 33.9681L21.7012 33.9489L21.8125 33.9285L21.9234 33.9071L22.034 33.8847L22.1444 33.8611L22.2542 33.8365L22.3638 33.8109L22.473 33.7841L22.5819 33.7564L22.6904 33.7276L22.7985 33.6977L22.9062 33.6668L23.0135 33.6349L23.1203 33.602L23.2267 33.568L23.3328 33.533L23.4383 33.497L23.5434 33.46L23.648 33.422L23.7521 33.383L23.8557 33.343L23.9588 33.302L24.0615 33.26L24.1636 33.2171L24.2651 33.1732L24.3662 33.1284L24.4666 33.0826L24.5666 33.0358L24.666 32.9881L24.7646 32.9396L24.863 32.8899L24.9605 32.8395L25.0576 32.788L25.1538 32.7358L25.2496 32.6826L25.3448 32.6285L25.4392 32.5735L25.5331 32.5176L25.6263 32.4609L25.7187 32.4033L25.8107 32.3448L25.9017 32.2856L25.9922 32.2254L26.0821 32.1643L26.1711 32.1025L26.2593 32.04L26.3471 31.9764L26.4339 31.9123L26.5201 31.8472L26.6056 31.7813L26.69 31.7148L26.7741 31.6473L26.8573 31.5791L26.9394 31.5103L27.0212 31.4404L27.1019 31.3701L27.1818 31.2991L27.2612 31.227L27.3394 31.1546L27.417 31.0813L27.4938 31.0073L27.5696 30.9327L27.6447 30.8573L27.719 30.7813L27.7924 30.7046L27.8648 30.6273L27.9365 30.5493L28.0074 30.4707L28.0772 30.3916L28.1464 30.3116L28.2145 30.2312L28.2817 30.1502L28.3482 30.0684L28.4136 29.9864L28.4782 29.9035L28.5419 29.8202L28.6047 29.7362L28.6665 29.6518L28.7273 29.567L28.7874 29.4813L28.8464 29.3954L28.9045 29.3089L28.9618 29.2218L29.0178 29.1345L29.0732 29.0465L29.1275 28.958L29.1809 28.8692L29.2332 28.7799L29.2848 28.69L29.3351 28.6001L29.3847 28.5093L29.4332 28.4184L29.4806 28.3271L29.5273 28.2351L29.5727 28.1433L29.6174 28.0505L29.6608 27.958L29.7036 27.8645L29.745 27.7712L29.7857 27.6771L29.8253 27.5831L29.8638 27.4887L29.9014 27.3939L29.938 27.2988L29.9734 27.2037L30.0081 27.108L30.0415 27.0122L30.074 26.9162L30.1055 26.8199L30.136 26.7233L30.1655 26.6266L30.1939 26.5298L30.2213 26.4326L30.2476 26.3354L30.273 26.2379L30.2973 26.1403L30.3206 26.0427L30.3429 25.9446L30.3641 25.8466L30.3844 25.7485L30.4035 25.6504L30.4217 25.5521L30.4388 25.4534L30.4549 25.3551L30.47 25.2565L30.484 25.1578L30.497 25.0593L30.509 24.9606L30.52 24.8616L30.5299 24.7633L30.5389 24.6642L30.5468 24.5655L30.5536 24.467L30.5595 24.3682L30.5643 24.2696L30.5681 24.1711L30.5709 24.0723L30.5726 23.9741L30.5734 23.8755L30.5731 23.7772L30.5719 23.6789L30.5696 23.581L30.5663 23.4829L30.562 23.385L30.5567 23.2875L30.5504 23.1897L30.5431 23.0922L30.5349 22.9952L30.5256 22.8979L30.5153 22.8012L30.504 22.7043L30.4918 22.6079L30.4786 22.5116L30.4644 22.4154L30.4492 22.3196L30.4331 22.2241L30.416 22.1288L30.3979 22.0338L30.3788 21.9387L30.3588 21.8443L30.3379 21.7502L30.316 21.6562L30.2931 21.5624L30.2694 21.4694L30.2446 21.3761L30.219 21.2836L30.1924 21.1912L30.1649 21.0994L30.1365 21.0077L30.1071 20.9164L30.0769 20.8257L30.0458 20.7353L30.0136 20.645L29.9808 20.5555L29.9469 20.4662L29.9122 20.3775L29.8766 20.289L29.8401 20.2009L29.8028 20.1136L29.7645 20.0264L29.7255 19.9399L29.6856 19.8539L29.6448 19.7681L29.6031 19.6828L29.5608 19.5983L29.5174 19.514L29.4734 19.4305L29.4285 19.3475L29.3827 19.2646L29.3363 19.1827L29.2889 19.1011L29.2408 19.0202L29.1918 18.9396L29.1423 18.8599L29.0917 18.7804L29.0406 18.7018L28.9886 18.6237L28.9359 18.5462L28.8823 18.4691L28.8281 18.3928L28.7733 18.3172L28.7175 18.2419L28.6612 18.1675L28.604 18.0936L28.5464 18.0205L28.4878 17.9478L28.4286 17.8759L28.3687 17.8046L28.3082 17.7339L28.2471 17.6641L28.1851 17.5947L28.1227 17.5262L28.0595 17.4582L27.9959 17.3912L27.9313 17.3245L27.8664 17.2588L27.8006 17.1935L27.7344 17.1292L27.6677 17.0656L27.6003 17.0026L27.5322 16.9403L27.4636 16.8789L27.3945 16.8182L27.3246 16.758L27.2547 16.699L27.1838 16.6403L27.1125 16.5826L27.0407 16.5257L26.9683 16.4693L26.8955 16.4139L26.8224 16.3594L26.7484 16.3054L26.6739 16.2521L26.5994 16.2L26.5239 16.1483L26.4485 16.0978L26.3724 16.0478L26.2958 15.9986L26.2187 15.9502L26.1415 15.9028L26.0635 15.856L25.9854 15.8102L25.9066 15.765L25.8279 15.7209L25.7485 15.6775L25.6687 15.6348L25.5886 15.593L25.5083 15.5522L25.4275 15.512L25.3463 15.4727L25.265 15.4343L25.1835 15.3968L25.1011 15.3599L25.0191 15.3241L24.9365 15.2891L24.8535 15.2548L24.7704 15.2215L24.6872 15.1891L24.6036 15.1575L24.5195 15.1266L24.4356 15.0968L24.3512 15.0677L24.2666 15.0395L24.1821 15.0122L24.0972 14.9858L24.0123 14.9602L23.9267 14.9354L23.8414 14.9116L23.7559 14.8886L23.6702 14.8665L23.5844 14.8452L23.4982 14.8248L23.4122 14.8053L23.3262 14.7867L23.2398 14.7689L23.1532 14.7519L23.0671 14.736L22.9804 14.7208L22.8939 14.7065L22.807 14.693L22.7206 14.6805L22.6335 14.6687L22.547 14.658L22.4602 14.648L22.3734 14.6389L22.2867 14.6307L22.1998 14.6233L22.1133 14.6168L22.0263 14.6112L21.9397 14.6064L21.8533 14.6025L21.7663 14.5994L21.68 14.5972L21.5936 14.5959L21.5073 14.5954L21.4483 14.5956L21.493 18.371L21.5197 18.3711L21.5693 18.3718L21.619 18.373L21.6688 18.3746L21.7186 18.3769L21.7685 18.3796L21.8184 18.3828L21.8684 18.3866L21.9184 18.3909L21.9685 18.3957L22.0186 18.401L22.0687 18.4068L22.1189 18.4132L22.169 18.4201L22.2192 18.4275L22.2694 18.4355L22.3196 18.444L22.3697 18.453L22.4199 18.4626L22.47 18.4726L22.5201 18.4833L22.5702 18.4944L22.6203 18.5061L22.6702 18.5183L22.7202 18.531L22.7701 18.5443L22.8199 18.5581L22.8697 18.5724L22.9194 18.5873L22.969 18.6027L23.0185 18.6187L23.068 18.6352L23.1173 18.6522L23.1666 18.6697L23.2157 18.6878L23.2647 18.7064L23.3136 18.7255L23.3624 18.7452L23.411 18.7654L23.4595 18.7861L23.5079 18.8074L23.5561 18.8292L23.6042 18.8515L23.6521 18.8744L23.6998 18.8977L23.7474 18.9216L23.7947 18.9461L23.8419 18.971L23.8889 18.9965L23.9357 19.0225L23.9823 19.049L24.0287 19.076L24.0748 19.1035L24.1208 19.1316L24.1665 19.1602L24.212 19.1893L24.2572 19.2188L24.3022 19.2489L24.347 19.2796L24.3915 19.3107L24.4357 19.3423L24.4797 19.3744L24.5234 19.407L24.5668 19.4401L24.6099 19.4737L24.6528 19.5078L24.6953 19.5424L24.7375 19.5774L24.7795 19.613L24.8211 19.649L24.8624 19.6855L24.9034 19.7225L24.944 19.76L24.9843 19.7979L25.0242 19.8363L25.0639 19.8752L25.1031 19.9145L25.142 19.9543L25.1806 19.9945L25.2187 20.0352L25.2565 20.0764L25.2939 20.118L25.331 20.16L25.3676 20.2025L25.4038 20.2454L25.4397 20.2887L25.4751 20.3325L25.5101 20.3767L25.5447 20.4213L25.5789 20.4664L25.6127 20.5118L25.646 20.5577L25.6788 20.6039L25.7113 20.6506L25.7433 20.6977L25.7748 20.7452L25.8059 20.793L25.8366 20.8413L25.8667 20.8899L25.8964 20.9389L25.9256 20.9883L25.9543 21.038L25.9826 21.0881L26.0103 21.1386L26.0376 21.1894L26.0644 21.2406L26.0906 21.2921L26.1164 21.3439L26.1416 21.3961L26.1663 21.4487L26.1905 21.5015L26.2142 21.5547L26.2374 21.6082L26.26 21.662L26.2821 21.7161L26.3036 21.7705L26.3246 21.8252L26.3451 21.8802L26.365 21.9355L26.3843 21.9911L26.4031 22.0469L26.4213 22.103L26.4389 22.1594L26.456 22.216L26.4725 22.2729L26.4884 22.3301L26.5038 22.3874L26.5186 22.445L26.5327 22.5029L26.5463 22.561L26.5593 22.6192L26.5717 22.6778L26.5835 22.7365L26.5946 22.7953L26.6052 22.8545L26.6152 22.9138L26.6246 22.9732L26.6333 23.0329L26.6414 23.0927L26.6489 23.1527L26.6558 23.2129L26.6621 23.2732L26.6677 23.3336L26.6727 23.3942L26.6771 23.455L26.6808 23.5158L26.6839 23.5768L26.6863 23.6379L26.6882 23.6991L26.6893 23.7604L26.6899 23.8218L26.6897 23.8832L26.689 23.9448L26.6876 24.0065L26.6855 24.0682L26.6828 24.13L26.6794 24.1918L26.6754 24.2537L26.6707 24.3156L26.6653 24.3776L26.6593 24.4396L26.6527 24.5016L26.6453 24.5636L26.6373 24.6257L26.6287 24.6878L26.6194 24.7498L26.6094 24.8118L26.5987 24.8738L26.5874 24.9358L26.5754 24.9978L26.5628 25.0597L26.5494 25.1216L26.5354 25.1834L26.5208 25.2452L26.5054 25.3069L26.4894 25.3686L26.4728 25.4301L26.4554 25.4916L26.4374 25.5529L26.4187 25.6142L26.3994 25.6754L26.3794 25.7364L26.3587 25.7974L26.3374 25.8582L26.3153 25.9188L26.2926 25.9794L26.2693 26.0397L26.2453 26.1L26.2206 26.16L26.1953 26.2199L26.1693 26.2796L26.1426 26.3392L26.1153 26.3985L26.0873 26.4576L26.0586 26.5166L26.0294 26.5753L25.9994 26.6338L25.9688 26.6921L25.9375 26.7501L25.9056 26.8079L25.8731 26.8655L25.8399 26.9228L25.806 26.9799L25.7716 27.0366L25.7364 27.0932L25.7007 27.1494L25.6643 27.2053L25.6272 27.261L25.5896 27.3163L25.5513 27.3714L25.5124 27.4261L25.4728 27.4805L25.4327 27.5346L25.3919 27.5883L25.3505 27.6417L25.3085 27.6948L25.2659 27.7475L25.2227 27.7998L25.1789 27.8518L25.1345 27.9034L25.0894 27.9546L25.0438 28.0054L24.9976 28.0559L24.9508 28.1059L24.9035 28.1555L24.8555 28.2048L24.807 28.2536L24.7579 28.3019L24.7083 28.3499L24.658 28.3974L24.6072 28.4444L24.5559 28.491L24.504 28.5372L24.4516 28.5829L24.3986 28.6281L24.3451 28.6728L24.291 28.7171L24.2364 28.7609L24.1813 28.8041L24.1257 28.8469L24.0696 28.8892L24.0129 28.931L23.9558 28.9722L23.8981 29.0129L23.84 29.0532L23.7813 29.0928L23.7222 29.132L23.6626 29.1705L23.6025 29.2086L23.5419 29.2461L23.4809 29.283L23.4194 29.3193L23.3575 29.3551L23.2951 29.3903L23.2322 29.4249L23.169 29.459L23.1053 29.4924L23.0412 29.5253L22.9766 29.5575L22.9117 29.5892L22.8463 29.6202L22.7805 29.6506L22.7144 29.6804L22.6478 29.7095L22.5809 29.7381L22.5136 29.766L22.4459 29.7932L22.3778 29.8198L22.3094 29.8458L22.2406 29.8711L22.1715 29.8958L22.1021 29.9198L22.0323 29.9431L21.9622 29.9658L21.8918 29.9877L21.8211 30.009L21.75 30.0297L21.6787 30.0496L21.6071 30.0689L21.5352 30.0874L21.463 30.1053L21.3905 30.1224L21.3178 30.1389L21.2448 30.1546L21.1716 30.1697L21.0981 30.184L21.0244 30.1976L20.9505 30.2105L20.8763 30.2227L20.802 30.2341L20.7274 30.2448L20.6527 30.2548L20.5777 30.2641L20.5026 30.2726L20.4273 30.2803L20.3518 30.2874L20.2762 30.2936L20.2004 30.2992L20.1244 30.3039L20.0484 30.308L19.9722 30.3113L19.8959 30.3138L19.8194 30.3155L19.7429 30.3165L19.6663 30.3168L19.5896 30.3163L19.5128 30.315L19.4359 30.3129L19.359 30.3101L19.282 30.3065L19.2049 30.3021L19.1278 30.297L19.0507 30.2911L18.9736 30.2844L18.8964 30.2769L18.8193 30.2687L18.7421 30.2596L18.665 30.2498L18.5878 30.2392L18.5107 30.2279L18.4336 30.2157L18.3566 30.2028L18.2796 30.1891L18.2027 30.1746L18.1258 30.1594L18.049 30.1433L17.9723 30.1265L17.8957 30.1088L17.8192 30.0904L17.7427 30.0713L17.6664 30.0513L17.5903 30.0305L17.5142 30.009L17.4384 29.9867L17.3626 29.9636L17.287 29.9397L17.2116 29.9151L17.1363 29.8897L17.0613 29.8635L16.9864 29.8365L16.9117 29.8087L16.8373 29.7802L16.763 29.7509L16.689 29.7208L16.6152 29.69L16.5417 29.6584L16.4684 29.626L16.3953 29.5929L16.3226 29.559L16.25 29.5243L16.1778 29.4889L16.1059 29.4527L16.0343 29.4158L15.963 29.3781L15.892 29.3397L15.8213 29.3005L15.751 29.2606L15.6809 29.2199L15.6113 29.1785L15.542 29.1364L15.4731 29.0935L15.4045 29.0499L15.3363 29.0056L15.2685 28.9605L15.2011 28.9147L15.1342 28.8682L15.0676 28.821L15.0014 28.7731L14.9357 28.7244L14.8704 28.6751L14.8056 28.6251L14.7412 28.5743L14.6773 28.5229L14.6138 28.4708L14.5508 28.418L14.4883 28.3645L14.4263 28.3103L14.3648 28.2555L14.3038 28.2L14.2433 28.1438L14.1833 28.087L14.1239 28.0295L14.0649 27.9714L14.0066 27.9126L13.9488 27.8532L13.8915 27.7931L13.8348 27.7325L13.7787 27.6711L13.7232 27.6092L13.6682 27.5467L13.6139 27.4835L13.5601 27.4198L13.5069 27.3554L13.4544 27.2904L13.4025 27.2249L13.3512 27.1588L13.3005 27.0921L13.2505 27.0248L13.2012 26.957L13.1525 26.8886L13.1044 26.8196L13.057 26.7501L13.0103 26.6801L12.9643 26.6095L12.919 26.5384L12.8743 26.4668L12.8304 26.3947L12.7871 26.322L12.7446 26.2489L12.7028 26.1752L12.6617 26.1011L12.6213 26.0265L12.5817 25.9514L12.5428 25.8758L12.5046 25.7998L12.4672 25.7234L12.4306 25.6464L12.3947 25.5691L12.3596 25.4913L12.3253 25.4131L12.2917 25.3344L12.2589 25.2554L12.2269 25.1759L12.1957 25.0961L12.1653 25.0158L12.1358 24.9352L12.107 24.8542L12.079 24.7729L12.0518 24.6912L12.0255 24.6091L12 24.5267L11.9753 24.444L11.9514 24.3609L11.9284 24.2775L11.9063 24.1938L11.8849 24.1098L11.8645 24.0255L11.8449 23.941L11.8261 23.8561L11.8082 23.771L11.7912 23.6856L11.775 23.6L11.7597 23.5141L11.7453 23.428L11.7318 23.3417L11.7191 23.2551L11.7073 23.1684L11.6965 23.0814L11.6865 22.9943L11.6774 22.9069L11.6692 22.8194L11.6619 22.7317L11.6555 22.6439L11.65 22.5559L11.6454 22.4678L11.6417 22.3796L11.6389 22.2912L11.6371 22.2027L11.6362 22.1142L11.6361 22.0255L11.637 21.9367L11.6389 21.8479L11.6416 21.759L11.6453 21.67L11.6499 21.581L11.6554 21.492L11.6618 21.4029L11.6692 21.3138L11.6775 21.2247L11.6867 21.1356L11.6969 21.0465L11.708 20.9574L11.72 20.8684L11.733 20.7794L11.7469 20.6904L11.7618 20.6015L11.7775 20.5126L11.7942 20.4238L11.8119 20.3351L11.8305 20.2465L11.85 20.158L11.8704 20.0696L11.8918 19.9814L11.9141 19.8932L11.9374 19.8052L11.9616 19.7174L11.9867 19.6297L12.0127 19.5421L12.0397 19.4548L12.0676 19.3676L12.0964 19.2806L12.1262 19.1939L12.1569 19.1073L12.1885 19.021L12.221 18.9349L12.2545 18.8491L12.2889 18.7635L12.3242 18.6781L12.3604 18.5931L12.3975 18.5083L12.4356 18.4238L12.4745 18.3396L12.5144 18.2557L12.5551 18.1722L12.5968 18.0889L12.6393 18.006L12.6828 17.9235L12.7271 17.8413L12.7724 17.7595L12.8185 17.678L12.8655 17.5969L12.9134 17.5163L12.9622 17.436L13.0118 17.3561L13.0624 17.2767L13.1138 17.1976L13.166 17.119L13.2191 17.0409L13.2731 16.9632L13.3279 16.886L13.3836 16.8093L13.4401 16.733L13.4974 16.6572L13.5556 16.582L13.6146 16.5072L13.6745 16.433L13.7352 16.3592L13.7966 16.2861L13.8589 16.2134L13.922 16.1413L13.9859 16.0698L14.0506 15.9988L14.1161 15.9285L14.1824 15.8587L14.2495 15.7895L14.3173 15.7209L14.3859 15.6529L14.4553 15.5855L14.5254 15.5188L14.5963 15.4527L14.6679 15.3872L14.7402 15.3224L14.8133 15.2582L14.8872 15.1948L14.9617 15.1319L15.037 15.0698L15.1129 15.0084L15.1896 14.9476L15.2669 14.8876L15.345 14.8283L15.4237 14.7697L15.5031 14.7118L15.5832 14.6547L15.6639 14.5983L15.7453 14.5426L15.8274 14.4877L15.91 14.4336L15.9933 14.3803L16.0773 14.3277L16.1618 14.2759L16.247 14.2249L16.3327 14.1747L16.4191 14.1253L16.506 14.0767L16.5935 14.0289L16.6816 13.982L16.7702 13.9359L16.8594 13.8906L16.9491 13.8462L17.0394 13.8026L17.1302 13.7599L17.2215 13.718L17.3133 13.677L17.4056 13.6369L17.4985 13.5976L17.5918 13.5592L17.6855 13.5218L17.7798 13.4852L17.8745 13.4495L17.9696 13.4147L18.0652 13.3809L18.1613 13.3479L18.2577 13.3159L18.3546 13.2848L18.4518 13.2546L18.5495 13.2254L18.6475 13.1971L18.7459 13.1698L18.8447 13.1434L18.9438 13.1179L19.0433 13.0934L19.1431 13.0699L19.2433 13.0474L19.3437 13.0258L19.4445 13.0052L19.5455 12.9856L19.5962 12.9762ZM20.8381 20.2365L19.6855 20.5119L19.6178 14.8024L19.5635 14.8146L19.4817 14.8339L19.4 14.854L19.3189 14.8748L19.2379 14.8964L19.1574 14.9188L19.0769 14.9421L18.9972 14.9659L18.9173 14.9907L18.8384 15.016L18.7593 15.0423L18.6807 15.0693L18.6025 15.097L18.5246 15.1254L18.4474 15.1545L18.3703 15.1845L18.2936 15.2151L18.2174 15.2464L18.1413 15.2786L18.0662 15.3112L17.9911 15.3448L17.9167 15.3789L17.8424 15.4139L17.7688 15.4494L17.6954 15.4857L17.6228 15.5226L17.5505 15.5602L17.4787 15.5985L17.4074 15.6374L17.3365 15.677L17.2661 15.7173L17.1965 15.7581L17.1268 15.7998L17.058 15.8419L16.9898 15.8847L16.922 15.9281L16.8546 15.9722L16.7879 16.0169L16.7217 16.0622L16.656 16.108L16.591 16.1544L16.5263 16.2015L16.4623 16.2492L16.3989 16.2974L16.336 16.3462L16.2738 16.3954L16.2122 16.4453L16.151 16.4958L16.0904 16.5469L16.0306 16.5983L15.9713 16.6504L15.9126 16.7029L15.8545 16.756L15.797 16.8097L15.7402 16.8638L15.684 16.9183L15.6283 16.9735L15.5734 17.029L15.5191 17.0851L15.4655 17.1415L15.4123 17.1987L15.36 17.256L15.3083 17.3139L15.2572 17.3723L15.2069 17.4309L15.1571 17.4902L15.1082 17.5496L15.0597 17.6098L15.0121 17.6701L14.965 17.731L14.9187 17.7923L14.8731 17.8538L14.8281 17.9157L14.7839 17.978L14.7403 18.0408L14.6974 18.1038L14.6553 18.1673L14.6139 18.2309L14.5732 18.2949L14.5331 18.3594L14.4939 18.424L14.4552 18.4892L14.4174 18.5543L14.3802 18.62L14.3437 18.6859L14.3081 18.752L14.2731 18.8184L14.2389 18.8851L14.2053 18.9522L14.1726 19.0192L14.1405 19.0868L14.1092 19.1544L14.0787 19.2223L14.0488 19.2904L14.0197 19.3588L13.9914 19.4272L13.9638 19.496L13.937 19.5649L13.9108 19.634L13.8855 19.7031L13.8609 19.7726L13.837 19.8422L13.8139 19.9119L13.7915 19.9817L13.7699 20.0518L13.749 20.1219L13.729 20.192L13.7096 20.2624L13.6909 20.3329L13.6731 20.4034L13.656 20.474L13.6396 20.5447L13.624 20.6155L13.6092 20.6864L13.5951 20.7572L13.5817 20.8281L13.5691 20.8992L13.5573 20.9701L13.5462 21.0411L13.5358 21.1123L13.5262 21.1832L13.5174 21.2544L13.5093 21.3253L13.5019 21.3964L13.4953 21.4676L13.4894 21.5385L13.4843 21.6095L13.4799 21.6805L13.4762 21.7513L13.4733 21.8221L13.4711 21.8928L13.4697 21.9636L13.4689 22.0342L13.469 22.1047L13.4697 22.1751L13.4712 22.2455L13.4734 22.3157L13.4763 22.3858L13.4799 22.4558L13.4843 22.5256L13.4894 22.5953L13.4952 22.6649L13.5017 22.7343L13.5089 22.8037L13.5168 22.8726L13.5254 22.9417L13.5347 23.0103L13.5448 23.079L13.5555 23.1473L13.5669 23.2155L13.579 23.2836L13.5918 23.3513L13.6053 23.4189L13.6194 23.4861L13.6343 23.5533L13.6498 23.6201L13.666 23.6868L13.6828 23.753L13.7004 23.8193L13.7185 23.885L13.7373 23.9507L13.7568 24.0159L13.7769 24.081L13.7977 24.1457L13.8191 24.21L13.8412 24.2743L13.8639 24.3381L13.8872 24.4015L13.9111 24.4648L13.9357 24.5277L13.9609 24.5902L13.9867 24.6524L14.013 24.7142L14.0401 24.7758L14.0677 24.837L14.0959 24.8978L14.1247 24.9582L14.154 25.0182L14.1841 25.0781L14.2145 25.1373L14.2456 25.1962L14.2773 25.2548L14.3096 25.3129L14.3424 25.3707L14.3757 25.4281L14.4096 25.4849L14.4441 25.5415L14.479 25.5976L14.5145 25.6532L14.5506 25.7085L14.5871 25.7633L14.6242 25.8178L14.6617 25.8715L14.6998 25.9251L14.7384 25.9781L14.7774 26.0306L14.8171 26.0828L14.8571 26.1344L14.8976 26.1855L14.9386 26.2362L14.9801 26.2865L15.0219 26.3361L15.0644 26.3854L15.1072 26.4342L15.1504 26.4824L15.1943 26.5302L15.2383 26.5773L15.2829 26.6242L15.3279 26.6704L15.3732 26.7161L15.4191 26.7613L15.4653 26.806L15.5119 26.8502L15.5589 26.8938L15.6063 26.9369L15.6541 26.9795L15.7022 27.0215L15.7507 27.063L15.7995 27.104L15.8487 27.1444L15.8983 27.1843L15.9483 27.2236L15.9984 27.2623L16.049 27.3005L16.0999 27.3382L16.1511 27.3753L16.2026 27.4118L16.2544 27.4478L16.3065 27.4832L16.3589 27.518L16.4115 27.5522L16.4644 27.5859L16.5178 27.6191L16.5712 27.6515L16.6249 27.6835L16.679 27.7149L16.7331 27.7456L16.7875 27.7758L16.8424 27.8055L16.8973 27.8345L16.9524 27.8629L17.0077 27.8907L17.0634 27.918L17.119 27.9446L17.1751 27.9707L17.2312 27.9962L17.2874 28.021L17.344 28.0453L17.4007 28.069L17.4574 28.0921L17.5144 28.1146L17.5715 28.1364L17.6289 28.1577L17.6861 28.1784L17.7438 28.1985L17.8013 28.2179L17.859 28.2368L17.9169 28.2551L17.9749 28.2728L18.0329 28.2898L18.091 28.3063L18.1493 28.3221L18.2076 28.3374L18.2659 28.352L18.3243 28.3661L18.3827 28.3795L18.4412 28.3923L18.4998 28.4046L18.5584 28.4162L18.617 28.4273L18.6756 28.4377L18.7343 28.4476L18.793 28.4568L18.8517 28.4655L18.9102 28.4735L18.9689 28.4809L19.0275 28.4878L19.0862 28.4941L19.1448 28.4997L19.2034 28.5048L19.2619 28.5093L19.3203 28.5132L19.3788 28.5165L19.4371 28.5192L19.4953 28.5214L19.5537 28.5229L19.6117 28.5239L19.6697 28.5243L19.7277 28.5241L19.7855 28.5234L19.8434 28.522L19.9011 28.5201L19.9585 28.5177L20.0159 28.5146L20.0734 28.511L20.1304 28.5068L20.1875 28.5021L20.2443 28.4968L20.3011 28.491L20.3577 28.4845L20.414 28.4776L20.4704 28.4701L20.5264 28.462L20.5822 28.4534L20.6381 28.4443L20.6936 28.4346L20.7489 28.4244L20.8041 28.4136L20.8591 28.4023L20.9137 28.3905L20.9681 28.3782L21.0225 28.3653L21.0766 28.3519L21.1304 28.3381L21.184 28.3237L21.2373 28.3088L21.2906 28.2933L21.3434 28.2774L21.3958 28.261L21.4484 28.244L21.5004 28.2266L21.5522 28.2088L21.6037 28.1904L21.6549 28.1715L21.706 28.1521L21.7567 28.1323L21.807 28.112L21.8571 28.0913L21.9069 28.07L21.9565 28.0483L22.0055 28.0262L22.0545 28.0036L22.103 27.9806L22.1511 27.9571L22.1991 27.9332L22.2465 27.9089L22.2938 27.8841L22.3407 27.8588L22.3872 27.8332L22.4333 27.8072L22.4792 27.7807L22.5247 27.7538L22.5697 27.7265L22.6144 27.6988L22.6588 27.6707L22.7028 27.6423L22.7465 27.6134L22.7897 27.5842L22.8326 27.5545L22.8751 27.5245L22.9171 27.4942L22.9588 27.4634L23.0001 27.4323L23.041 27.4008L23.0815 27.369L23.1217 27.3368L23.1613 27.3044L23.2006 27.2716L23.2394 27.2384L23.2778 27.2049L23.3159 27.1711L23.3535 27.1369L23.3907 27.1025L23.4273 27.0678L23.4637 27.0327L23.4996 26.9973L23.5351 26.9617L23.5701 26.9258L23.6046 26.8895L23.6387 26.8531L23.6725 26.8162L23.7056 26.7793L23.7385 26.7419L23.7708 26.7043L23.8026 26.6666L23.8342 26.6284L23.865 26.5902L23.8956 26.5516L23.9257 26.5129L23.9552 26.4739L23.9844 26.4346L24.013 26.3953L24.0412 26.3555L24.069 26.3156L24.0962 26.2757L24.123 26.2353L24.1494 26.1949L24.1751 26.1543L24.2005 26.1135L24.2254 26.0725L24.2498 26.0313L24.2738 25.99L24.2972 25.9485L24.3202 25.9069L24.3427 25.865L24.3647 25.8232L24.3862 25.7811L24.4073 25.7389L24.4279 25.6966L24.448 25.654L24.4676 25.6115L24.4867 25.5688L24.5053 25.5261L24.5235 25.4831L24.5411 25.4402L24.5584 25.3969L24.575 25.354L24.5913 25.3104L24.6069 25.2675L24.6222 25.2239L24.637 25.1803L24.6512 25.1369L24.665 25.0933L24.6783 25.0498L24.6912 25.0058L24.7034 24.9624L24.7154 24.9183L24.7267 24.8749L24.7376 24.8309L24.748 24.7869L24.7579 24.7432L24.7673 24.6996L24.7763 24.6554L24.7848 24.6117L24.7928 24.5676L24.8003 24.524L24.8074 24.4802L24.814 24.4363L24.8201 24.3924L24.8257 24.3486L24.8309 24.305L24.8356 24.2615L24.8398 24.2176L24.8436 24.1741L24.8469 24.1305L24.8497 24.087L24.8521 24.0436L24.854 24.0003L24.8554 23.9572L24.8564 23.9138L24.857 23.8705L24.8571 23.8276L24.8567 23.7847L24.8559 23.7419L24.8546 23.6992L24.8529 23.6563L24.8507 23.6142L24.8481 23.5712L24.8451 23.5293L24.8416 23.4872L24.8377 23.4448L24.8333 23.4029L24.8286 23.3614L24.8233 23.3193L24.8177 23.2781L24.8116 23.2366L24.8052 23.1957L24.7982 23.1544L24.7909 23.1134L24.7832 23.0728L24.7751 23.0323L24.7665 22.9917L24.7575 22.9516L24.7482 22.9115L24.7384 22.8717L24.7283 22.8322L24.7176 22.7924L24.7068 22.7534L24.6954 22.714L24.6837 22.6753L24.6716 22.6366L24.6591 22.5982L24.6462 22.5599L24.6329 22.5217L24.6194 22.4841L24.6054 22.4466L24.591 22.409L24.5763 22.372L24.5612 22.3348L24.5459 22.2985L24.53 22.2618L24.514 22.2257L24.4975 22.1899L24.4807 22.1541L24.4636 22.1187L24.4461 22.0835L24.4283 22.0485L24.4102 22.0139L24.3917 21.9795L24.373 21.9454L24.3539 21.9115L24.3344 21.8779L24.3148 21.8446L24.2948 21.8116L24.2744 21.7787L24.2538 21.7464L24.2329 21.7142L24.2117 21.6823L24.1902 21.6506L24.1685 21.6194L24.1464 21.5883L24.1241 21.5576L24.1015 21.5272L24.0786 21.4971L24.0556 21.4673L24.0321 21.4377L24.0085 21.4086L23.9846 21.3797L23.9605 21.3511L23.9361 21.3228L23.9116 21.2949L23.8867 21.2673L23.8616 21.24L23.8363 21.2129L23.8108 21.1863L23.785 21.16L23.759 21.1339L23.7329 21.1083L23.7065 21.083L23.68 21.058L23.653 21.0332L23.6262 21.0089L23.599 20.9848L23.5717 20.9612L23.5441 20.9378L23.5164 20.9149L23.4885 20.8922L23.4605 20.8699L23.4323 20.8479L23.4039 20.8262L23.3754 20.805L23.3467 20.784L23.3178 20.7634L23.2889 20.7432L23.2598 20.7232L23.2306 20.7037L23.2012 20.6845L23.1716 20.6656L23.1421 20.6471L23.1122 20.6289L23.0824 20.6111L23.0525 20.5937L23.0224 20.5766L22.9921 20.5598L22.9619 20.5434L22.9316 20.5273L22.9011 20.5116L22.8707 20.4963L22.8399 20.4812L22.8093 20.4666L22.7785 20.4524L22.7477 20.4384L22.7168 20.4248L22.6857 20.4115L22.6549 20.3987L22.6237 20.3862L22.5925 20.374L22.5614 20.3622L22.5302 20.3507L22.499 20.3396L22.4677 20.3288L22.4364 20.3183L22.4052 20.3083L22.3738 20.2985L22.3424 20.2891L22.3112 20.2801L22.2796 20.2714L22.2484 20.2631L22.217 20.2551L22.1856 20.2474L22.1542 20.2401L22.1229 20.2331L22.0915 20.2265L22.0602 20.2202L22.029 20.2142L21.9978 20.2086L21.9664 20.2033L21.9354 20.1984L21.904 20.1938L21.8731 20.1895L21.8419 20.1855L21.8109 20.1819L21.7801 20.1786L21.7491 20.1757L21.7183 20.173L21.6875 20.1707L21.6568 20.1687L21.6261 20.167L21.5955 20.1657L21.5652 20.1647L21.5347 20.1639L21.5044 20.1635L21.4741 20.1634L21.444 20.1637L21.4139 20.1642L21.384 20.165L21.3541 20.1662L21.3245 20.1676L21.2947 20.1694L21.2653 20.1714L21.2359 20.1737L21.2066 20.1764L21.1775 20.1793L21.1483 20.1825L21.1195 20.186L21.0907 20.1898L21.0621 20.1939L21.0335 20.1983L21.0052 20.2029L20.9769 20.2078L20.949 20.213L20.9209 20.2185L20.8932 20.2242L20.8655 20.2302L20.8381 20.2365Z" fill="#7C3AED"/>
<path d="M62.64 34.8799C60.6 34.8799 58.8233 34.5666 57.31 33.9399C55.8033 33.3133 54.63 32.3833 53.79 31.1499C52.9433 29.9166 52.4967 28.3999 52.45 26.5999H57.53C57.5967 27.4599 57.8533 28.1766 58.3 28.7499C58.74 29.3233 59.33 29.7533 60.07 30.0399C60.8167 30.3266 61.6567 30.4699 62.59 30.4699C63.5233 30.4699 64.3333 30.3366 65.02 30.0699C65.7133 29.7966 66.2533 29.4166 66.64 28.9299C67.0267 28.4366 67.22 27.8666 67.22 27.2199C67.22 26.6399 67.0467 26.1533 66.7 25.7599C66.3533 25.3666 65.8533 25.0266 65.2 24.7399C64.5533 24.4533 63.7633 24.2033 62.83 23.9899L60.02 23.2899C57.8667 22.7633 56.18 21.9399 54.96 20.8199C53.7467 19.6999 53.14 18.2166 53.14 16.3699C53.14 14.8299 53.5533 13.4833 54.38 12.3299C55.2 11.1833 56.3333 10.2899 57.78 9.64994C59.22 9.00994 60.8633 8.68994 62.71 8.68994C64.59 8.68994 66.23 9.01327 67.63 9.65994C69.03 10.3066 70.1233 11.1999 70.91 12.3399C71.6967 13.4866 72.1 14.8066 72.12 16.2999H67.08C66.9867 15.2733 66.55 14.4799 65.77 13.9199C64.99 13.3666 63.9533 13.0899 62.66 13.0899C61.78 13.0899 61.0267 13.2133 60.4 13.4599C59.7733 13.7133 59.2933 14.0599 58.96 14.4999C58.6333 14.9466 58.47 15.4566 58.47 16.0299C58.47 16.6566 58.66 17.1766 59.04 17.5899C59.42 18.0033 59.92 18.3399 60.54 18.5999C61.1667 18.8533 61.8367 19.0666 62.55 19.2399L64.86 19.7999C65.9333 20.0399 66.93 20.3666 67.85 20.7799C68.77 21.1866 69.58 21.6899 70.28 22.2899C70.9733 22.8899 71.51 23.5999 71.89 24.4199C72.27 25.2399 72.46 26.1833 72.46 27.2499C72.46 28.7899 72.0733 30.1333 71.3 31.2799C70.5267 32.4266 69.4067 33.3133 67.94 33.9399C66.4667 34.5666 64.7 34.8799 62.64 34.8799ZM85.04 34.4999H79.21L72.17 15.3899H77.62L80.84 25.3099C81.2267 26.5499 81.5633 27.8033 81.85 29.0699C82.1433 30.3299 82.4433 31.6399 82.75 32.9999H81.66C81.9533 31.6399 82.2433 30.3299 82.53 29.0699C82.8167 27.8033 83.1533 26.5499 83.54 25.3099L86.72 15.3899H92.1L85.04 34.4999ZM101.09 34.8799C99.1767 34.8799 97.5167 34.4666 96.11 33.6399C94.71 32.8133 93.63 31.6599 92.87 30.1799C92.1167 28.7066 91.74 26.9899 91.74 25.0299C91.74 23.0499 92.1167 21.3233 92.87 19.8499C93.63 18.3699 94.71 17.2166 96.11 16.3899C97.5167 15.5633 99.1767 15.1499 101.09 15.1499C103.01 15.1499 104.67 15.5633 106.07 16.3899C107.463 17.2166 108.54 18.3699 109.3 19.8499C110.053 21.3233 110.43 23.0499 110.43 25.0299C110.43 26.9899 110.053 28.7066 109.3 30.1799C108.54 31.6599 107.463 32.8133 106.07 33.6399C104.67 34.4666 103.01 34.8799 101.09 34.8799ZM101.09 30.8399C101.997 30.8399 102.76 30.5866 103.38 30.0799C103.993 29.5733 104.453 28.8799 104.76 27.9999C105.067 27.1133 105.22 26.1199 105.22 25.0199C105.22 23.8866 105.067 22.8833 104.76 22.0099C104.453 21.1299 103.993 20.4399 103.38 19.9399C102.76 19.4399 101.997 19.1899 101.09 19.1899C100.177 19.1899 99.4133 19.4399 98.8 19.9399C98.1933 20.4399 97.7367 21.1299 97.43 22.0099C97.1233 22.8833 96.97 23.8866 96.97 25.0199C96.97 26.1199 97.1233 27.1133 97.43 27.9999C97.7367 28.8799 98.1933 29.5733 98.8 30.0799C99.4133 30.5866 100.177 30.8399 101.09 30.8399ZM111.73 9.03994H116.86V34.4999H111.73V9.03994ZM130.15 34.4999H124.32L117.28 15.3899H122.73L125.95 25.3099C126.337 26.5499 126.673 27.8033 126.96 29.0699C127.253 30.3299 127.553 31.6399 127.86 32.9999H126.77C127.063 31.6399 127.353 30.3299 127.64 29.0699C127.927 27.8033 128.263 26.5499 128.65 25.3099L131.83 15.3899H137.21L130.15 34.4999ZM146.28 34.8799C144.333 34.8799 142.653 34.4799 141.24 33.6799C139.827 32.8799 138.743 31.7466 137.99 30.2799C137.23 28.8066 136.85 27.0633 136.85 25.0499C136.85 23.0766 137.227 21.3499 137.98 19.8699C138.727 18.3899 139.79 17.2333 141.17 16.3999C142.55 15.5666 144.17 15.1499 146.03 15.1499C147.283 15.1499 148.45 15.3499 149.53 15.7499C150.61 16.1499 151.56 16.7533 152.38 17.5599C153.2 18.3599 153.843 19.3633 154.31 20.5699C154.77 21.7766 155 23.1999 155 24.8399V26.2799H138.95V23.0699H152.49L150.09 23.9199C150.09 22.9266 149.94 22.0633 149.64 21.3299C149.34 20.5966 148.89 20.0266 148.29 19.6199C147.69 19.2199 146.947 19.0199 146.06 19.0199C145.18 19.0199 144.43 19.2233 143.81 19.6299C143.19 20.0433 142.72 20.5999 142.4 21.2999C142.08 21.9999 141.92 22.7999 141.92 23.6999V25.9699C141.92 27.0766 142.107 28.0066 142.48 28.7599C142.853 29.5133 143.373 30.0766 144.04 30.4499C144.707 30.8233 145.483 31.0099 146.37 31.0099C146.97 31.0099 147.517 30.9266 148.01 30.7599C148.497 30.5866 148.913 30.3333 149.26 29.9999C149.613 29.6599 149.88 29.2466 150.06 28.7599L154.71 29.6299C154.403 30.6766 153.867 31.5966 153.1 32.3899C152.34 33.1833 151.387 33.7966 150.24 34.2299C149.093 34.6633 147.773 34.8799 146.28 34.8799Z" fill="#111111"/>
</svg>
