<svg width="740" height="740" viewBox="0 0 740 740" fill="none" xmlns="http://www.w3.org/2000/svg">
<rect width="740" height="740" fill="url(#paint0_linear_186_24)"/>
<g clip-path="url(#clip0_186_24)">
<path d="M414 150H326V282.695C325.629 306.677 306.073 326 282.005 326H150V414H245.549C268.888 414 291.272 404.728 307.774 388.226L388.226 307.774C404.728 291.272 414 268.888 414 245.549V150Z" fill="white"/>
<path d="M326 590H414V457.305C414.371 433.323 433.927 414 457.995 414H590V326H494.451C471.112 326 448.728 335.272 432.226 351.774L351.774 432.226C335.272 448.728 326 471.112 326 494.451V590Z" fill="white"/>
</g>
<defs>
<linearGradient id="paint0_linear_186_24" x1="370" y1="0" x2="370" y2="740" gradientUnits="userSpaceOnUse">
<stop stop-color="#7F22FE"/>
<stop offset="1" stop-color="#4C1498"/>
</linearGradient>
<clipPath id="clip0_186_24">
<rect width="440" height="440" fill="white" transform="translate(150 150)"/>
</clipPath>
</defs>
</svg>
