<svg width="740" height="740" viewBox="0 0 740 740" fill="none" xmlns="http://www.w3.org/2000/svg">
<rect width="740" height="740" fill="url(#paint0_linear_186_24)"/>
<path fill-rule="evenodd" clip-rule="evenodd" d="M151.702 375.356L151.724 373.098L151.769 370.838L151.837 368.579L151.928 366.32L152.043 364.061L152.181 361.801L152.342 359.543L152.526 357.285L152.734 355.028L152.965 352.771L153.219 350.517L153.496 348.264L153.796 346.012L154.12 343.763L154.467 341.516L154.837 339.273L155.231 337.03L155.647 334.792L156.087 332.557L156.549 330.324L157.035 328.096L157.544 325.871L158.076 323.651L158.631 321.435L159.209 319.224L159.81 317.017L160.434 314.815L161.08 312.619L161.75 310.428L162.442 308.243L163.156 306.064L163.894 303.89L164.654 301.723L165.437 299.563L166.242 297.41L167.069 295.263L167.919 293.124L168.791 290.992L169.685 288.869L170.602 286.753L171.54 284.645L172.501 282.546L173.483 280.455L174.488 278.373L175.514 276.3L176.562 274.236L177.631 272.182L178.722 270.137L179.834 268.103L180.967 266.078L182.122 264.063L183.298 262.06L184.495 260.067L185.713 258.085L186.951 256.114L188.211 254.154L189.491 252.207L190.791 250.27L192.112 248.346L193.453 246.434L194.814 244.534L196.195 242.648L197.597 240.773L199.017 238.912L200.458 237.064L201.918 235.229L203.397 233.408L204.896 231.601L206.414 229.808L207.951 228.029L209.506 226.264L211.081 224.514L212.674 222.778L214.285 221.058L215.915 219.353L217.562 217.663L219.228 215.988L220.912 214.329L222.613 212.686L224.332 211.059L226.068 209.448L227.821 207.854L229.591 206.276L231.378 204.715L233.182 203.171L235.003 201.644L236.839 200.134L238.692 198.641L240.561 197.166L242.446 195.709L244.346 194.27L246.263 192.849L248.194 191.446L250.14 190.061L252.101 188.695L254.078 187.348L256.068 186.019L258.073 184.71L260.092 183.419L262.127 182.148L264.173 180.897L266.235 179.664L268.308 178.452L270.395 177.26L272.496 176.087L274.609 174.935L276.735 173.802L278.873 172.691L281.023 171.599L283.186 170.529L285.36 169.479L287.546 168.45L289.743 167.442L291.952 166.455L294.171 165.489L296.402 164.545L298.642 163.623L300.893 162.722L303.154 161.842L305.425 160.985L307.705 160.149L309.995 159.335L312.295 158.544L314.603 157.774L316.919 157.027L319.244 156.303L321.579 155.6L323.921 154.921L326.27 154.264L328.628 153.63L330.992 153.019L333.364 152.43L335.742 151.865L338.128 151.323L340.52 150.804L342.917 150.308L345.322 149.835L347.732 149.386L350.147 148.96L352.568 148.558L354.994 148.179L357.424 147.824L359.859 147.493L362.298 147.185L364.741 146.901L367.189 146.641L369.639 146.404L372.093 146.192L374.55 146.004L377.01 145.839L390.237 145.085L390.991 208.736L391.424 208.731L393.25 208.728L395.077 208.743L396.903 208.777L398.732 208.828L400.56 208.897L402.389 208.984L404.217 209.089L406.046 209.212L407.874 209.353L409.703 209.512L411.529 209.69L413.356 209.885L415.18 210.098L417.004 210.329L418.827 210.578L420.647 210.845L422.466 211.13L424.284 211.433L426.098 211.754L427.911 212.094L429.72 212.451L431.527 212.826L433.332 213.218L435.132 213.629L436.93 214.058L438.725 214.504L440.515 214.968L442.301 215.45L444.084 215.95L445.863 216.468L447.636 217.003L449.405 217.556L451.17 218.127L452.93 218.715L454.684 219.321L456.433 219.944L458.177 220.584L459.915 221.243L461.646 221.918L463.373 222.611L465.092 223.321L466.805 224.048L468.512 224.793L470.212 225.554L471.904 226.333L473.59 227.129L475.268 227.941L476.939 228.771L478.602 229.617L480.257 230.48L481.904 231.359L483.544 232.256L485.174 233.168L486.796 234.098L488.41 235.043L490.014 236.005L491.609 236.983L493.196 237.977L494.772 238.988L496.339 240.013L497.896 241.056L499.444 242.114L500.98 243.186L502.508 244.276L504.024 245.38L505.529 246.5L507.025 247.636L508.509 248.787L509.982 249.953L511.443 251.133L512.894 252.329L514.332 253.54L515.76 254.765L517.176 256.004L518.579 257.259L519.969 258.527L521.348 259.811L522.714 261.108L524.068 262.418L525.408 263.743L526.736 265.082L528.05 266.435L529.352 267.801L530.64 269.18L531.914 270.573L533.175 271.979L534.421 273.398L535.654 274.83L536.873 276.275L538.078 277.732L539.268 279.202L540.444 280.684L541.605 282.178L542.751 283.685L543.882 285.204L544.998 286.734L546.099 288.277L547.185 289.831L548.255 291.395L549.31 292.971L550.349 294.559L551.373 296.158L552.379 297.767L553.371 299.386L554.345 301.017L555.304 302.657L556.246 304.308L557.173 305.969L558.082 307.64L558.974 309.32L559.85 311.011L560.708 312.71L561.55 314.418L562.375 316.137L563.183 317.863L563.972 319.598L564.745 321.342L565.5 323.095L566.237 324.856L566.956 326.624L567.658 328.401L568.342 330.185L569.008 331.977L569.655 333.776L570.285 335.583L570.896 337.396L571.49 339.217L572.064 341.044L572.62 342.877L573.157 344.717L573.676 346.563L574.176 348.416L574.658 350.274L575.119 352.136L575.564 354.006L575.988 355.88L576.393 357.759L576.78 359.642L577.146 361.532L577.494 363.425L577.823 365.323L578.133 367.224L578.422 369.129L578.693 371.039L578.944 372.951L579.175 374.868L579.387 376.787L579.579 378.709L579.751 380.634L579.905 382.562L580.038 384.492L580.151 386.425L580.244 388.358L580.319 390.295L580.372 392.232L580.407 394.172L580.421 396.112L580.415 398.054L580.389 399.996L580.343 401.94L580.277 403.883L580.191 405.826L580.087 407.77L579.96 409.714L579.815 411.658L579.649 413.6L579.463 415.543L579.257 417.485L579.031 419.424L578.785 421.363L578.519 423.3L578.233 425.236L577.927 427.17L577.601 429.101L577.255 431.03L576.889 432.957L576.503 434.882L576.097 436.803L575.671 438.721L575.225 440.636L574.76 442.548L574.274 444.455L573.769 446.359L573.244 448.258L572.699 450.154L572.135 452.044L571.551 453.932L570.946 455.813L570.323 457.69L569.68 459.56L569.017 461.426L568.335 463.287L567.633 465.141L566.913 466.988L566.172 468.831L565.413 470.666L564.635 472.495L563.837 474.319L563.02 476.133L562.184 477.941L561.329 479.742L560.456 481.535L559.562 483.321L558.652 485.098L557.721 486.868L556.773 488.628L555.805 490.381L554.82 492.125L553.816 493.86L552.794 495.586L551.754 497.302L550.696 499.011L549.618 500.708L548.524 502.396L547.413 504.074L546.282 505.741L545.135 507.399L543.969 509.046L542.787 510.682L541.587 512.308L540.369 513.923L539.135 515.527L537.884 517.118L536.616 518.699L535.331 520.267L534.029 521.823L532.71 523.368L531.375 524.901L530.024 526.421L528.656 527.929L527.273 529.424L525.874 530.906L524.458 532.375L523.028 533.83L521.58 535.272L520.118 536.701L518.641 538.116L517.148 539.518L515.641 540.905L514.118 542.279L512.58 543.637L511.029 544.981L509.462 546.312L507.881 547.627L506.286 548.926L504.677 550.212L503.054 551.482L501.417 552.736L499.766 553.974L498.102 555.198L496.426 556.406L494.734 557.597L493.031 558.773L491.315 559.933L489.586 561.075L487.844 562.202L486.091 563.313L484.326 564.406L482.548 565.483L480.757 566.543L478.955 567.586L477.143 568.612L475.318 569.619L473.484 570.611L471.637 571.583L469.78 572.539L467.911 573.477L466.033 574.397L464.144 575.298L462.246 576.183L460.337 577.048L458.419 577.896L456.491 578.724L454.553 579.534L452.607 580.326L450.652 581.099L448.688 581.853L446.715 582.589L444.733 583.304L442.743 584.002L440.746 584.679L438.742 585.338L436.728 585.977L434.707 586.597L432.68 587.198L430.646 587.778L428.604 588.339L426.556 588.881L424.5 589.402L422.44 589.903L420.373 590.385L418.3 590.846L416.221 591.288L414.138 591.709L412.048 592.111L409.954 592.491L407.856 592.851L405.752 593.191L403.644 593.511L401.531 593.81L399.416 594.088L397.296 594.346L395.171 594.583L393.045 594.799L390.915 594.995L388.782 595.17L386.647 595.324L384.509 595.457L382.367 595.57L380.225 595.661L378.081 595.731L375.934 595.781L373.787 595.809L371.638 595.817L369.489 595.803L367.339 595.768L365.187 595.713L363.036 595.635L360.884 595.537L358.733 595.419L356.582 595.278L354.431 595.117L352.282 594.934L350.132 594.73L347.984 594.506L345.838 594.26L343.694 593.993L341.55 593.705L339.41 593.395L337.271 593.065L335.135 592.713L333.002 592.341L330.871 591.947L328.744 591.532L326.619 591.097L324.5 590.64L322.382 590.162L320.27 589.664L318.161 589.145L316.057 588.604L313.958 588.043L311.864 587.461L309.774 586.858L307.689 586.235L305.611 585.591L303.539 584.926L301.472 584.241L299.411 583.534L297.356 582.807L295.308 582.061L293.267 581.294L291.233 580.506L289.207 579.698L287.188 578.87L285.176 578.022L283.172 577.154L281.176 576.266L279.189 575.358L277.21 574.429L275.24 573.482L273.279 572.514L271.326 571.527L269.383 570.52L267.451 569.494L265.526 568.449L263.613 567.384L261.709 566.3L259.816 565.197L257.933 564.075L256.061 562.935L254.2 561.774L252.349 560.596L250.512 559.399L248.684 558.184L246.869 556.949L245.066 555.697L243.274 554.427L241.495 553.138L239.729 551.832L237.975 550.507L236.234 549.165L234.506 547.806L232.791 546.428L231.09 545.034L229.402 543.622L227.728 542.193L226.068 540.747L224.423 539.284L222.791 537.804L221.174 536.309L219.572 534.795L217.985 533.267L216.413 531.721L214.855 530.161L213.314 528.584L211.788 526.991L210.277 525.383L208.783 523.759L207.304 522.12L205.842 520.466L204.396 518.797L202.967 517.112L201.554 515.414L200.158 513.7L198.78 511.973L197.418 510.231L196.074 508.475L194.747 506.705L193.438 504.921L192.147 503.124L190.873 501.313L189.618 499.49L188.38 497.653L187.162 495.803L185.961 493.941L184.78 492.066L183.617 490.179L182.473 488.28L181.348 486.368L180.242 484.445L179.155 482.511L178.088 480.565L177.041 478.606L176.013 476.638L175.004 474.659L174.016 472.669L173.048 470.669L172.1 468.657L171.172 466.637L170.265 464.605L169.378 462.566L168.511 460.515L167.666 458.456L166.841 456.387L166.037 454.309L165.254 452.224L164.492 450.129L163.752 448.026L163.032 445.916L162.334 443.796L161.658 441.67L161.003 439.536L160.369 437.395L159.758 435.246L159.168 433.09L158.6 430.929L158.054 428.761L157.53 426.586L157.028 424.406L156.549 422.218L156.091 420.027L155.656 417.829L155.244 415.628L154.853 413.42L154.486 411.208L154.14 408.992L153.818 406.771L153.518 404.545L153.241 402.316L152.987 400.084L152.755 397.849L152.546 395.611L152.36 393.368L152.197 391.124L152.058 388.877L151.941 386.628L151.847 384.376L151.776 382.124L151.728 379.869L151.704 377.613L151.702 375.356ZM370.327 210.069L369.813 166.684L369.324 166.731L367.081 166.969L364.844 167.229L362.608 167.511L360.381 167.815L358.156 168.14L355.934 168.487L353.718 168.855L351.504 169.245L349.302 169.656L347.096 170.089L344.907 170.542L342.713 171.018L340.531 171.514L338.352 172.032L336.182 172.57L334.018 173.13L331.86 173.71L329.708 174.312L327.567 174.933L325.429 175.576L323.303 176.239L321.182 176.923L319.072 177.626L316.965 178.351L314.87 179.095L312.785 179.86L310.706 180.645L308.638 181.449L306.581 182.273L304.53 183.117L302.489 183.981L300.459 184.865L298.439 185.767L296.43 186.689L294.432 187.63L292.44 188.591L290.464 189.569L288.497 190.567L286.542 191.584L284.598 192.619L282.668 193.672L280.745 194.745L278.835 195.836L276.942 196.943L275.055 198.072L273.185 199.215L271.328 200.376L269.48 201.556L267.647 202.754L265.827 203.969L264.024 205.198L262.228 206.449L260.45 207.713L258.685 208.995L256.933 210.295L255.197 211.61L253.477 212.94L251.766 214.29L250.075 215.652L248.396 217.032L246.733 218.427L245.085 219.839L243.454 221.263L241.834 222.706L240.234 224.162L238.647 225.635L237.078 227.12L235.524 228.621L233.987 230.135L232.465 231.665L230.959 233.21L229.472 234.766L228.002 236.335L226.544 237.923L225.108 239.521L223.688 241.13L222.284 242.756L220.899 244.392L219.53 246.043L218.18 247.705L216.847 249.381L215.531 251.068L214.235 252.766L212.956 254.476L211.695 256.2L210.453 257.932L209.229 259.679L208.024 261.435L206.837 263.201L205.668 264.98L204.519 266.768L203.389 268.565L202.278 270.374L201.187 272.191L200.113 274.02L199.059 275.859L198.026 277.705L197.011 279.561L196.016 281.427L195.04 283.301L194.084 285.184L193.149 287.073L192.233 288.972L191.337 290.879L190.461 292.794L189.605 294.715L188.769 296.646L187.954 298.583L187.159 300.525L186.384 302.476L185.629 304.433L184.895 306.396L184.182 308.366L183.489 310.34L182.817 312.322L182.165 314.309L181.534 316.301L180.924 318.297L180.335 320.3L179.766 322.306L179.219 324.317L178.692 326.332L178.186 328.352L177.702 330.375L177.238 332.402L176.795 334.433L176.374 336.467L175.973 338.503L175.594 340.542L175.235 342.584L174.898 344.63L174.582 346.676L174.287 348.724L174.013 350.775L173.761 352.827L173.529 354.88L173.319 356.936L173.13 358.991L172.962 361.046L172.816 363.104L172.69 365.161L172.586 367.218L172.503 369.275L172.441 371.332L172.4 373.388L172.38 375.444L172.381 377.499L172.404 379.552L172.447 381.605L172.512 383.656L172.597 385.705L172.703 387.752L172.831 389.796L172.979 391.839L173.148 393.879L173.338 395.916L173.549 397.951L173.78 399.982L174.032 402.01L174.305 404.034L174.599 406.054L174.913 408.071L175.247 410.083L175.602 412.091L175.978 414.094L176.373 416.092L176.789 418.086L177.225 420.074L177.682 422.057L178.158 424.035L178.655 426.007L179.171 427.973L179.707 429.932L180.263 431.886L180.839 433.833L181.435 435.773L182.05 437.707L182.684 439.632L183.338 441.551L184.011 443.463L184.704 445.367L185.415 447.262L186.146 449.151L186.896 451.03L187.664 452.902L188.452 454.765L189.257 456.618L190.082 458.464L190.925 460.301L191.786 462.127L192.666 463.945L193.564 465.752L194.48 467.551L195.413 469.339L196.365 471.117L197.334 472.885L198.321 474.642L199.325 476.389L200.347 478.125L201.386 479.849L202.442 481.563L203.515 483.266L204.605 484.956L205.712 486.636L206.835 488.304L207.975 489.959L209.131 491.603L210.303 493.235L211.491 494.854L212.696 496.461L213.916 498.054L215.152 499.635L216.403 501.202L217.67 502.757L218.952 504.3L220.249 505.828L221.561 507.342L222.887 508.843L224.229 510.331L225.585 511.804L226.955 513.263L228.34 514.707L229.738 516.139L231.151 517.555L232.577 518.956L234.017 520.343L235.47 521.714L236.936 523.072L238.416 524.414L239.908 525.74L241.413 527.051L242.931 528.347L244.462 529.627L246.003 530.891L247.559 532.141L249.125 533.372L250.703 534.589L252.293 535.79L253.895 536.975L255.507 538.142L257.131 539.294L258.764 540.428L260.41 541.547L262.066 542.648L263.733 543.733L265.409 544.802L267.095 545.852L268.792 546.886L270.497 547.903L272.213 548.902L273.937 549.884L275.671 550.848L277.413 551.795L279.165 552.724L280.924 553.636L282.692 554.531L284.469 555.406L286.253 556.265L288.045 557.106L289.844 557.928L291.651 558.732L293.466 559.518L295.287 560.285L297.116 561.036L298.95 561.767L300.791 562.479L302.639 563.175L304.492 563.851L306.351 564.508L308.217 565.147L310.088 565.767L311.964 566.369L313.844 566.952L315.731 567.516L317.621 568.062L319.516 568.588L321.416 569.096L323.319 569.585L325.227 570.055L327.137 570.506L329.053 570.938L330.971 571.351L332.891 571.745L334.816 572.121L336.743 572.477L338.672 572.814L340.604 573.131L342.537 573.43L344.473 573.709L346.412 573.97L348.35 574.212L350.29 574.434L352.232 574.637L354.175 574.822L356.119 574.986L358.063 575.133L360.006 575.259L361.951 575.367L363.895 575.455L365.839 575.525L367.783 575.575L369.727 575.606L371.669 575.618L373.61 575.611L375.551 575.586L377.489 575.542L379.426 575.477L381.362 575.395L383.296 575.294L385.226 575.173L387.156 575.035L389.083 574.877L391.006 574.7L392.926 574.504L394.844 574.29L396.758 574.058L398.669 573.806L400.576 573.536L402.479 573.247L404.378 572.941L406.273 572.615L408.164 572.272L410.049 571.91L411.93 571.53L413.806 571.131L415.677 570.715L417.542 570.28L419.402 569.827L421.256 569.358L423.104 568.868L424.945 568.363L426.781 567.839L428.61 567.297L430.434 566.738L432.249 566.162L434.058 565.567L435.86 564.956L437.653 564.327L439.441 563.681L441.22 563.018L442.992 562.337L444.755 561.641L446.509 560.928L448.256 560.196L449.994 559.449L451.724 558.685L453.443 557.906L455.156 557.109L456.858 556.295L458.551 555.467L460.235 554.621L461.908 553.76L463.572 552.883L465.227 551.99L466.87 551.082L468.504 550.158L470.126 549.219L471.74 548.263L473.34 547.294L474.933 546.308L476.512 545.309L478.08 544.294L479.638 543.264L481.185 542.218L482.717 541.161L484.239 540.087L485.749 539L487.248 537.899L488.735 536.782L490.207 535.654L491.67 534.509L493.118 533.353L494.553 532.183L495.978 530.999L497.388 529.801L498.784 528.592L500.168 527.368L501.538 526.133L502.895 524.885L504.238 523.624L505.566 522.352L506.883 521.065L508.185 519.767L509.472 518.458L510.746 517.136L512.004 515.804L513.247 514.461L514.479 513.102L515.693 511.736L516.895 510.357L518.079 508.969L519.25 507.568L520.406 506.158L521.545 504.737L522.671 503.305L523.78 501.865L524.876 500.413L525.953 498.952L527.017 497.48L528.066 495.999L529.095 494.511L530.112 493.011L531.11 491.505L532.094 489.987L533.063 488.46L534.013 486.928L534.947 485.386L535.867 483.832L536.767 482.276L537.652 480.709L538.522 479.133L539.373 477.554L540.209 475.963L541.028 474.365L541.828 472.766L542.613 471.153L543.382 469.535L544.132 467.913L544.865 466.283L545.582 464.647L546.28 463.006L546.962 461.357L547.627 459.702L548.273 458.047L548.903 456.379L549.514 454.712L550.11 453.036L550.688 451.357L551.247 449.673L551.788 447.988L552.314 446.291L552.819 444.596L553.307 442.896L553.779 441.193L554.233 439.484L554.667 437.774L555.086 436.059L555.485 434.341L555.867 432.621L556.232 430.897L556.577 429.174L556.905 427.444L557.216 425.717L557.508 423.984L557.782 422.25L558.038 420.516L558.277 418.778L558.497 417.043L558.7 415.3L558.884 413.563L559.051 411.821L559.199 410.083L559.33 408.338L559.443 406.601L559.537 404.857L559.614 403.113L559.673 401.373L559.715 399.637L559.737 397.894L559.743 396.154L559.73 394.416L559.7 392.68L559.651 390.943L559.585 389.214L559.501 387.477L559.4 385.749L559.28 384.02L559.144 382.297L558.989 380.571L558.818 378.852L558.628 377.133L558.421 375.419L558.196 373.706L557.955 371.999L557.694 370.291L557.418 368.59L557.124 366.896L556.813 365.2L556.483 363.51L556.138 361.826L555.775 360.141L555.397 358.469L554.999 356.795L554.587 355.132L554.155 353.466L553.708 351.813L553.244 350.162L552.764 348.515L552.267 346.878L551.754 345.246L551.223 343.615L550.678 341.997L550.113 340.38L549.536 338.773L548.94 337.17L548.33 335.578L547.701 333.988L547.058 332.407L546.401 330.836L545.727 329.272L545.034 327.71L544.331 326.163L543.608 324.617L542.873 323.086L542.121 321.56L541.353 320.04L540.572 318.532L539.775 317.031L538.961 315.537L538.138 314.058L537.295 312.581L536.44 311.118L535.568 309.661L534.685 308.218L533.784 306.779L532.872 305.354L531.944 303.935L531.003 302.529L530.049 301.135L529.079 299.747L528.097 298.371L527.102 297.005L526.092 295.652L525.07 294.306L524.034 292.975L522.986 291.652L521.924 290.341L520.85 289.042L519.763 287.753L518.663 286.476L517.551 285.211L516.429 283.958L515.293 282.716L514.142 281.484L512.985 280.27L511.81 279.062L510.629 277.871L509.434 276.688L508.229 275.521L507.008 274.363L505.783 273.222L504.542 272.091L503.291 270.973L502.033 269.87L500.762 268.779L499.477 267.699L498.186 266.634L496.885 265.582L495.573 264.545L494.25 263.519L492.921 262.511L491.578 261.51L490.229 260.529L488.87 259.56L487.5 258.603L486.125 257.662L484.735 256.732L483.345 255.822L481.939 254.922L480.529 254.037L479.108 253.166L477.68 252.31L476.245 251.469L474.805 250.644L473.35 249.829L471.896 249.034L470.43 248.25L468.957 247.483L467.479 246.731L465.992 245.993L464.5 245.27L463.001 244.563L461.495 243.87L459.986 243.194L458.468 242.532L456.897 241.865L455.419 241.255L453.881 240.638L452.345 240.039L450.798 239.452L449.25 238.884L447.695 238.33L446.137 237.792L444.572 237.268L443.006 236.762L441.434 236.271L439.857 235.796L438.28 235.337L436.696 234.893L435.107 234.463L433.519 234.052L431.928 233.656L430.327 233.274L428.732 232.911L427.129 232.561L425.526 232.229L423.917 231.912L422.31 231.611L420.699 231.326L419.089 231.057L417.472 230.804L415.858 230.567L414.242 230.346L412.623 230.141L411.004 229.952L409.385 229.779L407.764 229.622L406.143 229.481L404.521 229.355L402.897 229.246L401.278 229.153L399.658 229.076L398.033 229.014L396.416 228.969L394.796 228.94L393.177 228.926L391.556 228.928L391.231 228.932L391.742 272.002L392.661 271.997L393.845 272.004L395.028 272.022L396.213 272.053L397.399 272.094L398.584 272.148L399.77 272.214L400.957 272.29L402.144 272.379L403.331 272.48L404.518 272.592L405.703 272.716L406.89 272.853L408.076 273L409.26 273.159L410.445 273.332L411.629 273.514L412.811 273.709L413.993 273.916L415.173 274.135L416.352 274.366L417.53 274.608L418.707 274.862L419.881 275.128L421.054 275.406L422.225 275.696L423.392 275.997L424.559 276.31L425.723 276.634L426.885 276.971L428.045 277.319L429.202 277.679L430.355 278.051L431.505 278.434L432.654 278.829L433.798 279.236L434.94 279.654L436.077 280.084L437.212 280.525L438.342 280.978L439.469 281.443L440.592 281.919L441.711 282.406L442.826 282.905L443.936 283.415L445.042 283.936L446.144 284.469L447.24 285.013L448.332 285.569L449.42 286.136L450.502 286.713L451.579 287.302L452.651 287.902L453.717 288.512L454.779 289.134L455.835 289.768L456.884 290.411L457.928 291.066L458.966 291.732L459.998 292.408L461.024 293.094L462.044 293.791L463.057 294.5L464.063 295.218L465.063 295.947L466.055 296.687L467.043 297.437L468.021 298.197L468.993 298.968L469.958 299.748L470.916 300.539L471.866 301.34L472.809 302.15L473.744 302.971L474.672 303.801L475.591 304.642L476.501 305.491L477.405 306.351L478.3 307.22L479.187 308.099L480.066 308.987L480.935 309.885L481.797 310.791L482.649 311.707L483.493 312.632L484.328 313.566L485.154 314.508L485.971 315.46L486.778 316.42L487.577 317.39L488.366 318.368L489.145 319.354L489.915 320.349L490.675 321.351L491.425 322.363L492.165 323.382L492.897 324.41L493.616 325.445L494.327 326.489L495.027 327.54L495.716 328.598L496.395 329.665L497.064 330.739L497.723 331.82L498.371 332.908L499.007 334.005L499.633 335.107L500.248 336.217L500.852 337.333L501.445 338.457L502.027 339.587L502.597 340.724L503.156 341.868L503.705 343.017L504.241 344.172L504.765 345.335L505.279 346.502L505.781 347.676L506.27 348.856L506.749 350.042L507.215 351.233L507.668 352.428L508.11 353.631L508.54 354.837L508.959 356.05L509.365 357.267L509.758 358.49L510.139 359.715L510.508 360.947L510.864 362.183L511.208 363.424L511.539 364.669L511.858 365.918L512.164 367.171L512.457 368.427L512.738 369.688L513.006 370.952L513.261 372.22L513.502 373.491L513.731 374.767L513.948 376.044L514.151 377.324L514.34 378.609L514.518 379.895L514.681 381.184L514.832 382.476L514.969 383.771L515.093 385.067L515.205 386.366L515.302 387.666L515.386 388.969L515.456 390.273L515.514 391.579L515.558 392.887L515.588 394.195L515.605 395.506L515.608 396.817L515.598 398.129L515.575 399.442L515.537 400.756L515.487 402.071L515.422 403.385L515.344 404.7L515.253 406.016L515.148 407.331L515.029 408.646L514.897 409.961L514.75 411.275L514.591 412.59L514.417 413.902L514.23 415.215L514.029 416.527L513.815 417.837L513.587 419.147L513.344 420.455L513.089 421.762L512.82 423.067L512.536 424.371L512.241 425.672L511.931 426.971L511.607 428.268L511.269 429.564L510.919 430.857L510.554 432.147L510.176 433.434L509.785 434.718L509.38 436.001L508.96 437.28L508.528 438.554L508.082 439.826L507.624 441.095L507.151 442.359L506.665 443.62L506.167 444.878L505.654 446.131L505.129 447.381L504.589 448.625L504.038 449.865L503.472 451.101L502.894 452.332L502.302 453.558L501.698 454.779L501.079 455.995L500.449 457.206L499.806 458.411L499.149 459.611L498.48 460.806L497.799 461.994L497.104 463.176L496.396 464.354L495.676 465.524L494.944 466.689L494.199 467.846L493.441 468.998L492.671 470.141L491.889 471.279L491.095 472.411L490.288 473.534L489.469 474.651L488.639 475.761L487.796 476.863L486.941 477.957L486.074 479.043L485.195 480.123L484.305 481.193L483.404 482.257L482.49 483.312L481.565 484.359L480.628 485.396L479.681 486.426L478.722 487.447L477.753 488.46L476.771 489.463L475.779 490.458L474.775 491.443L473.762 492.42L472.737 493.387L471.702 494.343L470.656 495.292L469.599 496.23L468.533 497.158L467.456 498.078L466.369 498.986L465.271 499.885L464.165 500.773L463.047 501.651L461.919 502.519L460.783 503.376L459.637 504.222L458.481 505.058L457.316 505.884L456.142 506.698L454.958 507.501L453.765 508.294L452.563 509.074L451.353 509.844L450.134 510.602L448.906 511.348L447.67 512.084L446.425 512.808L445.172 513.519L443.911 514.218L442.642 514.907L441.365 515.583L440.08 516.247L438.787 516.898L437.487 517.537L436.179 518.165L434.864 518.779L433.542 519.38L432.213 519.97L430.877 520.547L429.533 521.11L428.184 521.661L426.828 522.2L425.465 522.725L424.096 523.238L422.721 523.737L421.34 524.222L419.952 524.695L418.56 525.154L417.161 525.599L415.758 526.032L414.349 526.451L412.934 526.856L411.515 527.248L410.09 527.625L408.66 527.989L407.226 528.34L405.788 528.677L404.344 528.999L402.897 529.308L401.445 529.602L399.99 529.882L398.531 530.15L397.068 530.402L395.601 530.64L394.132 530.863L392.659 531.072L391.182 531.267L389.703 531.449L388.222 531.614L386.737 531.767L385.25 531.904L383.761 532.027L382.269 532.135L380.776 532.229L379.28 532.307L377.782 532.372L376.283 532.421L374.783 532.456L373.281 532.476L371.777 532.482L370.273 532.473L368.769 532.448L367.263 532.41L365.757 532.356L364.251 532.287L362.743 532.204L361.237 532.106L359.73 531.993L358.224 531.865L356.718 531.721L355.212 531.564L353.707 531.391L352.203 531.204L350.699 531.001L349.197 530.784L347.697 530.552L346.197 530.305L344.699 530.042L343.203 529.766L341.709 529.475L340.218 529.167L338.727 528.846L337.24 528.51L335.756 528.158L334.273 527.792L332.794 527.411L331.317 527.016L329.844 526.606L328.375 526.181L326.908 525.741L325.445 525.287L323.986 524.817L322.532 524.334L321.08 523.836L319.634 523.323L318.192 522.796L316.753 522.254L315.32 521.697L313.892 521.127L312.468 520.541L311.05 519.942L309.638 519.329L308.231 518.7L306.828 518.058L305.433 517.402L304.043 516.731L302.659 516.046L301.28 515.348L299.909 514.635L298.544 513.909L297.186 513.168L295.834 512.414L294.489 511.646L293.151 510.865L291.821 510.069L290.498 509.26L289.182 508.439L287.875 507.603L286.575 506.754L285.283 505.891L283.999 505.016L282.723 504.128L281.456 503.226L280.197 502.311L278.947 501.384L277.705 500.443L276.473 499.49L275.25 498.524L274.036 497.545L272.831 496.554L271.635 495.55L270.449 494.535L269.274 493.506L268.107 492.466L266.951 491.414L265.806 490.35L264.67 489.274L263.544 488.185L262.429 487.085L261.325 485.974L260.232 484.851L259.149 483.717L258.077 482.571L257.018 481.415L255.969 480.247L254.931 479.068L253.905 477.878L252.89 476.678L251.888 475.467L250.896 474.244L249.918 473.013L248.951 471.77L247.997 470.517L247.055 469.253L246.124 467.981L245.207 466.698L244.303 465.405L243.411 464.103L242.532 462.791L241.666 461.47L240.813 460.14L239.974 458.8L239.147 457.451L238.334 456.093L237.535 454.727L236.749 453.352L235.977 451.969L235.218 450.576L234.474 449.177L233.743 447.768L233.027 446.352L232.324 444.927L231.636 443.495L230.962 442.056L230.303 440.608L229.658 439.155L229.028 437.693L228.412 436.224L227.812 434.749L227.226 433.267L226.655 431.777L226.099 430.282L225.557 428.781L225.032 427.272L224.521 425.759L224.026 424.239L223.545 422.713L223.081 421.183L222.632 419.646L222.198 418.104L221.78 416.557L221.378 415.004L220.991 413.448L220.621 411.887L220.266 410.32L219.927 408.749L219.604 407.175L219.297 405.597L219.006 404.013L218.731 402.427L218.472 400.837L218.23 399.244L218.004 397.647L217.794 396.047L217.6 394.443L217.423 392.837L217.263 391.23L217.118 389.618L216.991 388.005L216.879 386.39L216.784 384.772L216.706 383.152L216.645 381.532L216.6 379.909L216.572 378.286L216.56 376.66L216.566 375.034L216.588 373.406L216.626 371.779L216.682 370.151L216.754 368.522L216.843 366.893L216.949 365.264L217.072 363.636L217.211 362.006L217.368 360.379L217.541 358.751L217.731 357.125L217.938 355.499L218.162 353.874L218.402 352.25L218.66 350.629L218.934 349.008L219.225 347.39L219.533 345.773L219.857 344.158L220.199 342.547L220.557 340.937L220.932 339.33L221.324 337.725L221.732 336.124L222.157 334.526L222.599 332.931L223.058 331.34L223.533 329.752L224.025 328.168L224.533 326.587L225.058 325.011L225.599 323.439L226.157 321.872L226.731 320.309L227.322 318.751L227.929 317.198L228.552 315.65L229.192 314.107L229.848 312.57L230.52 311.038L231.208 309.512L231.912 307.992L232.632 306.477L233.368 304.97L234.12 303.469L234.888 301.973L235.672 300.486L236.472 299.004L237.287 297.53L238.118 296.063L238.964 294.603L239.826 293.151L240.703 291.707L241.596 290.27L242.504 288.841L243.426 287.42L244.365 286.008L245.317 284.604L246.286 283.209L247.269 281.822L248.266 280.444L249.28 279.076L250.306 277.716L251.349 276.366L252.405 275.025L253.475 273.694L254.56 272.374L255.658 271.062L256.772 269.761L257.899 268.469L259.04 267.189L260.195 265.919L261.363 264.66L262.545 263.411L263.741 262.173L264.949 260.947L266.171 259.731L267.407 258.526L268.656 257.334L269.917 256.152L271.191 254.983L272.478 253.825L273.778 252.68L275.089 251.546L276.413 250.425L277.75 249.316L279.098 248.22L280.459 247.136L281.832 246.066L283.216 245.007L284.612 243.963L286.02 242.931L287.438 241.912L288.867 240.907L290.309 239.915L291.761 238.937L293.223 237.974L294.698 237.023L296.182 236.086L297.676 235.164L299.182 234.256L300.697 233.362L302.221 232.482L303.756 231.617L305.301 230.766L306.854 229.93L308.418 229.109L309.991 228.303L311.573 227.512L313.163 226.736L314.763 225.975L316.372 225.23L317.989 224.499L319.614 223.785L321.248 223.086L322.89 222.402L324.539 221.734L326.195 221.083L327.86 220.447L329.532 219.827L331.212 219.223L332.899 218.635L334.592 218.063L336.293 217.508L337.999 216.97L339.712 216.447L341.432 215.941L343.158 215.452L344.888 214.98L346.626 214.524L348.369 214.085L350.118 213.663L351.871 213.258L353.63 212.869L355.393 212.498L357.161 212.144L358.935 211.807L360.712 211.488L362.493 211.185L364.279 210.9L366.068 210.632L367.861 210.382L369.657 210.149L370.327 210.069ZM371.085 273.95L370.569 230.407L369.096 230.613L367.514 230.85L365.93 231.102L364.356 231.369L362.78 231.653L361.211 231.951L359.647 232.264L358.087 232.592L356.532 232.936L354.979 233.295L353.431 233.668L351.89 234.057L350.35 234.46L348.871 234.864L347.295 235.311L345.773 235.758L344.258 236.22L342.751 236.696L341.247 237.187L339.748 237.693L338.257 238.213L336.773 238.746L335.295 239.294L333.824 239.856L332.359 240.433L330.904 241.022L329.45 241.627L328.007 242.244L326.571 242.875L325.145 243.52L323.722 244.179L322.307 244.852L320.905 245.536L319.505 246.236L318.12 246.947L316.736 247.674L315.367 248.409L313.999 249.163L312.645 249.925L311.301 250.701L309.963 251.491L308.635 252.293L307.314 253.108L306.006 253.933L304.704 254.773L303.415 255.624L302.134 256.486L300.863 257.361L299.599 258.249L298.35 259.145L297.108 260.056L295.876 260.978L294.655 261.911L293.446 262.854L292.244 263.811L291.056 264.777L289.878 265.754L288.709 266.744L287.555 267.741L286.409 268.752L285.274 269.773L284.152 270.803L283.041 271.843L281.939 272.896L280.853 273.955L279.776 275.025L278.71 276.107L277.658 277.197L276.616 278.298L275.587 279.406L274.571 280.524L273.566 281.652L272.572 282.79L271.595 283.934L270.627 285.089L269.671 286.253L268.729 287.424L267.8 288.602L266.882 289.792L265.978 290.988L265.087 292.193L264.209 293.405L263.344 294.625L262.493 295.851L261.655 297.086L260.829 298.329L260.017 299.579L259.219 300.834L258.435 302.097L257.663 303.37L256.905 304.645L256.162 305.929L255.431 307.219L254.715 308.512L254.012 309.815L253.322 311.124L252.648 312.436L251.987 313.757L251.341 315.082L250.708 316.41L250.09 317.747L249.485 319.087L248.895 320.432L248.318 321.782L247.758 323.136L247.21 324.495L246.677 325.86L246.158 327.228L245.655 328.599L245.164 329.976L244.69 331.354L244.229 332.738L243.783 334.125L243.351 335.516L242.935 336.908L242.532 338.305L242.145 339.703L241.772 341.106L241.413 342.51L241.07 343.917L240.741 345.327L240.427 346.738L240.127 348.152L239.843 349.567L239.573 350.984L239.318 352.404L239.077 353.823L238.852 355.245L238.641 356.666L238.445 358.091L238.264 359.515L238.097 360.94L237.945 362.366L237.808 363.792L237.686 365.219L237.579 366.644L237.486 368.072L237.408 369.499L237.345 370.924L237.296 372.35L237.262 373.774L237.243 375.198L237.238 376.622L237.248 378.044L237.273 379.465L237.312 380.885L237.366 382.303L237.434 383.72L237.517 385.136L237.615 386.548L237.726 387.959L237.852 389.368L237.993 390.774L238.148 392.178L238.317 393.58L238.501 394.98L238.698 396.375L238.91 397.769L239.136 399.157L239.376 400.544L239.631 401.928L239.899 403.306L240.181 404.683L240.477 406.054L240.787 407.423L241.111 408.786L241.449 410.146L241.8 411.501L242.165 412.852L242.543 414.198L242.936 415.54L243.341 416.876L243.76 418.208L244.193 419.535L244.638 420.856L245.097 422.171L245.569 423.482L246.054 424.786L246.553 426.086L247.064 427.378L247.587 428.665L248.124 429.946L248.674 431.221L249.237 432.488L249.811 433.75L250.399 435.005L250.999 436.253L251.61 437.495L252.236 438.729L252.872 439.957L253.521 441.177L254.182 442.39L254.854 443.596L255.539 444.793L256.235 445.983L256.944 447.165L257.663 448.341L258.394 449.507L259.137 450.665L259.892 451.817L260.655 452.957L261.433 454.092L262.219 455.217L263.018 456.333L263.827 457.441L264.647 458.54L265.477 459.629L266.319 460.711L267.17 461.783L268.032 462.845L268.904 463.899L269.786 464.943L270.679 465.977L271.581 467.003L272.493 468.017L273.414 469.024L274.345 470.019L275.286 471.005L276.236 471.98L277.196 472.946L278.164 473.902L279.142 474.847L280.129 475.782L281.123 476.706L282.129 477.621L283.141 478.524L284.162 479.416L285.192 480.299L286.23 481.17L287.276 482.031L288.329 482.879L289.391 483.717L290.46 484.544L291.538 485.361L292.623 486.166L293.714 486.959L294.813 487.741L295.92 488.512L297.033 489.272L298.155 490.02L299.282 490.756L300.416 491.48L301.556 492.193L302.703 492.894L303.856 493.584L305.015 494.261L306.18 494.926L307.352 495.58L308.528 496.221L309.711 496.851L310.899 497.468L312.092 498.072L313.291 498.666L314.496 499.246L315.704 499.815L316.917 500.371L318.136 500.915L319.358 501.446L320.586 501.964L321.818 502.471L323.054 502.965L324.293 503.446L325.537 503.915L326.785 504.371L328.036 504.815L329.291 505.245L330.55 505.665L331.811 506.069L333.076 506.462L334.344 506.842L335.615 507.21L336.887 507.564L338.163 507.906L339.442 508.236L340.722 508.552L342.005 508.855L343.29 509.145L344.577 509.424L345.865 509.689L347.155 509.94L348.448 510.179L349.74 510.405L351.035 510.619L352.33 510.819L353.626 511.007L354.924 511.182L356.221 511.344L357.52 511.493L358.818 511.629L360.118 511.752L361.418 511.862L362.717 511.959L364.017 512.045L365.316 512.116L366.614 512.175L367.914 512.222L369.211 512.255L370.508 512.276L371.804 512.284L373.099 512.279L374.393 512.261L375.686 512.232L376.977 512.189L378.268 512.134L379.555 512.065L380.841 511.985L382.125 511.892L383.408 511.786L384.687 511.667L385.965 511.537L387.241 511.393L388.514 511.238L389.784 511.07L391.051 510.891L392.316 510.698L393.577 510.493L394.834 510.277L396.09 510.047L397.341 509.806L398.589 509.553L399.834 509.287L401.073 509.01L402.31 508.722L403.542 508.42L404.77 508.108L405.994 507.783L407.214 507.446L408.429 507.098L409.64 506.739L410.844 506.368L412.045 505.985L413.242 505.59L414.432 505.185L415.618 504.768L416.798 504.34L417.972 503.9L419.141 503.449L420.304 502.987L421.463 502.514L422.615 502.031L423.76 501.536L424.901 501.031L426.034 500.515L427.162 499.988L428.283 499.45L429.396 498.904L430.506 498.344L431.606 497.776L432.701 497.195L433.787 496.607L434.867 496.008L435.941 495.398L437.006 494.778L438.066 494.148L439.117 493.51L440.16 492.861L441.198 492.201L442.224 491.534L443.245 490.856L444.26 490.167L445.264 489.471L446.259 488.767L447.249 488.05L448.229 487.328L449.201 486.594L450.166 485.852L451.118 485.102L452.067 484.342L453.005 483.573L453.932 482.798L454.855 482.01L455.765 481.218L456.667 480.418L457.562 479.606L458.445 478.79L459.32 477.964L460.187 477.13L461.042 476.289L461.889 475.44L462.727 474.583L463.555 473.719L464.372 472.848L465.181 471.969L465.981 471.083L466.768 470.192L467.549 469.291L468.318 468.385L469.076 467.472L469.826 466.55L470.564 465.626L471.293 464.692L472.011 463.753L472.72 462.807L473.417 461.856L474.103 460.9L474.781 459.935L475.447 458.967L476.102 457.992L476.749 457.01L477.38 456.027L478.005 455.035L478.618 454.038L479.22 453.037L479.811 452.031L480.393 451.018L480.96 450.005L481.52 448.982L482.067 447.957L482.602 446.929L483.129 445.892L483.641 444.858L484.145 443.812L484.635 442.77L485.118 441.716L485.585 440.665L486.044 439.604L486.491 438.545L486.925 437.481L487.349 436.413L487.762 435.342L488.161 434.27L488.553 433.192L488.93 432.112L489.296 431.03L489.652 429.945L489.996 428.857L490.329 427.767L490.649 426.676L490.958 425.581L491.255 424.486L491.542 423.387L491.816 422.287L492.079 421.187L492.33 420.082L492.569 418.978L492.798 417.872L493.014 416.767L493.219 415.659L493.412 414.547L493.594 413.439L493.764 412.328L493.922 411.216L494.069 410.106L494.204 408.994L494.328 407.878L494.44 406.771L494.542 405.654L494.631 404.542L494.707 403.432L494.774 402.319L494.828 401.208L494.871 400.098L494.903 398.984L494.922 397.878L494.931 396.767L494.927 395.659L494.914 394.551L494.888 393.448L494.851 392.343L494.802 391.24L494.742 390.141L494.671 389.039L494.589 387.94L494.496 386.847L494.391 385.751L494.275 384.661L494.148 383.569L494.01 382.483L493.861 381.398L493.701 380.314L493.53 379.234L493.348 378.158L493.155 377.084L492.951 376.014L492.735 374.942L492.51 373.879L492.274 372.818L492.027 371.759L491.768 370.702L491.501 369.654L491.221 368.603L490.932 367.56L490.632 366.519L490.322 365.485L490.002 364.452L489.67 363.423L489.329 362.401L488.978 361.382L488.615 360.365L488.245 359.356L487.863 358.35L487.471 357.35L487.069 356.353L486.658 355.36L486.237 354.377L485.805 353.394L485.365 352.419L484.915 351.45L484.454 350.483L483.984 349.522L483.507 348.57L483.017 347.62L482.52 346.679L482.014 345.744L481.497 344.81L480.974 343.887L480.439 342.967L479.896 342.056L479.343 341.148L478.785 340.25L478.214 339.354L477.638 338.468L477.051 337.588L476.456 336.715L475.852 335.846L475.24 334.986L474.622 334.134L473.992 333.286L473.357 332.447L472.712 331.615L472.062 330.791L471.401 329.972L470.733 329.162L470.057 328.358L469.375 327.561L468.685 326.775L467.986 325.993L467.282 325.221L466.569 324.455L465.851 323.7L465.122 322.948L464.39 322.208L463.648 321.472L462.901 320.747L462.148 320.031L461.388 319.321L460.62 318.619L459.846 317.927L459.066 317.243L458.278 316.565L457.489 315.9L456.689 315.238L455.885 314.588L455.075 313.947L454.258 313.312L453.436 312.687L452.612 312.073L451.777 311.465L450.936 310.864L450.096 310.277L449.244 309.694L448.393 309.125L447.535 308.562L446.671 308.008L445.801 307.462L444.93 306.928L444.05 306.401L443.169 305.885L442.28 305.375L441.392 304.878L440.496 304.389L439.596 303.908L438.692 303.437L437.786 302.977L436.874 302.524L435.958 302.082L435.041 301.649L434.122 301.226L433.192 300.811L432.267 300.407L431.335 300.013L430.399 299.626L429.461 299.251L428.522 298.886L427.579 298.53L426.63 298.182L425.684 297.846L424.732 297.518L423.777 297.2L422.824 296.893L421.866 296.595L420.908 296.307L419.942 296.027L418.98 295.759L418.015 295.5L417.048 295.251L416.08 295.011L415.108 294.781L414.138 294.561L413.167 294.352L412.193 294.151L411.216 293.959L410.244 293.78L409.266 293.609L408.29 293.448L407.31 293.296L406.335 293.155L405.352 293.022L404.376 292.901L403.397 292.789L402.418 292.686L401.44 292.594L400.459 292.51L399.483 292.437L398.502 292.374L397.525 292.32L396.55 292.276L395.569 292.241L394.595 292.216L393.62 292.202L392.647 292.196L391.981 292.198L392.485 334.74L392.786 334.742L393.346 334.749L393.907 334.763L394.469 334.781L395.03 334.807L395.593 334.837L396.156 334.873L396.72 334.916L397.285 334.965L397.85 335.019L398.415 335.078L398.98 335.144L399.547 335.216L400.112 335.294L400.678 335.377L401.245 335.467L401.811 335.563L402.376 335.664L402.943 335.773L403.508 335.885L404.073 336.006L404.638 336.131L405.203 336.263L405.766 336.4L406.331 336.543L406.893 336.693L407.455 336.849L408.017 337.01L408.578 337.178L409.138 337.351L409.696 337.532L410.254 337.718L410.811 337.909L411.367 338.106L411.921 338.31L412.474 338.52L413.025 338.735L413.576 338.957L414.124 339.185L414.671 339.418L415.217 339.658L415.761 339.904L416.304 340.155L416.844 340.413L417.382 340.675L417.919 340.945L418.453 341.221L418.986 341.501L419.516 341.789L420.044 342.082L420.57 342.38L421.093 342.685L421.613 342.994L422.132 343.311L422.648 343.633L423.161 343.961L423.671 344.294L424.179 344.633L424.684 344.979L425.186 345.329L425.685 345.685L426.181 346.047L426.674 346.414L427.164 346.787L427.65 347.166L428.134 347.55L428.614 347.94L429.09 348.335L429.564 348.736L430.033 349.141L430.499 349.553L430.962 349.97L431.42 350.392L431.874 350.819L432.324 351.252L432.772 351.69L433.215 352.133L433.653 352.582L434.089 353.035L434.519 353.493L434.945 353.957L435.367 354.426L435.786 354.899L436.199 355.378L436.607 355.862L437.012 356.35L437.411 356.843L437.806 357.341L438.197 357.844L438.583 358.352L438.964 358.864L439.34 359.381L439.71 359.901L440.076 360.428L440.437 360.958L440.793 361.494L441.144 362.032L441.49 362.577L441.829 363.124L442.165 363.676L442.494 364.233L442.818 364.793L443.137 365.358L443.45 365.927L443.758 366.499L444.06 367.076L444.356 367.656L444.647 368.24L444.931 368.828L445.21 369.421L445.483 370.016L445.75 370.615L446.012 371.218L446.267 371.824L446.516 372.434L446.759 373.047L446.996 373.663L447.227 374.283L447.451 374.906L447.669 375.533L447.881 376.162L448.087 376.794L448.285 377.429L448.478 378.067L448.664 378.708L448.844 379.353L449.017 379.998L449.184 380.647L449.343 381.3L449.497 381.955L449.643 382.61L449.783 383.271L449.916 383.932L450.042 384.595L450.161 385.262L450.274 385.93L450.38 386.599L450.478 387.272L450.57 387.946L450.654 388.622L450.732 389.3L450.803 389.98L450.866 390.66L450.923 391.343L450.972 392.028L451.014 392.714L451.049 393.401L451.076 394.089L451.098 394.779L451.11 395.47L451.117 396.162L451.115 396.854L451.107 397.548L451.091 398.243L451.067 398.938L451.037 399.635L450.998 400.331L450.953 401.028L450.9 401.726L450.839 402.425L450.772 403.123L450.697 403.822L450.614 404.52L450.523 405.22L450.426 405.92L450.322 406.619L450.209 407.317L450.088 408.016L449.96 408.715L449.825 409.413L449.683 410.111L449.532 410.808L449.374 411.505L449.209 412.201L449.035 412.896L448.855 413.591L448.668 414.284L448.471 414.977L448.268 415.668L448.057 416.359L447.839 417.049L447.614 417.736L447.38 418.423L447.14 419.108L446.891 419.791L446.635 420.474L446.372 421.154L446.101 421.833L445.822 422.509L445.537 423.184L445.243 423.857L444.942 424.528L444.634 425.197L444.318 425.863L443.995 426.527L443.665 427.189L443.327 427.848L442.981 428.505L442.628 429.159L442.268 429.81L441.902 430.459L441.527 431.105L441.145 431.748L440.757 432.387L440.359 433.025L439.957 433.658L439.546 434.288L439.127 434.916L438.703 435.539L438.271 436.16L437.832 436.776L437.385 437.389L436.933 437.999L436.473 438.604L436.006 439.205L435.532 439.804L435.051 440.398L434.564 440.987L434.07 441.573L433.569 442.154L433.06 442.731L432.546 443.304L432.024 443.873L431.496 444.436L430.963 444.995L430.421 445.551L429.874 446.1L429.32 446.645L428.76 447.186L428.193 447.721L427.62 448.25L427.041 448.776L426.455 449.296L425.864 449.811L425.266 450.32L424.663 450.824L424.052 451.323L423.436 451.817L422.815 452.304L422.187 452.786L421.555 453.263L420.915 453.734L420.271 454.198L419.62 454.656L418.964 455.111L418.302 455.557L417.635 455.999L416.963 456.432L416.285 456.862L415.601 457.284L414.913 457.7L414.219 458.109L413.521 458.512L412.817 458.909L412.107 459.299L411.394 459.683L410.675 460.06L409.952 460.43L409.223 460.793L408.491 461.15L407.753 461.5L407.011 461.842L406.265 462.178L405.514 462.506L404.759 462.828L404 463.143L403.236 463.449L402.468 463.749L401.696 464.042L400.92 464.327L400.14 464.605L399.357 464.876L398.57 465.138L397.779 465.394L396.984 465.641L396.187 465.881L395.385 466.114L394.58 466.338L393.772 466.556L392.961 466.764L392.147 466.966L391.329 467.159L390.509 467.345L389.685 467.521L388.859 467.692L388.03 467.853L387.198 468.006L386.365 468.151L385.528 468.289L384.689 468.417L383.848 468.538L383.005 468.651L382.159 468.755L381.311 468.851L380.462 468.938L379.61 469.018L378.757 469.088L377.902 469.151L377.045 469.204L376.187 469.25L375.327 469.287L374.467 469.315L373.604 469.335L372.74 469.346L371.876 469.349L371.011 469.344L370.144 469.329L369.277 469.305L368.409 469.274L367.541 469.233L366.671 469.184L365.801 469.126L364.931 469.06L364.061 468.984L363.19 468.9L362.32 468.807L361.449 468.705L360.58 468.594L359.709 468.475L358.839 468.347L357.969 468.21L357.1 468.065L356.231 467.91L355.364 467.747L354.496 467.576L353.63 467.394L352.764 467.205L351.9 467.005L351.037 466.798L350.174 466.583L349.313 466.357L348.455 466.123L347.596 465.881L346.741 465.63L345.886 465.369L345.033 465.1L344.182 464.823L343.333 464.537L342.487 464.241L341.642 463.937L340.799 463.624L339.959 463.303L339.121 462.972L338.286 462.633L337.454 462.286L336.624 461.93L335.797 461.565L334.973 461.192L334.152 460.81L333.333 460.419L332.519 460.02L331.708 459.612L330.9 459.196L330.095 458.772L329.294 458.339L328.497 457.897L327.704 457.448L326.913 456.989L326.128 456.523L325.346 456.048L324.568 455.565L323.794 455.073L323.025 454.574L322.26 454.066L321.5 453.55L320.745 453.026L319.993 452.494L319.247 451.954L318.505 451.406L317.769 450.85L317.038 450.287L316.311 449.714L315.59 449.135L314.874 448.548L314.163 447.953L313.458 447.35L312.758 446.739L312.064 446.122L311.376 445.496L310.694 444.863L310.017 444.223L309.347 443.575L308.681 442.921L308.023 442.258L307.371 441.589L306.725 440.911L306.085 440.229L305.452 439.537L304.826 438.839L304.205 438.135L303.593 437.423L302.986 436.705L302.386 435.979L301.793 435.247L301.208 434.509L300.629 433.764L300.057 433.012L299.493 432.254L298.937 431.49L298.387 430.719L297.845 429.942L297.31 429.159L296.783 428.37L296.264 427.574L295.753 426.773L295.249 425.966L294.753 425.154L294.265 424.335L293.785 423.511L293.314 422.68L292.85 421.845L292.394 421.005L291.947 420.159L291.509 419.307L291.078 418.45L290.656 417.589L290.243 416.722L289.838 415.851L289.442 414.974L289.055 414.093L288.676 413.206L288.306 412.316L287.945 411.42L287.593 410.521L287.25 409.616L286.917 408.708L286.592 407.795L286.276 406.879L285.969 405.958L285.672 405.033L285.385 404.105L285.106 403.173L284.836 402.236L284.577 401.297L284.328 400.353L284.086 399.407L283.856 398.457L283.635 397.505L283.423 396.548L283.221 395.589L283.029 394.627L282.846 393.662L282.674 392.694L282.511 391.724L282.359 390.752L282.216 389.776L282.082 388.799L281.961 387.819L281.848 386.837L281.745 385.852L281.653 384.866L281.57 383.878L281.498 382.889L281.436 381.897L281.384 380.904L281.342 379.911L281.311 378.914L281.29 377.917L281.28 376.92L281.279 375.92L281.289 374.92L281.311 373.919L281.341 372.917L281.383 371.915L281.435 370.912L281.497 369.909L281.569 368.905L281.653 367.901L281.746 366.897L281.85 365.893L281.965 364.889L282.09 363.885L282.226 362.882L282.372 361.879L282.529 360.876L282.697 359.874L282.874 358.873L283.063 357.872L283.263 356.872L283.472 355.874L283.692 354.877L283.923 353.881L284.164 352.887L284.416 351.893L284.678 350.901L284.951 349.912L285.235 348.924L285.528 347.937L285.833 346.953L286.147 345.97L286.472 344.99L286.808 344.013L287.155 343.037L287.511 342.065L287.878 341.095L288.256 340.128L288.644 339.163L289.042 338.201L289.451 337.243L289.869 336.288L290.299 335.335L290.738 334.387L291.188 333.441L291.647 332.5L292.118 331.562L292.597 330.628L293.088 329.698L293.588 328.772L294.099 327.85L294.619 326.932L295.149 326.018L295.69 325.109L296.24 324.205L296.8 323.304L297.371 322.41L297.951 321.518L298.54 320.633L299.139 319.753L299.748 318.877L300.366 318.007L300.995 317.143L301.632 316.283L302.278 315.429L302.935 314.581L303.601 313.739L304.276 312.903L304.961 312.071L305.654 311.247L306.357 310.428L307.069 309.616L307.79 308.81L308.52 308.01L309.259 307.218L310.007 306.431L310.764 305.651L311.529 304.878L312.303 304.112L313.085 303.353L313.876 302.601L314.676 301.856L315.484 301.118L316.3 300.388L317.124 299.665L317.958 298.95L318.799 298.241L319.648 297.542L320.505 296.85L321.37 296.165L322.242 295.488L323.123 294.82L324.011 294.16L324.907 293.508L325.811 292.864L326.721 292.229L327.639 291.601L328.566 290.982L329.497 290.373L330.437 289.772L331.385 289.179L332.338 288.596L333.3 288.021L334.266 287.455L335.241 286.899L336.222 286.351L337.209 285.812L338.203 285.284L339.202 284.764L340.209 284.254L341.221 283.754L342.239 283.262L343.264 282.781L344.294 282.309L345.33 281.847L346.371 281.395L347.419 280.952L348.472 280.52L349.529 280.098L350.593 279.686L351.661 279.284L352.734 278.891L353.813 278.511L354.897 278.139L355.984 277.778L357.078 277.428L358.174 277.087L359.276 276.758L360.382 276.439L361.492 276.132L362.607 275.834L363.725 275.547L364.848 275.271L365.974 275.006L367.104 274.753L368.237 274.509L369.374 274.277L370.513 274.056L371.085 273.95ZM385.097 355.761L372.093 358.865L371.329 294.528L370.716 294.666L369.794 294.883L368.872 295.11L367.957 295.344L367.043 295.588L366.135 295.84L365.227 296.103L364.327 296.371L363.426 296.65L362.536 296.935L361.643 297.232L360.757 297.536L359.874 297.848L358.996 298.168L358.125 298.496L357.255 298.834L356.389 299.179L355.53 299.532L354.671 299.894L353.824 300.262L352.977 300.64L352.137 301.025L351.299 301.419L350.469 301.819L349.64 302.228L348.821 302.644L348.006 303.068L347.196 303.499L346.391 303.937L345.591 304.384L344.797 304.838L344.012 305.298L343.225 305.767L342.449 306.242L341.68 306.724L340.915 307.213L340.155 307.71L339.402 308.214L338.655 308.724L337.914 309.24L337.181 309.763L336.451 310.294L335.729 310.831L335.013 311.375L334.304 311.924L333.602 312.479L332.907 313.041L332.216 313.61L331.533 314.186L330.858 314.765L330.189 315.352L329.527 315.944L328.871 316.542L328.223 317.147L327.582 317.757L326.948 318.371L326.319 318.993L325.7 319.618L325.087 320.251L324.483 320.886L323.882 321.531L323.292 322.176L322.709 322.829L322.133 323.487L321.565 324.147L321.003 324.815L320.452 325.485L319.904 326.163L319.367 326.843L318.836 327.529L318.314 328.219L317.799 328.912L317.291 329.61L316.793 330.312L316.301 331.02L315.817 331.73L315.342 332.445L314.875 333.162L314.416 333.883L313.963 334.61L313.521 335.338L313.084 336.072L312.658 336.806L312.238 337.546L311.826 338.289L311.425 339.034L311.03 339.782L310.644 340.533L310.265 341.29L309.896 342.045L309.534 342.806L309.181 343.568L308.837 344.333L308.499 345.101L308.171 345.871L307.852 346.642L307.54 347.417L307.238 348.194L306.942 348.972L306.657 349.751L306.379 350.534L306.11 351.318L305.849 352.104L305.596 352.89L305.353 353.68L305.117 354.47L304.891 355.26L304.672 356.053L304.461 356.848L304.261 357.642L304.068 358.438L303.883 359.234L303.707 360.032L303.54 360.831L303.381 361.629L303.229 362.428L303.087 363.229L302.954 364.028L302.829 364.828L302.712 365.63L302.603 366.429L302.504 367.231L302.413 368.03L302.329 368.832L302.255 369.634L302.188 370.433L302.131 371.233L302.081 372.033L302.039 372.831L302.007 373.628L301.982 374.425L301.966 375.223L301.957 376.018L301.958 376.813L301.966 377.606L301.983 378.399L302.008 379.19L302.04 379.98L302.081 380.769L302.131 381.556L302.188 382.341L302.254 383.125L302.327 383.907L302.408 384.689L302.497 385.466L302.594 386.244L302.699 387.017L302.813 387.792L302.934 388.561L303.063 389.33L303.199 390.097L303.343 390.86L303.496 391.622L303.655 392.379L303.823 393.136L303.998 393.889L304.181 394.64L304.37 395.386L304.569 396.133L304.773 396.874L304.985 397.614L305.205 398.349L305.432 399.082L305.666 399.811L305.908 400.536L306.157 401.261L306.413 401.979L306.676 402.694L306.946 403.407L307.223 404.116L307.508 404.82L307.799 405.521L308.095 406.217L308.401 406.912L308.713 407.601L309.031 408.286L309.356 408.967L309.686 409.643L310.026 410.318L310.369 410.985L310.72 411.649L311.077 412.309L311.442 412.964L311.812 413.615L312.187 414.262L312.57 414.902L312.959 415.54L313.353 416.172L313.753 416.798L314.161 417.422L314.572 418.039L314.991 418.653L315.414 419.258L315.844 419.862L316.279 420.459L316.719 421.051L317.167 421.639L317.619 422.221L318.076 422.797L318.538 423.368L319.006 423.935L319.478 424.494L319.957 425.049L320.44 425.599L320.928 426.142L321.423 426.681L321.919 427.211L322.423 427.74L322.93 428.26L323.441 428.775L323.959 429.285L324.48 429.788L325.006 430.287L325.536 430.778L326.071 431.264L326.61 431.744L327.153 432.217L327.7 432.684L328.251 433.146L328.806 433.602L329.365 434.051L329.93 434.494L330.495 434.93L331.066 435.361L331.64 435.785L332.218 436.204L332.799 436.615L333.383 437.02L333.971 437.419L334.562 437.812L335.155 438.197L335.752 438.577L336.355 438.951L336.957 439.316L337.563 439.676L338.173 440.03L338.784 440.376L339.398 440.716L340.017 441.051L340.636 441.378L341.258 441.698L341.882 442.011L342.51 442.319L343.137 442.619L343.77 442.913L344.403 443.2L345.037 443.479L345.676 443.753L346.316 444.02L346.955 444.281L347.598 444.534L348.243 444.78L348.89 445.02L349.536 445.253L350.187 445.48L350.835 445.698L351.486 445.911L352.139 446.117L352.794 446.317L353.448 446.508L354.104 446.694L354.761 446.872L355.419 447.045L356.077 447.209L356.736 447.368L357.395 447.519L358.055 447.663L358.716 447.802L359.377 447.933L360.038 448.058L360.699 448.175L361.361 448.287L362.024 448.39L362.686 448.488L363.346 448.578L364.008 448.662L364.669 448.74L365.332 448.81L365.993 448.874L366.654 448.931L367.314 448.982L367.973 449.026L368.633 449.063L369.29 449.093L369.947 449.118L370.606 449.135L371.26 449.146L371.915 449.151L372.569 449.149L373.221 449.141L373.874 449.125L374.525 449.103L375.173 449.076L375.82 449.042L376.469 449.001L377.112 448.954L377.756 448.901L378.397 448.841L379.038 448.776L379.677 448.702L380.312 448.625L380.948 448.54L381.58 448.449L382.209 448.352L382.84 448.249L383.466 448.14L384.09 448.025L384.713 447.903L385.333 447.776L385.949 447.643L386.563 447.504L387.177 447.359L387.787 447.208L388.394 447.053L388.999 446.89L389.6 446.722L390.202 446.548L390.797 446.369L391.389 446.184L391.982 445.992L392.569 445.796L393.153 445.596L393.734 445.388L394.312 445.175L394.888 444.957L395.46 444.734L396.028 444.505L396.593 444.272L397.155 444.032L397.714 443.787L398.267 443.538L398.82 443.283L399.367 443.024L399.91 442.759L400.451 442.49L400.986 442.216L401.52 441.937L402.049 441.652L402.574 441.363L403.094 441.07L403.612 440.772L404.125 440.469L404.633 440.161L405.137 439.849L405.638 439.532L406.134 439.212L406.627 438.887L407.115 438.557L407.599 438.223L408.078 437.885L408.552 437.543L409.022 437.196L409.488 436.846L409.95 436.491L410.407 436.133L410.86 435.77L411.307 435.405L411.75 435.035L412.188 434.661L412.621 434.283L413.051 433.903L413.475 433.517L413.895 433.13L414.308 432.739L414.719 432.343L415.124 431.944L415.524 431.543L415.919 431.138L416.308 430.729L416.693 430.319L417.074 429.903L417.448 429.488L417.819 429.066L418.183 428.643L418.542 428.218L418.899 427.787L419.246 427.357L419.591 426.922L419.931 426.486L420.264 426.046L420.593 425.603L420.916 425.161L421.234 424.712L421.548 424.263L421.855 423.813L422.157 423.358L422.455 422.902L422.745 422.445L423.031 421.985L423.312 421.523L423.588 421.059L423.858 420.594L424.122 420.126L424.382 419.657L424.636 419.185L424.884 418.714L425.126 418.24L425.364 417.764L425.597 417.287L425.824 416.807L426.045 416.329L426.26 415.847L426.47 415.366L426.675 414.882L426.874 414.398L427.069 413.91L427.256 413.427L427.44 412.936L427.616 412.452L427.789 411.961L427.956 411.47L428.116 410.981L428.272 410.489L428.422 409.999L428.567 409.503L428.705 409.014L428.84 408.517L428.968 408.028L429.091 407.532L429.208 407.037L429.32 406.544L429.426 406.053L429.528 405.555L429.623 405.062L429.714 404.566L429.798 404.074L429.878 403.581L429.953 403.086L430.022 402.591L430.085 402.098L430.144 401.606L430.197 401.116L430.244 400.622L430.287 400.131L430.324 399.64L430.356 399.15L430.383 398.661L430.404 398.173L430.42 397.687L430.431 397.198L430.438 396.71L430.439 396.227L430.435 395.744L430.426 395.261L430.411 394.78L430.392 394.297L430.367 393.822L430.338 393.338L430.304 392.866L430.264 392.391L430.22 391.914L430.171 391.441L430.118 390.974L430.058 390.499L429.995 390.035L429.926 389.567L429.854 389.107L429.775 388.641L429.692 388.179L429.605 387.722L429.514 387.265L429.417 386.808L429.315 386.356L429.211 385.904L429.1 385.456L428.986 385.011L428.865 384.562L428.743 384.123L428.615 383.679L428.483 383.243L428.346 382.806L428.205 382.374L428.06 381.942L427.91 381.512L427.757 381.088L427.599 380.666L427.437 380.242L427.271 379.825L427.101 379.406L426.928 378.997L426.749 378.583L426.568 378.176L426.382 377.773L426.193 377.37L426 376.971L425.802 376.574L425.601 376.18L425.397 375.79L425.188 375.402L424.977 375.018L424.762 374.636L424.542 374.257L424.321 373.882L424.095 373.51L423.865 373.139L423.633 372.775L423.397 372.413L423.158 372.053L422.915 371.696L422.67 371.344L422.421 370.994L422.169 370.648L421.914 370.305L421.656 369.966L421.397 369.63L421.131 369.297L420.865 368.969L420.596 368.643L420.324 368.321L420.048 368.002L419.772 367.688L419.491 367.377L419.208 367.069L418.922 366.764L418.635 366.464L418.344 366.168L418.05 365.874L417.756 365.585L417.458 365.3L417.159 365.018L416.854 364.739L416.552 364.465L416.245 364.193L415.937 363.928L415.626 363.664L415.313 363.406L414.999 363.15L414.683 362.899L414.364 362.651L414.044 362.406L413.723 362.167L413.399 361.931L413.073 361.699L412.747 361.471L412.418 361.246L412.089 361.026L411.757 360.81L411.423 360.597L411.09 360.388L410.753 360.183L410.417 359.983L410.08 359.786L409.74 359.594L409.398 359.404L409.057 359.22L408.716 359.038L408.371 358.861L408.028 358.689L407.681 358.519L407.336 358.354L406.988 358.194L406.641 358.037L406.292 357.883L405.941 357.733L405.594 357.589L405.242 357.448L404.89 357.311L404.539 357.178L404.187 357.048L403.835 356.923L403.482 356.801L403.129 356.683L402.777 356.571L402.422 356.46L402.068 356.354L401.716 356.253L401.36 356.155L401.008 356.061L400.653 355.971L400.299 355.884L399.945 355.802L399.592 355.723L399.237 355.649L398.884 355.578L398.532 355.51L398.18 355.447L397.826 355.387L397.476 355.332L397.122 355.28L396.773 355.232L396.421 355.187L396.072 355.146L395.724 355.109L395.375 355.076L395.027 355.046L394.68 355.02L394.333 354.997L393.987 354.978L393.642 354.964L393.3 354.952L392.956 354.943L392.614 354.939L392.272 354.938L391.932 354.941L391.593 354.947L391.255 354.956L390.918 354.969L390.584 354.985L390.248 355.005L389.916 355.028L389.585 355.054L389.254 355.084L388.926 355.117L388.596 355.153L388.271 355.192L387.946 355.235L387.624 355.281L387.301 355.331L386.982 355.383L386.663 355.438L386.348 355.497L386.031 355.559L385.718 355.623L385.406 355.69L385.097 355.761Z" fill="white"/>
<defs>
<linearGradient id="paint0_linear_186_24" x1="370" y1="0" x2="370" y2="740" gradientUnits="userSpaceOnUse">
<stop stop-color="#7F22FE"/>
<stop offset="1" stop-color="#4C1498"/>
</linearGradient>
</defs>
</svg>
