<svg width="1896" height="1080" viewBox="0 0 1896 1080" fill="none" xmlns="http://www.w3.org/2000/svg">
<path d="M1896 0H0V1080H1896V0Z" fill="url(#paint0_linear_21_19)"/>
<path d="M0 0H1745.89C1745.89 535.032 1194.47 892.239 1194.47 1080H0V0Z" fill="url(#paint1_linear_21_19)" fill-opacity="0.5"/>
<path d="M0 0H1644.92C1644.92 380.512 1064.79 636.067 1064.79 1080H0V0Z" fill="url(#paint2_linear_21_19)" fill-opacity="0.5"/>
<path d="M0 0H1194.93C1194.93 406.508 730.255 929.652 730.255 1080H0V0Z" fill="url(#paint3_linear_21_19)" fill-opacity="0.5"/>
<path d="M0 0H1190.77C1190.77 151.772 689.703 952.856 689.703 1080H0V0Z" fill="url(#paint4_linear_21_19)" fill-opacity="0.5"/>
<path d="M0 0H780.093C780.093 373.783 150.867 682.105 150.867 1080H0V0Z" fill="url(#paint5_linear_21_19)" fill-opacity="0.5"/>
<path d="M0 0H760.168C760.168 237.376 125.516 876.628 125.516 1080H0V0Z" fill="url(#paint6_linear_21_19)" fill-opacity="0.5"/>
<defs>
<linearGradient id="paint0_linear_21_19" x1="-189.6" y1="540" x2="2085.6" y2="540" gradientUnits="userSpaceOnUse">
<stop stop-color="#00FFFF"/>
<stop offset="1" stop-color="#FF00FF"/>
</linearGradient>
<linearGradient id="paint1_linear_21_19" x1="-174.589" y1="540" x2="1920.48" y2="540" gradientUnits="userSpaceOnUse">
<stop stop-color="#00FFFF"/>
<stop offset="1" stop-color="#FF00FF"/>
</linearGradient>
<linearGradient id="paint2_linear_21_19" x1="-164.492" y1="540" x2="1809.41" y2="540" gradientUnits="userSpaceOnUse">
<stop stop-color="#00FFFF"/>
<stop offset="1" stop-color="#FF00FF"/>
</linearGradient>
<linearGradient id="paint3_linear_21_19" x1="-119.493" y1="540" x2="1314.42" y2="540" gradientUnits="userSpaceOnUse">
<stop stop-color="#00FFFF"/>
<stop offset="1" stop-color="#FF00FF"/>
</linearGradient>
<linearGradient id="paint4_linear_21_19" x1="-119.077" y1="540" x2="1309.85" y2="540" gradientUnits="userSpaceOnUse">
<stop stop-color="#00FFFF"/>
<stop offset="1" stop-color="#FF00FF"/>
</linearGradient>
<linearGradient id="paint5_linear_21_19" x1="-78.0093" y1="540" x2="858.103" y2="540" gradientUnits="userSpaceOnUse">
<stop stop-color="#00FFFF"/>
<stop offset="1" stop-color="#FF00FF"/>
</linearGradient>
<linearGradient id="paint6_linear_21_19" x1="-76.0168" y1="540" x2="836.185" y2="540" gradientUnits="userSpaceOnUse">
<stop stop-color="#00FFFF"/>
<stop offset="1" stop-color="#FF00FF"/>
</linearGradient>
</defs>
</svg>
